%TF.GenerationSoftware,KiCad,Pcbnew,7.0.2*%
%TF.CreationDate,2024-05-24T17:29:10+02:00*%
%TF.ProjectId,dsoxlan,64736f78-6c61-46e2-9e6b-696361645f70,rev?*%
%TF.SameCoordinates,Original*%
%TF.FileFunction,Copper,L1,Top*%
%TF.FilePolarity,Positive*%
%FSLAX46Y46*%
G04 Gerber Fmt 4.6, Leading zero omitted, Abs format (unit mm)*
G04 Created by KiCad (PCBNEW 7.0.2) date 2024-05-24 17:29:10*
%MOMM*%
%LPD*%
G01*
G04 APERTURE LIST*
G04 Aperture macros list*
%AMRoundRect*
0 Rectangle with rounded corners*
0 $1 Rounding radius*
0 $2 $3 $4 $5 $6 $7 $8 $9 X,Y pos of 4 corners*
0 Add a 4 corners polygon primitive as box body*
4,1,4,$2,$3,$4,$5,$6,$7,$8,$9,$2,$3,0*
0 Add four circle primitives for the rounded corners*
1,1,$1+$1,$2,$3*
1,1,$1+$1,$4,$5*
1,1,$1+$1,$6,$7*
1,1,$1+$1,$8,$9*
0 Add four rect primitives between the rounded corners*
20,1,$1+$1,$2,$3,$4,$5,0*
20,1,$1+$1,$4,$5,$6,$7,0*
20,1,$1+$1,$6,$7,$8,$9,0*
20,1,$1+$1,$8,$9,$2,$3,0*%
G04 Aperture macros list end*
%ADD10C,0.300000*%
%TA.AperFunction,NonConductor*%
%ADD11C,0.300000*%
%TD*%
%TA.AperFunction,EtchedComponent*%
%ADD12C,0.010000*%
%TD*%
%TA.AperFunction,ComponentPad*%
%ADD13C,1.400000*%
%TD*%
%TA.AperFunction,ComponentPad*%
%ADD14C,1.530000*%
%TD*%
%TA.AperFunction,ComponentPad*%
%ADD15C,2.400000*%
%TD*%
%TA.AperFunction,SMDPad,CuDef*%
%ADD16RoundRect,0.250000X0.337500X0.475000X-0.337500X0.475000X-0.337500X-0.475000X0.337500X-0.475000X0*%
%TD*%
%TA.AperFunction,ConnectorPad*%
%ADD17R,3.600000X0.550000*%
%TD*%
%TA.AperFunction,SMDPad,CuDef*%
%ADD18RoundRect,0.250000X0.350000X0.450000X-0.350000X0.450000X-0.350000X-0.450000X0.350000X-0.450000X0*%
%TD*%
%TA.AperFunction,ViaPad*%
%ADD19C,0.800000*%
%TD*%
%TA.AperFunction,Conductor*%
%ADD20C,0.500000*%
%TD*%
%TA.AperFunction,Conductor*%
%ADD21C,0.400000*%
%TD*%
%TA.AperFunction,Conductor*%
%ADD22C,0.200000*%
%TD*%
%TA.AperFunction,Conductor*%
%ADD23C,1.000000*%
%TD*%
G04 APERTURE END LIST*
D10*
D11*
X144145844Y-111180830D02*
X144145844Y-109680830D01*
X144145844Y-109680830D02*
X144502987Y-109680830D01*
X144502987Y-109680830D02*
X144717273Y-109752259D01*
X144717273Y-109752259D02*
X144860130Y-109895116D01*
X144860130Y-109895116D02*
X144931559Y-110037973D01*
X144931559Y-110037973D02*
X145002987Y-110323687D01*
X145002987Y-110323687D02*
X145002987Y-110537973D01*
X145002987Y-110537973D02*
X144931559Y-110823687D01*
X144931559Y-110823687D02*
X144860130Y-110966544D01*
X144860130Y-110966544D02*
X144717273Y-111109402D01*
X144717273Y-111109402D02*
X144502987Y-111180830D01*
X144502987Y-111180830D02*
X144145844Y-111180830D01*
X145645844Y-111180830D02*
X145645844Y-109680830D01*
X146645845Y-110466544D02*
X146645845Y-111180830D01*
X146145845Y-109680830D02*
X146645845Y-110466544D01*
X146645845Y-110466544D02*
X147145845Y-109680830D01*
X148788701Y-111180830D02*
X148788701Y-109680830D01*
X148788701Y-109680830D02*
X149145844Y-109680830D01*
X149145844Y-109680830D02*
X149360130Y-109752259D01*
X149360130Y-109752259D02*
X149502987Y-109895116D01*
X149502987Y-109895116D02*
X149574416Y-110037973D01*
X149574416Y-110037973D02*
X149645844Y-110323687D01*
X149645844Y-110323687D02*
X149645844Y-110537973D01*
X149645844Y-110537973D02*
X149574416Y-110823687D01*
X149574416Y-110823687D02*
X149502987Y-110966544D01*
X149502987Y-110966544D02*
X149360130Y-111109402D01*
X149360130Y-111109402D02*
X149145844Y-111180830D01*
X149145844Y-111180830D02*
X148788701Y-111180830D01*
X150217273Y-111109402D02*
X150431559Y-111180830D01*
X150431559Y-111180830D02*
X150788701Y-111180830D01*
X150788701Y-111180830D02*
X150931559Y-111109402D01*
X150931559Y-111109402D02*
X151002987Y-111037973D01*
X151002987Y-111037973D02*
X151074416Y-110895116D01*
X151074416Y-110895116D02*
X151074416Y-110752259D01*
X151074416Y-110752259D02*
X151002987Y-110609402D01*
X151002987Y-110609402D02*
X150931559Y-110537973D01*
X150931559Y-110537973D02*
X150788701Y-110466544D01*
X150788701Y-110466544D02*
X150502987Y-110395116D01*
X150502987Y-110395116D02*
X150360130Y-110323687D01*
X150360130Y-110323687D02*
X150288701Y-110252259D01*
X150288701Y-110252259D02*
X150217273Y-110109402D01*
X150217273Y-110109402D02*
X150217273Y-109966544D01*
X150217273Y-109966544D02*
X150288701Y-109823687D01*
X150288701Y-109823687D02*
X150360130Y-109752259D01*
X150360130Y-109752259D02*
X150502987Y-109680830D01*
X150502987Y-109680830D02*
X150860130Y-109680830D01*
X150860130Y-109680830D02*
X151074416Y-109752259D01*
X152002987Y-109680830D02*
X152288701Y-109680830D01*
X152288701Y-109680830D02*
X152431558Y-109752259D01*
X152431558Y-109752259D02*
X152574415Y-109895116D01*
X152574415Y-109895116D02*
X152645844Y-110180830D01*
X152645844Y-110180830D02*
X152645844Y-110680830D01*
X152645844Y-110680830D02*
X152574415Y-110966544D01*
X152574415Y-110966544D02*
X152431558Y-111109402D01*
X152431558Y-111109402D02*
X152288701Y-111180830D01*
X152288701Y-111180830D02*
X152002987Y-111180830D01*
X152002987Y-111180830D02*
X151860130Y-111109402D01*
X151860130Y-111109402D02*
X151717272Y-110966544D01*
X151717272Y-110966544D02*
X151645844Y-110680830D01*
X151645844Y-110680830D02*
X151645844Y-110180830D01*
X151645844Y-110180830D02*
X151717272Y-109895116D01*
X151717272Y-109895116D02*
X151860130Y-109752259D01*
X151860130Y-109752259D02*
X152002987Y-109680830D01*
X153145844Y-109680830D02*
X154145844Y-111180830D01*
X154145844Y-109680830D02*
X153145844Y-111180830D01*
X155431558Y-111180830D02*
X154717272Y-111180830D01*
X154717272Y-111180830D02*
X154717272Y-109680830D01*
X155860130Y-110752259D02*
X156574416Y-110752259D01*
X155717273Y-111180830D02*
X156217273Y-109680830D01*
X156217273Y-109680830D02*
X156717273Y-111180830D01*
X157217272Y-111180830D02*
X157217272Y-109680830D01*
X157217272Y-109680830D02*
X158074415Y-111180830D01*
X158074415Y-111180830D02*
X158074415Y-109680830D01*
X141752989Y-113182259D02*
X142467275Y-113182259D01*
X141610132Y-113610830D02*
X142110132Y-112110830D01*
X142110132Y-112110830D02*
X142610132Y-113610830D01*
X142967274Y-112110830D02*
X143324417Y-113610830D01*
X143324417Y-113610830D02*
X143610131Y-112539402D01*
X143610131Y-112539402D02*
X143895846Y-113610830D01*
X143895846Y-113610830D02*
X144252989Y-112110830D01*
X145895846Y-112253687D02*
X145967274Y-112182259D01*
X145967274Y-112182259D02*
X146110132Y-112110830D01*
X146110132Y-112110830D02*
X146467274Y-112110830D01*
X146467274Y-112110830D02*
X146610132Y-112182259D01*
X146610132Y-112182259D02*
X146681560Y-112253687D01*
X146681560Y-112253687D02*
X146752989Y-112396544D01*
X146752989Y-112396544D02*
X146752989Y-112539402D01*
X146752989Y-112539402D02*
X146681560Y-112753687D01*
X146681560Y-112753687D02*
X145824417Y-113610830D01*
X145824417Y-113610830D02*
X146752989Y-113610830D01*
X147681560Y-112110830D02*
X147824417Y-112110830D01*
X147824417Y-112110830D02*
X147967274Y-112182259D01*
X147967274Y-112182259D02*
X148038703Y-112253687D01*
X148038703Y-112253687D02*
X148110131Y-112396544D01*
X148110131Y-112396544D02*
X148181560Y-112682259D01*
X148181560Y-112682259D02*
X148181560Y-113039402D01*
X148181560Y-113039402D02*
X148110131Y-113325116D01*
X148110131Y-113325116D02*
X148038703Y-113467973D01*
X148038703Y-113467973D02*
X147967274Y-113539402D01*
X147967274Y-113539402D02*
X147824417Y-113610830D01*
X147824417Y-113610830D02*
X147681560Y-113610830D01*
X147681560Y-113610830D02*
X147538703Y-113539402D01*
X147538703Y-113539402D02*
X147467274Y-113467973D01*
X147467274Y-113467973D02*
X147395845Y-113325116D01*
X147395845Y-113325116D02*
X147324417Y-113039402D01*
X147324417Y-113039402D02*
X147324417Y-112682259D01*
X147324417Y-112682259D02*
X147395845Y-112396544D01*
X147395845Y-112396544D02*
X147467274Y-112253687D01*
X147467274Y-112253687D02*
X147538703Y-112182259D01*
X147538703Y-112182259D02*
X147681560Y-112110830D01*
X149610131Y-113610830D02*
X148752988Y-113610830D01*
X149181559Y-113610830D02*
X149181559Y-112110830D01*
X149181559Y-112110830D02*
X149038702Y-112325116D01*
X149038702Y-112325116D02*
X148895845Y-112467973D01*
X148895845Y-112467973D02*
X148752988Y-112539402D01*
X150895845Y-112610830D02*
X150895845Y-113610830D01*
X150538702Y-112039402D02*
X150181559Y-113110830D01*
X150181559Y-113110830D02*
X151110130Y-113110830D01*
X151681558Y-113039402D02*
X152824416Y-113039402D01*
X154324416Y-113610830D02*
X153467273Y-113610830D01*
X153895844Y-113610830D02*
X153895844Y-112110830D01*
X153895844Y-112110830D02*
X153752987Y-112325116D01*
X153752987Y-112325116D02*
X153610130Y-112467973D01*
X153610130Y-112467973D02*
X153467273Y-112539402D01*
X154895844Y-112253687D02*
X154967272Y-112182259D01*
X154967272Y-112182259D02*
X155110130Y-112110830D01*
X155110130Y-112110830D02*
X155467272Y-112110830D01*
X155467272Y-112110830D02*
X155610130Y-112182259D01*
X155610130Y-112182259D02*
X155681558Y-112253687D01*
X155681558Y-112253687D02*
X155752987Y-112396544D01*
X155752987Y-112396544D02*
X155752987Y-112539402D01*
X155752987Y-112539402D02*
X155681558Y-112753687D01*
X155681558Y-112753687D02*
X154824415Y-113610830D01*
X154824415Y-113610830D02*
X155752987Y-113610830D01*
X156395843Y-113039402D02*
X157538701Y-113039402D01*
X159038701Y-113610830D02*
X158181558Y-113610830D01*
X158610129Y-113610830D02*
X158610129Y-112110830D01*
X158610129Y-112110830D02*
X158467272Y-112325116D01*
X158467272Y-112325116D02*
X158324415Y-112467973D01*
X158324415Y-112467973D02*
X158181558Y-112539402D01*
X159538700Y-112110830D02*
X160467272Y-112110830D01*
X160467272Y-112110830D02*
X159967272Y-112682259D01*
X159967272Y-112682259D02*
X160181557Y-112682259D01*
X160181557Y-112682259D02*
X160324415Y-112753687D01*
X160324415Y-112753687D02*
X160395843Y-112825116D01*
X160395843Y-112825116D02*
X160467272Y-112967973D01*
X160467272Y-112967973D02*
X160467272Y-113325116D01*
X160467272Y-113325116D02*
X160395843Y-113467973D01*
X160395843Y-113467973D02*
X160324415Y-113539402D01*
X160324415Y-113539402D02*
X160181557Y-113610830D01*
X160181557Y-113610830D02*
X159752986Y-113610830D01*
X159752986Y-113610830D02*
X159610129Y-113539402D01*
X159610129Y-113539402D02*
X159538700Y-113467973D01*
X139324417Y-116040830D02*
X139324417Y-114540830D01*
X139324417Y-114540830D02*
X139681560Y-114540830D01*
X139681560Y-114540830D02*
X139895846Y-114612259D01*
X139895846Y-114612259D02*
X140038703Y-114755116D01*
X140038703Y-114755116D02*
X140110132Y-114897973D01*
X140110132Y-114897973D02*
X140181560Y-115183687D01*
X140181560Y-115183687D02*
X140181560Y-115397973D01*
X140181560Y-115397973D02*
X140110132Y-115683687D01*
X140110132Y-115683687D02*
X140038703Y-115826544D01*
X140038703Y-115826544D02*
X139895846Y-115969402D01*
X139895846Y-115969402D02*
X139681560Y-116040830D01*
X139681560Y-116040830D02*
X139324417Y-116040830D01*
X141538703Y-116040830D02*
X140824417Y-116040830D01*
X140824417Y-116040830D02*
X140824417Y-114540830D01*
X142252989Y-115183687D02*
X142110132Y-115112259D01*
X142110132Y-115112259D02*
X142038703Y-115040830D01*
X142038703Y-115040830D02*
X141967275Y-114897973D01*
X141967275Y-114897973D02*
X141967275Y-114826544D01*
X141967275Y-114826544D02*
X142038703Y-114683687D01*
X142038703Y-114683687D02*
X142110132Y-114612259D01*
X142110132Y-114612259D02*
X142252989Y-114540830D01*
X142252989Y-114540830D02*
X142538703Y-114540830D01*
X142538703Y-114540830D02*
X142681561Y-114612259D01*
X142681561Y-114612259D02*
X142752989Y-114683687D01*
X142752989Y-114683687D02*
X142824418Y-114826544D01*
X142824418Y-114826544D02*
X142824418Y-114897973D01*
X142824418Y-114897973D02*
X142752989Y-115040830D01*
X142752989Y-115040830D02*
X142681561Y-115112259D01*
X142681561Y-115112259D02*
X142538703Y-115183687D01*
X142538703Y-115183687D02*
X142252989Y-115183687D01*
X142252989Y-115183687D02*
X142110132Y-115255116D01*
X142110132Y-115255116D02*
X142038703Y-115326544D01*
X142038703Y-115326544D02*
X141967275Y-115469402D01*
X141967275Y-115469402D02*
X141967275Y-115755116D01*
X141967275Y-115755116D02*
X142038703Y-115897973D01*
X142038703Y-115897973D02*
X142110132Y-115969402D01*
X142110132Y-115969402D02*
X142252989Y-116040830D01*
X142252989Y-116040830D02*
X142538703Y-116040830D01*
X142538703Y-116040830D02*
X142681561Y-115969402D01*
X142681561Y-115969402D02*
X142752989Y-115897973D01*
X142752989Y-115897973D02*
X142824418Y-115755116D01*
X142824418Y-115755116D02*
X142824418Y-115469402D01*
X142824418Y-115469402D02*
X142752989Y-115326544D01*
X142752989Y-115326544D02*
X142681561Y-115255116D01*
X142681561Y-115255116D02*
X142538703Y-115183687D01*
X143467274Y-116040830D02*
X143467274Y-114540830D01*
X143467274Y-114540830D02*
X143824417Y-114540830D01*
X143824417Y-114540830D02*
X144038703Y-114612259D01*
X144038703Y-114612259D02*
X144181560Y-114755116D01*
X144181560Y-114755116D02*
X144252989Y-114897973D01*
X144252989Y-114897973D02*
X144324417Y-115183687D01*
X144324417Y-115183687D02*
X144324417Y-115397973D01*
X144324417Y-115397973D02*
X144252989Y-115683687D01*
X144252989Y-115683687D02*
X144181560Y-115826544D01*
X144181560Y-115826544D02*
X144038703Y-115969402D01*
X144038703Y-115969402D02*
X143824417Y-116040830D01*
X143824417Y-116040830D02*
X143467274Y-116040830D01*
X144752989Y-114540830D02*
X145610132Y-114540830D01*
X145181560Y-116040830D02*
X145181560Y-114540830D01*
X146824417Y-116040830D02*
X146110131Y-116040830D01*
X146110131Y-116040830D02*
X146110131Y-114540830D01*
X148395846Y-114683687D02*
X148467274Y-114612259D01*
X148467274Y-114612259D02*
X148610132Y-114540830D01*
X148610132Y-114540830D02*
X148967274Y-114540830D01*
X148967274Y-114540830D02*
X149110132Y-114612259D01*
X149110132Y-114612259D02*
X149181560Y-114683687D01*
X149181560Y-114683687D02*
X149252989Y-114826544D01*
X149252989Y-114826544D02*
X149252989Y-114969402D01*
X149252989Y-114969402D02*
X149181560Y-115183687D01*
X149181560Y-115183687D02*
X148324417Y-116040830D01*
X148324417Y-116040830D02*
X149252989Y-116040830D01*
X150181560Y-114540830D02*
X150324417Y-114540830D01*
X150324417Y-114540830D02*
X150467274Y-114612259D01*
X150467274Y-114612259D02*
X150538703Y-114683687D01*
X150538703Y-114683687D02*
X150610131Y-114826544D01*
X150610131Y-114826544D02*
X150681560Y-115112259D01*
X150681560Y-115112259D02*
X150681560Y-115469402D01*
X150681560Y-115469402D02*
X150610131Y-115755116D01*
X150610131Y-115755116D02*
X150538703Y-115897973D01*
X150538703Y-115897973D02*
X150467274Y-115969402D01*
X150467274Y-115969402D02*
X150324417Y-116040830D01*
X150324417Y-116040830D02*
X150181560Y-116040830D01*
X150181560Y-116040830D02*
X150038703Y-115969402D01*
X150038703Y-115969402D02*
X149967274Y-115897973D01*
X149967274Y-115897973D02*
X149895845Y-115755116D01*
X149895845Y-115755116D02*
X149824417Y-115469402D01*
X149824417Y-115469402D02*
X149824417Y-115112259D01*
X149824417Y-115112259D02*
X149895845Y-114826544D01*
X149895845Y-114826544D02*
X149967274Y-114683687D01*
X149967274Y-114683687D02*
X150038703Y-114612259D01*
X150038703Y-114612259D02*
X150181560Y-114540830D01*
X151252988Y-114683687D02*
X151324416Y-114612259D01*
X151324416Y-114612259D02*
X151467274Y-114540830D01*
X151467274Y-114540830D02*
X151824416Y-114540830D01*
X151824416Y-114540830D02*
X151967274Y-114612259D01*
X151967274Y-114612259D02*
X152038702Y-114683687D01*
X152038702Y-114683687D02*
X152110131Y-114826544D01*
X152110131Y-114826544D02*
X152110131Y-114969402D01*
X152110131Y-114969402D02*
X152038702Y-115183687D01*
X152038702Y-115183687D02*
X151181559Y-116040830D01*
X151181559Y-116040830D02*
X152110131Y-116040830D01*
X153395845Y-115040830D02*
X153395845Y-116040830D01*
X153038702Y-114469402D02*
X152681559Y-115540830D01*
X152681559Y-115540830D02*
X153610130Y-115540830D01*
X154181558Y-115469402D02*
X155324416Y-115469402D01*
X156324416Y-114540830D02*
X156467273Y-114540830D01*
X156467273Y-114540830D02*
X156610130Y-114612259D01*
X156610130Y-114612259D02*
X156681559Y-114683687D01*
X156681559Y-114683687D02*
X156752987Y-114826544D01*
X156752987Y-114826544D02*
X156824416Y-115112259D01*
X156824416Y-115112259D02*
X156824416Y-115469402D01*
X156824416Y-115469402D02*
X156752987Y-115755116D01*
X156752987Y-115755116D02*
X156681559Y-115897973D01*
X156681559Y-115897973D02*
X156610130Y-115969402D01*
X156610130Y-115969402D02*
X156467273Y-116040830D01*
X156467273Y-116040830D02*
X156324416Y-116040830D01*
X156324416Y-116040830D02*
X156181559Y-115969402D01*
X156181559Y-115969402D02*
X156110130Y-115897973D01*
X156110130Y-115897973D02*
X156038701Y-115755116D01*
X156038701Y-115755116D02*
X155967273Y-115469402D01*
X155967273Y-115469402D02*
X155967273Y-115112259D01*
X155967273Y-115112259D02*
X156038701Y-114826544D01*
X156038701Y-114826544D02*
X156110130Y-114683687D01*
X156110130Y-114683687D02*
X156181559Y-114612259D01*
X156181559Y-114612259D02*
X156324416Y-114540830D01*
X158181558Y-114540830D02*
X157467272Y-114540830D01*
X157467272Y-114540830D02*
X157395844Y-115255116D01*
X157395844Y-115255116D02*
X157467272Y-115183687D01*
X157467272Y-115183687D02*
X157610130Y-115112259D01*
X157610130Y-115112259D02*
X157967272Y-115112259D01*
X157967272Y-115112259D02*
X158110130Y-115183687D01*
X158110130Y-115183687D02*
X158181558Y-115255116D01*
X158181558Y-115255116D02*
X158252987Y-115397973D01*
X158252987Y-115397973D02*
X158252987Y-115755116D01*
X158252987Y-115755116D02*
X158181558Y-115897973D01*
X158181558Y-115897973D02*
X158110130Y-115969402D01*
X158110130Y-115969402D02*
X157967272Y-116040830D01*
X157967272Y-116040830D02*
X157610130Y-116040830D01*
X157610130Y-116040830D02*
X157467272Y-115969402D01*
X157467272Y-115969402D02*
X157395844Y-115897973D01*
X158895843Y-115469402D02*
X160038701Y-115469402D01*
X161538701Y-116040830D02*
X160681558Y-116040830D01*
X161110129Y-116040830D02*
X161110129Y-114540830D01*
X161110129Y-114540830D02*
X160967272Y-114755116D01*
X160967272Y-114755116D02*
X160824415Y-114897973D01*
X160824415Y-114897973D02*
X160681558Y-114969402D01*
X162395843Y-115183687D02*
X162252986Y-115112259D01*
X162252986Y-115112259D02*
X162181557Y-115040830D01*
X162181557Y-115040830D02*
X162110129Y-114897973D01*
X162110129Y-114897973D02*
X162110129Y-114826544D01*
X162110129Y-114826544D02*
X162181557Y-114683687D01*
X162181557Y-114683687D02*
X162252986Y-114612259D01*
X162252986Y-114612259D02*
X162395843Y-114540830D01*
X162395843Y-114540830D02*
X162681557Y-114540830D01*
X162681557Y-114540830D02*
X162824415Y-114612259D01*
X162824415Y-114612259D02*
X162895843Y-114683687D01*
X162895843Y-114683687D02*
X162967272Y-114826544D01*
X162967272Y-114826544D02*
X162967272Y-114897973D01*
X162967272Y-114897973D02*
X162895843Y-115040830D01*
X162895843Y-115040830D02*
X162824415Y-115112259D01*
X162824415Y-115112259D02*
X162681557Y-115183687D01*
X162681557Y-115183687D02*
X162395843Y-115183687D01*
X162395843Y-115183687D02*
X162252986Y-115255116D01*
X162252986Y-115255116D02*
X162181557Y-115326544D01*
X162181557Y-115326544D02*
X162110129Y-115469402D01*
X162110129Y-115469402D02*
X162110129Y-115755116D01*
X162110129Y-115755116D02*
X162181557Y-115897973D01*
X162181557Y-115897973D02*
X162252986Y-115969402D01*
X162252986Y-115969402D02*
X162395843Y-116040830D01*
X162395843Y-116040830D02*
X162681557Y-116040830D01*
X162681557Y-116040830D02*
X162824415Y-115969402D01*
X162824415Y-115969402D02*
X162895843Y-115897973D01*
X162895843Y-115897973D02*
X162967272Y-115755116D01*
X162967272Y-115755116D02*
X162967272Y-115469402D01*
X162967272Y-115469402D02*
X162895843Y-115326544D01*
X162895843Y-115326544D02*
X162824415Y-115255116D01*
X162824415Y-115255116D02*
X162681557Y-115183687D01*
%TO.C,SYM101*%
D12*
X149555814Y-61968931D02*
X149639635Y-62413555D01*
X149948920Y-62541053D01*
X150258206Y-62668551D01*
X150629246Y-62416246D01*
X150733157Y-62345996D01*
X150827087Y-62283272D01*
X150906652Y-62230938D01*
X150967470Y-62191857D01*
X151005157Y-62168893D01*
X151015421Y-62163942D01*
X151033910Y-62176676D01*
X151073420Y-62211882D01*
X151129522Y-62265062D01*
X151197787Y-62331718D01*
X151273786Y-62407354D01*
X151353092Y-62487472D01*
X151431275Y-62567574D01*
X151503907Y-62643164D01*
X151566559Y-62709745D01*
X151614803Y-62762818D01*
X151644210Y-62797887D01*
X151651241Y-62809623D01*
X151641123Y-62831260D01*
X151612759Y-62878662D01*
X151569129Y-62947193D01*
X151513218Y-63032215D01*
X151448006Y-63129093D01*
X151410219Y-63184350D01*
X151341343Y-63285248D01*
X151280140Y-63376299D01*
X151229578Y-63452970D01*
X151192628Y-63510728D01*
X151172258Y-63545043D01*
X151169197Y-63552254D01*
X151176136Y-63572748D01*
X151195051Y-63620513D01*
X151223087Y-63688832D01*
X151257391Y-63770989D01*
X151295109Y-63860270D01*
X151333387Y-63949958D01*
X151369370Y-64033338D01*
X151400206Y-64103694D01*
X151423039Y-64154310D01*
X151435017Y-64178471D01*
X151435724Y-64179422D01*
X151454531Y-64184036D01*
X151504618Y-64194328D01*
X151580793Y-64209287D01*
X151677865Y-64227901D01*
X151790643Y-64249159D01*
X151856442Y-64261418D01*
X151976950Y-64284362D01*
X152085797Y-64306195D01*
X152177476Y-64325722D01*
X152246481Y-64341748D01*
X152287304Y-64353079D01*
X152295511Y-64356674D01*
X152303548Y-64381006D01*
X152310033Y-64435959D01*
X152314970Y-64515108D01*
X152318364Y-64612026D01*
X152320218Y-64720287D01*
X152320538Y-64833465D01*
X152319327Y-64945135D01*
X152316590Y-65048868D01*
X152312331Y-65138241D01*
X152306555Y-65206826D01*
X152299267Y-65248197D01*
X152294895Y-65256810D01*
X152268764Y-65267133D01*
X152213393Y-65281892D01*
X152136107Y-65299352D01*
X152044230Y-65317780D01*
X152012158Y-65323741D01*
X151857524Y-65352066D01*
X151735375Y-65374876D01*
X151641673Y-65393080D01*
X151572384Y-65407583D01*
X151523471Y-65419292D01*
X151490897Y-65429115D01*
X151470628Y-65437956D01*
X151458626Y-65446724D01*
X151456947Y-65448457D01*
X151440184Y-65476371D01*
X151414614Y-65530695D01*
X151382788Y-65604777D01*
X151347260Y-65691965D01*
X151310583Y-65785608D01*
X151275311Y-65879052D01*
X151243996Y-65965647D01*
X151219193Y-66038740D01*
X151203454Y-66091678D01*
X151199332Y-66117811D01*
X151199676Y-66118726D01*
X151213641Y-66140086D01*
X151245322Y-66187084D01*
X151291391Y-66254827D01*
X151348518Y-66338423D01*
X151413373Y-66432982D01*
X151431843Y-66459854D01*
X151497699Y-66557275D01*
X151555650Y-66646163D01*
X151602538Y-66721412D01*
X151635207Y-66777920D01*
X151650500Y-66810581D01*
X151651241Y-66814593D01*
X151638392Y-66835684D01*
X151602888Y-66877464D01*
X151549293Y-66935445D01*
X151482171Y-67005135D01*
X151406087Y-67082045D01*
X151325604Y-67161683D01*
X151245287Y-67239561D01*
X151169699Y-67311186D01*
X151103405Y-67372070D01*
X151050969Y-67417721D01*
X151016955Y-67443650D01*
X151007545Y-67447883D01*
X150985643Y-67437912D01*
X150940800Y-67411020D01*
X150880321Y-67371736D01*
X150833789Y-67340117D01*
X150749475Y-67282098D01*
X150649626Y-67213784D01*
X150549473Y-67145579D01*
X150495627Y-67109075D01*
X150313371Y-66985800D01*
X150160381Y-67068520D01*
X150090682Y-67104759D01*
X150031414Y-67132926D01*
X149991311Y-67148991D01*
X149981103Y-67151226D01*
X149968829Y-67134722D01*
X149944613Y-67088082D01*
X149910263Y-67015609D01*
X149867588Y-66921606D01*
X149818394Y-66810374D01*
X149764490Y-66686215D01*
X149707684Y-66553432D01*
X149649782Y-66416327D01*
X149592593Y-66279202D01*
X149537924Y-66146358D01*
X149487584Y-66022098D01*
X149443380Y-65910725D01*
X149407119Y-65816539D01*
X149380609Y-65743844D01*
X149365658Y-65696941D01*
X149363254Y-65680833D01*
X149382311Y-65660286D01*
X149424036Y-65626933D01*
X149479706Y-65587702D01*
X149484378Y-65584599D01*
X149628264Y-65469423D01*
X149744283Y-65335053D01*
X149831430Y-65185784D01*
X149888699Y-65025913D01*
X149915086Y-64859737D01*
X149909585Y-64691552D01*
X149871190Y-64525655D01*
X149798895Y-64366342D01*
X149777626Y-64331487D01*
X149666996Y-64190737D01*
X149536302Y-64077714D01*
X149390064Y-63993003D01*
X149232808Y-63937194D01*
X149069057Y-63910874D01*
X148903333Y-63914630D01*
X148740162Y-63949050D01*
X148584065Y-64014723D01*
X148439567Y-64112235D01*
X148394869Y-64151813D01*
X148281112Y-64275703D01*
X148198218Y-64406124D01*
X148141356Y-64552315D01*
X148109687Y-64697088D01*
X148101869Y-64859860D01*
X148127938Y-65023440D01*
X148185245Y-65182298D01*
X148271144Y-65330906D01*
X148382986Y-65463735D01*
X148518123Y-65575256D01*
X148535883Y-65587011D01*
X148592150Y-65625508D01*
X148634923Y-65658863D01*
X148655372Y-65680160D01*
X148655669Y-65680833D01*
X148651279Y-65703871D01*
X148633876Y-65756157D01*
X148605268Y-65833390D01*
X148567265Y-65931268D01*
X148521674Y-66045491D01*
X148470303Y-66171758D01*
X148414962Y-66305767D01*
X148357458Y-66443218D01*
X148299601Y-66579808D01*
X148243198Y-66711237D01*
X148190058Y-66833205D01*
X148141990Y-66941409D01*
X148100801Y-67031549D01*
X148068301Y-67099323D01*
X148046297Y-67140430D01*
X148037436Y-67151226D01*
X148010360Y-67142819D01*
X147959697Y-67120272D01*
X147894183Y-67087613D01*
X147858159Y-67068520D01*
X147705168Y-66985800D01*
X147522912Y-67109075D01*
X147429875Y-67172228D01*
X147328015Y-67241727D01*
X147232562Y-67307165D01*
X147184750Y-67340117D01*
X147117505Y-67385273D01*
X147060564Y-67421057D01*
X147021354Y-67442938D01*
X147008619Y-67447563D01*
X146990083Y-67435085D01*
X146949059Y-67400252D01*
X146889525Y-67346678D01*
X146815458Y-67277983D01*
X146730835Y-67197781D01*
X146677315Y-67146286D01*
X146583681Y-67054286D01*
X146502759Y-66971999D01*
X146437823Y-66902945D01*
X146392142Y-66850644D01*
X146368989Y-66818616D01*
X146366768Y-66812116D01*
X146377076Y-66787394D01*
X146405561Y-66737405D01*
X146449063Y-66667212D01*
X146504423Y-66581875D01*
X146568480Y-66486456D01*
X146586697Y-66459854D01*
X146653073Y-66363167D01*
X146712622Y-66276117D01*
X146762016Y-66203595D01*
X146797925Y-66150493D01*
X146817019Y-66121703D01*
X146818864Y-66118726D01*
X146816105Y-66095782D01*
X146801462Y-66045336D01*
X146777487Y-65974041D01*
X146746734Y-65888547D01*
X146711756Y-65795507D01*
X146675107Y-65701574D01*
X146639339Y-65613399D01*
X146607006Y-65537634D01*
X146580662Y-65480931D01*
X146562858Y-65449943D01*
X146561593Y-65448457D01*
X146550706Y-65439601D01*
X146532318Y-65430843D01*
X146502394Y-65421277D01*
X146456897Y-65409996D01*
X146391791Y-65396093D01*
X146303039Y-65378663D01*
X146186607Y-65356798D01*
X146038458Y-65329591D01*
X146006382Y-65323741D01*
X145911314Y-65305374D01*
X145828435Y-65287405D01*
X145765070Y-65271569D01*
X145728542Y-65259600D01*
X145723644Y-65256810D01*
X145715573Y-65232072D01*
X145709013Y-65176790D01*
X145703967Y-65097389D01*
X145700441Y-65000296D01*
X145698439Y-64891938D01*
X145697964Y-64778740D01*
X145699023Y-64667128D01*
X145701618Y-64563529D01*
X145705754Y-64474368D01*
X145711437Y-64406072D01*
X145718669Y-64365066D01*
X145723029Y-64356674D01*
X145747302Y-64348208D01*
X145802574Y-64334435D01*
X145883338Y-64316550D01*
X145984088Y-64295748D01*
X146099317Y-64273223D01*
X146162098Y-64261418D01*
X146281213Y-64239151D01*
X146387435Y-64218979D01*
X146475573Y-64201915D01*
X146540434Y-64188969D01*
X146576826Y-64181155D01*
X146582816Y-64179422D01*
X146592939Y-64159890D01*
X146614338Y-64112843D01*
X146644161Y-64045003D01*
X146679555Y-63963091D01*
X146717668Y-63873828D01*
X146755647Y-63783935D01*
X146790640Y-63700135D01*
X146819794Y-63629147D01*
X146840257Y-63577694D01*
X146849177Y-63552497D01*
X146849343Y-63551396D01*
X146839231Y-63531519D01*
X146810883Y-63485777D01*
X146767277Y-63418717D01*
X146711394Y-63334884D01*
X146646213Y-63238826D01*
X146608321Y-63183650D01*
X146539275Y-63082481D01*
X146477950Y-62990630D01*
X146427337Y-62912744D01*
X146390429Y-62853469D01*
X146370218Y-62817451D01*
X146367299Y-62809377D01*
X146379847Y-62790584D01*
X146414537Y-62750457D01*
X146466937Y-62693493D01*
X146532616Y-62624185D01*
X146607144Y-62547031D01*
X146686087Y-62466525D01*
X146765017Y-62387163D01*
X146839500Y-62313440D01*
X146905106Y-62249852D01*
X146957404Y-62200894D01*
X146991961Y-62171061D01*
X147003522Y-62163942D01*
X147022346Y-62173953D01*
X147067369Y-62202078D01*
X147134213Y-62245454D01*
X147218501Y-62301218D01*
X147315856Y-62366506D01*
X147389293Y-62416246D01*
X147760333Y-62668551D01*
X148378905Y-62413555D01*
X148462725Y-61968931D01*
X148546546Y-61524307D01*
X149471994Y-61524307D01*
X149555814Y-61968931D01*
%TA.AperFunction,EtchedComponent*%
G36*
X149555814Y-61968931D02*
G01*
X149639635Y-62413555D01*
X149948920Y-62541053D01*
X150258206Y-62668551D01*
X150629246Y-62416246D01*
X150733157Y-62345996D01*
X150827087Y-62283272D01*
X150906652Y-62230938D01*
X150967470Y-62191857D01*
X151005157Y-62168893D01*
X151015421Y-62163942D01*
X151033910Y-62176676D01*
X151073420Y-62211882D01*
X151129522Y-62265062D01*
X151197787Y-62331718D01*
X151273786Y-62407354D01*
X151353092Y-62487472D01*
X151431275Y-62567574D01*
X151503907Y-62643164D01*
X151566559Y-62709745D01*
X151614803Y-62762818D01*
X151644210Y-62797887D01*
X151651241Y-62809623D01*
X151641123Y-62831260D01*
X151612759Y-62878662D01*
X151569129Y-62947193D01*
X151513218Y-63032215D01*
X151448006Y-63129093D01*
X151410219Y-63184350D01*
X151341343Y-63285248D01*
X151280140Y-63376299D01*
X151229578Y-63452970D01*
X151192628Y-63510728D01*
X151172258Y-63545043D01*
X151169197Y-63552254D01*
X151176136Y-63572748D01*
X151195051Y-63620513D01*
X151223087Y-63688832D01*
X151257391Y-63770989D01*
X151295109Y-63860270D01*
X151333387Y-63949958D01*
X151369370Y-64033338D01*
X151400206Y-64103694D01*
X151423039Y-64154310D01*
X151435017Y-64178471D01*
X151435724Y-64179422D01*
X151454531Y-64184036D01*
X151504618Y-64194328D01*
X151580793Y-64209287D01*
X151677865Y-64227901D01*
X151790643Y-64249159D01*
X151856442Y-64261418D01*
X151976950Y-64284362D01*
X152085797Y-64306195D01*
X152177476Y-64325722D01*
X152246481Y-64341748D01*
X152287304Y-64353079D01*
X152295511Y-64356674D01*
X152303548Y-64381006D01*
X152310033Y-64435959D01*
X152314970Y-64515108D01*
X152318364Y-64612026D01*
X152320218Y-64720287D01*
X152320538Y-64833465D01*
X152319327Y-64945135D01*
X152316590Y-65048868D01*
X152312331Y-65138241D01*
X152306555Y-65206826D01*
X152299267Y-65248197D01*
X152294895Y-65256810D01*
X152268764Y-65267133D01*
X152213393Y-65281892D01*
X152136107Y-65299352D01*
X152044230Y-65317780D01*
X152012158Y-65323741D01*
X151857524Y-65352066D01*
X151735375Y-65374876D01*
X151641673Y-65393080D01*
X151572384Y-65407583D01*
X151523471Y-65419292D01*
X151490897Y-65429115D01*
X151470628Y-65437956D01*
X151458626Y-65446724D01*
X151456947Y-65448457D01*
X151440184Y-65476371D01*
X151414614Y-65530695D01*
X151382788Y-65604777D01*
X151347260Y-65691965D01*
X151310583Y-65785608D01*
X151275311Y-65879052D01*
X151243996Y-65965647D01*
X151219193Y-66038740D01*
X151203454Y-66091678D01*
X151199332Y-66117811D01*
X151199676Y-66118726D01*
X151213641Y-66140086D01*
X151245322Y-66187084D01*
X151291391Y-66254827D01*
X151348518Y-66338423D01*
X151413373Y-66432982D01*
X151431843Y-66459854D01*
X151497699Y-66557275D01*
X151555650Y-66646163D01*
X151602538Y-66721412D01*
X151635207Y-66777920D01*
X151650500Y-66810581D01*
X151651241Y-66814593D01*
X151638392Y-66835684D01*
X151602888Y-66877464D01*
X151549293Y-66935445D01*
X151482171Y-67005135D01*
X151406087Y-67082045D01*
X151325604Y-67161683D01*
X151245287Y-67239561D01*
X151169699Y-67311186D01*
X151103405Y-67372070D01*
X151050969Y-67417721D01*
X151016955Y-67443650D01*
X151007545Y-67447883D01*
X150985643Y-67437912D01*
X150940800Y-67411020D01*
X150880321Y-67371736D01*
X150833789Y-67340117D01*
X150749475Y-67282098D01*
X150649626Y-67213784D01*
X150549473Y-67145579D01*
X150495627Y-67109075D01*
X150313371Y-66985800D01*
X150160381Y-67068520D01*
X150090682Y-67104759D01*
X150031414Y-67132926D01*
X149991311Y-67148991D01*
X149981103Y-67151226D01*
X149968829Y-67134722D01*
X149944613Y-67088082D01*
X149910263Y-67015609D01*
X149867588Y-66921606D01*
X149818394Y-66810374D01*
X149764490Y-66686215D01*
X149707684Y-66553432D01*
X149649782Y-66416327D01*
X149592593Y-66279202D01*
X149537924Y-66146358D01*
X149487584Y-66022098D01*
X149443380Y-65910725D01*
X149407119Y-65816539D01*
X149380609Y-65743844D01*
X149365658Y-65696941D01*
X149363254Y-65680833D01*
X149382311Y-65660286D01*
X149424036Y-65626933D01*
X149479706Y-65587702D01*
X149484378Y-65584599D01*
X149628264Y-65469423D01*
X149744283Y-65335053D01*
X149831430Y-65185784D01*
X149888699Y-65025913D01*
X149915086Y-64859737D01*
X149909585Y-64691552D01*
X149871190Y-64525655D01*
X149798895Y-64366342D01*
X149777626Y-64331487D01*
X149666996Y-64190737D01*
X149536302Y-64077714D01*
X149390064Y-63993003D01*
X149232808Y-63937194D01*
X149069057Y-63910874D01*
X148903333Y-63914630D01*
X148740162Y-63949050D01*
X148584065Y-64014723D01*
X148439567Y-64112235D01*
X148394869Y-64151813D01*
X148281112Y-64275703D01*
X148198218Y-64406124D01*
X148141356Y-64552315D01*
X148109687Y-64697088D01*
X148101869Y-64859860D01*
X148127938Y-65023440D01*
X148185245Y-65182298D01*
X148271144Y-65330906D01*
X148382986Y-65463735D01*
X148518123Y-65575256D01*
X148535883Y-65587011D01*
X148592150Y-65625508D01*
X148634923Y-65658863D01*
X148655372Y-65680160D01*
X148655669Y-65680833D01*
X148651279Y-65703871D01*
X148633876Y-65756157D01*
X148605268Y-65833390D01*
X148567265Y-65931268D01*
X148521674Y-66045491D01*
X148470303Y-66171758D01*
X148414962Y-66305767D01*
X148357458Y-66443218D01*
X148299601Y-66579808D01*
X148243198Y-66711237D01*
X148190058Y-66833205D01*
X148141990Y-66941409D01*
X148100801Y-67031549D01*
X148068301Y-67099323D01*
X148046297Y-67140430D01*
X148037436Y-67151226D01*
X148010360Y-67142819D01*
X147959697Y-67120272D01*
X147894183Y-67087613D01*
X147858159Y-67068520D01*
X147705168Y-66985800D01*
X147522912Y-67109075D01*
X147429875Y-67172228D01*
X147328015Y-67241727D01*
X147232562Y-67307165D01*
X147184750Y-67340117D01*
X147117505Y-67385273D01*
X147060564Y-67421057D01*
X147021354Y-67442938D01*
X147008619Y-67447563D01*
X146990083Y-67435085D01*
X146949059Y-67400252D01*
X146889525Y-67346678D01*
X146815458Y-67277983D01*
X146730835Y-67197781D01*
X146677315Y-67146286D01*
X146583681Y-67054286D01*
X146502759Y-66971999D01*
X146437823Y-66902945D01*
X146392142Y-66850644D01*
X146368989Y-66818616D01*
X146366768Y-66812116D01*
X146377076Y-66787394D01*
X146405561Y-66737405D01*
X146449063Y-66667212D01*
X146504423Y-66581875D01*
X146568480Y-66486456D01*
X146586697Y-66459854D01*
X146653073Y-66363167D01*
X146712622Y-66276117D01*
X146762016Y-66203595D01*
X146797925Y-66150493D01*
X146817019Y-66121703D01*
X146818864Y-66118726D01*
X146816105Y-66095782D01*
X146801462Y-66045336D01*
X146777487Y-65974041D01*
X146746734Y-65888547D01*
X146711756Y-65795507D01*
X146675107Y-65701574D01*
X146639339Y-65613399D01*
X146607006Y-65537634D01*
X146580662Y-65480931D01*
X146562858Y-65449943D01*
X146561593Y-65448457D01*
X146550706Y-65439601D01*
X146532318Y-65430843D01*
X146502394Y-65421277D01*
X146456897Y-65409996D01*
X146391791Y-65396093D01*
X146303039Y-65378663D01*
X146186607Y-65356798D01*
X146038458Y-65329591D01*
X146006382Y-65323741D01*
X145911314Y-65305374D01*
X145828435Y-65287405D01*
X145765070Y-65271569D01*
X145728542Y-65259600D01*
X145723644Y-65256810D01*
X145715573Y-65232072D01*
X145709013Y-65176790D01*
X145703967Y-65097389D01*
X145700441Y-65000296D01*
X145698439Y-64891938D01*
X145697964Y-64778740D01*
X145699023Y-64667128D01*
X145701618Y-64563529D01*
X145705754Y-64474368D01*
X145711437Y-64406072D01*
X145718669Y-64365066D01*
X145723029Y-64356674D01*
X145747302Y-64348208D01*
X145802574Y-64334435D01*
X145883338Y-64316550D01*
X145984088Y-64295748D01*
X146099317Y-64273223D01*
X146162098Y-64261418D01*
X146281213Y-64239151D01*
X146387435Y-64218979D01*
X146475573Y-64201915D01*
X146540434Y-64188969D01*
X146576826Y-64181155D01*
X146582816Y-64179422D01*
X146592939Y-64159890D01*
X146614338Y-64112843D01*
X146644161Y-64045003D01*
X146679555Y-63963091D01*
X146717668Y-63873828D01*
X146755647Y-63783935D01*
X146790640Y-63700135D01*
X146819794Y-63629147D01*
X146840257Y-63577694D01*
X146849177Y-63552497D01*
X146849343Y-63551396D01*
X146839231Y-63531519D01*
X146810883Y-63485777D01*
X146767277Y-63418717D01*
X146711394Y-63334884D01*
X146646213Y-63238826D01*
X146608321Y-63183650D01*
X146539275Y-63082481D01*
X146477950Y-62990630D01*
X146427337Y-62912744D01*
X146390429Y-62853469D01*
X146370218Y-62817451D01*
X146367299Y-62809377D01*
X146379847Y-62790584D01*
X146414537Y-62750457D01*
X146466937Y-62693493D01*
X146532616Y-62624185D01*
X146607144Y-62547031D01*
X146686087Y-62466525D01*
X146765017Y-62387163D01*
X146839500Y-62313440D01*
X146905106Y-62249852D01*
X146957404Y-62200894D01*
X146991961Y-62171061D01*
X147003522Y-62163942D01*
X147022346Y-62173953D01*
X147067369Y-62202078D01*
X147134213Y-62245454D01*
X147218501Y-62301218D01*
X147315856Y-62366506D01*
X147389293Y-62416246D01*
X147760333Y-62668551D01*
X148378905Y-62413555D01*
X148462725Y-61968931D01*
X148546546Y-61524307D01*
X149471994Y-61524307D01*
X149555814Y-61968931D01*
G37*
%TD.AperFunction*%
%TD*%
D13*
%TO.P,P1,1,TD+*%
%TO.N,TX+*%
X127400001Y-83900000D03*
%TO.P,P1,2,CTD*%
%TO.N,Net-(P1-CRD)*%
X129940001Y-85170000D03*
%TO.P,P1,3,TD-*%
%TO.N,TX-*%
X127400001Y-86440000D03*
%TO.P,P1,4,RD+*%
%TO.N,RX+*%
X129940001Y-87710000D03*
%TO.P,P1,5,CRD*%
%TO.N,Net-(P1-CRD)*%
X127400001Y-88980000D03*
%TO.P,P1,6,RD-*%
%TO.N,RX-*%
X129940001Y-90250000D03*
%TO.P,P1,7,NC*%
%TO.N,unconnected-(P1-NC-Pad7)*%
X127400001Y-91520000D03*
%TO.P,P1,8,GND*%
%TO.N,GND*%
X129940001Y-92790000D03*
D14*
%TO.P,P1,9,AY*%
%TO.N,Net-(P1-AY)*%
X116970001Y-81715000D03*
%TO.P,P1,10,KY*%
%TO.N,LED2*%
X116970001Y-84255000D03*
%TO.P,P1,11,AG*%
%TO.N,Net-(P1-AG)*%
X116970001Y-92435000D03*
%TO.P,P1,12,KG*%
%TO.N,LED1*%
X116970001Y-94975000D03*
D15*
%TO.P,P1,13,Shield*%
%TO.N,GND*%
X124100001Y-96090000D03*
%TO.P,P1,14,Shield*%
X124100001Y-80600000D03*
%TD*%
D16*
%TO.P,C2,1*%
%TO.N,GND*%
X140775000Y-86400000D03*
%TO.P,C2,2*%
%TO.N,Net-(P1-CRD)*%
X138700000Y-86400000D03*
%TD*%
D17*
%TO.P,P2,1,Pin_1*%
%TO.N,unconnected-(P2-Pin_1-Pad1)*%
X190754000Y-104750000D03*
%TO.P,P2,3,Pin_3*%
%TO.N,unconnected-(P2-Pin_3-Pad3)*%
X190754000Y-103950000D03*
%TO.P,P2,5,Pin_5*%
%TO.N,unconnected-(P2-Pin_5-Pad5)*%
X190754000Y-103150000D03*
%TO.P,P2,7,Pin_7*%
%TO.N,unconnected-(P2-Pin_7-Pad7)*%
X190754000Y-102350000D03*
%TO.P,P2,9,Pin_9*%
%TO.N,unconnected-(P2-Pin_9-Pad9)*%
X190754000Y-101550000D03*
%TO.P,P2,11,Pin_11*%
%TO.N,unconnected-(P2-Pin_11-Pad11)*%
X190754000Y-100750000D03*
%TO.P,P2,13,Pin_13*%
%TO.N,unconnected-(P2-Pin_13-Pad13)*%
X190754000Y-99950000D03*
%TO.P,P2,15,Pin_15*%
%TO.N,unconnected-(P2-Pin_15-Pad15)*%
X190754000Y-99150000D03*
%TO.P,P2,17,Pin_17*%
%TO.N,unconnected-(P2-Pin_17-Pad17)*%
X190754000Y-98350000D03*
%TO.P,P2,19,Pin_19*%
%TO.N,unconnected-(P2-Pin_19-Pad19)*%
X190754000Y-97550000D03*
%TO.P,P2,21,Pin_21*%
%TO.N,unconnected-(P2-Pin_21-Pad21)*%
X190754000Y-96750000D03*
%TO.P,P2,23,Pin_23*%
%TO.N,unconnected-(P2-Pin_23-Pad23)*%
X190754000Y-95950000D03*
%TO.P,P2,25,Pin_25*%
%TO.N,unconnected-(P2-Pin_25-Pad25)*%
X190754000Y-95150000D03*
%TO.P,P2,27,Pin_27*%
%TO.N,unconnected-(P2-Pin_27-Pad27)*%
X190754000Y-94350000D03*
%TO.P,P2,29,Pin_29*%
%TO.N,unconnected-(P2-Pin_29-Pad29)*%
X190754000Y-93550000D03*
%TO.P,P2,31,Pin_31*%
%TO.N,unconnected-(P2-Pin_31-Pad31)*%
X190754000Y-92750000D03*
%TO.P,P2,33,Pin_33*%
%TO.N,unconnected-(P2-Pin_33-Pad33)*%
X190754000Y-91950000D03*
%TO.P,P2,35,Pin_35*%
%TO.N,unconnected-(P2-Pin_35-Pad35)*%
X190754000Y-91150000D03*
%TO.P,P2,37,Pin_37*%
%TO.N,unconnected-(P2-Pin_37-Pad37)*%
X190754000Y-90350000D03*
%TO.P,P2,39,Pin_39*%
%TO.N,unconnected-(P2-Pin_39-Pad39)*%
X190754000Y-89550000D03*
%TO.P,P2,41,Pin_41*%
%TO.N,unconnected-(P2-Pin_41-Pad41)*%
X190754000Y-88750000D03*
%TO.P,P2,43,Pin_43*%
%TO.N,LED2*%
X190754000Y-87950000D03*
%TO.P,P2,45,Pin_45*%
%TO.N,unconnected-(P2-Pin_45-Pad45)*%
X190754000Y-83950000D03*
%TO.P,P2,47,Pin_47*%
%TO.N,TX+*%
X190754000Y-83150000D03*
%TO.P,P2,49,Pin_49*%
%TO.N,TX-*%
X190754000Y-82350000D03*
%TO.P,P2,51,Pin_51*%
%TO.N,GND*%
X190754000Y-81550000D03*
%TO.P,P2,53,Pin_53*%
X190754000Y-80750000D03*
%TO.P,P2,55,Pin_55*%
%TO.N,RX+*%
X190754000Y-79950000D03*
%TO.P,P2,57,Pin_57*%
%TO.N,RX-*%
X190754000Y-79150000D03*
%TO.P,P2,59,Pin_59*%
%TO.N,unconnected-(P2-Pin_59-Pad59)*%
X190754000Y-78350000D03*
%TO.P,P2,61,Pin_61*%
%TO.N,unconnected-(P2-Pin_61-Pad61)*%
X190754000Y-77550000D03*
%TO.P,P2,63,Pin_63*%
%TO.N,LED1*%
X190754000Y-76750000D03*
%TO.P,P2,65,Pin_65*%
%TO.N,unconnected-(P2-Pin_65-Pad65)*%
X190754000Y-75950000D03*
%TO.P,P2,67,Pin_67*%
%TO.N,unconnected-(P2-Pin_67-Pad67)*%
X190754000Y-75150000D03*
%TO.P,P2,69,Pin_69*%
%TO.N,unconnected-(P2-Pin_69-Pad69)*%
X190754000Y-74350000D03*
%TO.P,P2,71,Pin_71*%
%TO.N,unconnected-(P2-Pin_71-Pad71)*%
X190754000Y-73550000D03*
%TO.P,P2,73,Pin_73*%
%TO.N,unconnected-(P2-Pin_73-Pad73)*%
X190754000Y-72750000D03*
%TO.P,P2,75,Pin_75*%
%TO.N,unconnected-(P2-Pin_75-Pad75)*%
X190754000Y-71950000D03*
%TO.P,P2,77,Pin_77*%
%TO.N,unconnected-(P2-Pin_77-Pad77)*%
X190754000Y-71150000D03*
%TO.P,P2,79,Pin_79*%
%TO.N,unconnected-(P2-Pin_79-Pad79)*%
X190754000Y-70350000D03*
%TD*%
D18*
%TO.P,R1,1*%
%TO.N,+3.3V*%
X140700000Y-91200000D03*
%TO.P,R1,2*%
%TO.N,Net-(P1-AY)*%
X138700000Y-91200000D03*
%TD*%
%TO.P,R2,1*%
%TO.N,+3.3V*%
X140600000Y-82800000D03*
%TO.P,R2,2*%
%TO.N,Net-(P1-AG)*%
X138600000Y-82800000D03*
%TD*%
%TO.P,R3,1*%
%TO.N,+3.3V*%
X140737500Y-88590000D03*
%TO.P,R3,2*%
%TO.N,Net-(P1-CRD)*%
X138737500Y-88590000D03*
%TD*%
D19*
%TO.N,GND*%
X175600000Y-86100000D03*
X133100000Y-86000000D03*
%TO.N,TX-*%
X131400000Y-85900000D03*
%TO.N,TX+*%
X182471232Y-84571232D03*
%TO.N,TX-*%
X181728768Y-83828768D03*
%TO.N,RX-*%
X131400000Y-89000000D03*
%TO.N,RX+*%
X178294074Y-86492667D03*
%TO.N,RX-*%
X177528768Y-85774500D03*
%TO.N,GND*%
X132500000Y-94500000D03*
X163500000Y-85500000D03*
X183680000Y-81280000D03*
X142500000Y-85680500D03*
X146500000Y-96000000D03*
X178100000Y-89800000D03*
X186000000Y-85000000D03*
X159500000Y-85500000D03*
X145500000Y-89000000D03*
X132500000Y-82500000D03*
X142500000Y-92500000D03*
X145500000Y-85500000D03*
X136800000Y-85700000D03*
X186000000Y-89500000D03*
X161500000Y-82500000D03*
X170500000Y-89000000D03*
X186000000Y-75000000D03*
X133200000Y-88967152D03*
X167199272Y-81245799D03*
X164000000Y-92500000D03*
X181000000Y-86500000D03*
X143000000Y-82500000D03*
X176000000Y-83725500D03*
X177500000Y-81400500D03*
X137000000Y-96000000D03*
X162000000Y-96000000D03*
X142000000Y-96000000D03*
X159500000Y-89000000D03*
X167500000Y-92500000D03*
X158500000Y-92500000D03*
%TO.N,LED2*%
X169000000Y-85000000D03*
%TO.N,LED1*%
X161600000Y-93000000D03*
%TO.N,+3.3V*%
X176500000Y-82500000D03*
%TD*%
D20*
%TO.N,LED2*%
X190754000Y-87950000D02*
X179650000Y-87950000D01*
X179100000Y-88500000D02*
X172500000Y-88500000D01*
X179650000Y-87950000D02*
X179100000Y-88500000D01*
X172500000Y-88500000D02*
X169000000Y-85000000D01*
D21*
%TO.N,Net-(P1-AG)*%
X138600000Y-82800000D02*
X138100000Y-83300000D01*
X124000000Y-83400000D02*
X116970001Y-90429999D01*
X138100000Y-83300000D02*
X128426347Y-83300000D01*
X128426347Y-83300000D02*
X127876347Y-82750000D01*
X127876347Y-82750000D02*
X125500000Y-82750000D01*
X125500000Y-82750000D02*
X124850000Y-83400000D01*
X124850000Y-83400000D02*
X124000000Y-83400000D01*
X116970001Y-90429999D02*
X116970001Y-92435000D01*
%TO.N,Net-(P1-AY)*%
X128000000Y-92900000D02*
X124000000Y-92900000D01*
X124000000Y-92900000D02*
X122400000Y-91300000D01*
X115800000Y-87900000D02*
X119000000Y-84700000D01*
X122400000Y-91300000D02*
X120500000Y-91300000D01*
X120500000Y-91300000D02*
X118200000Y-93600000D01*
X134730000Y-91310000D02*
X134640000Y-91400000D01*
X134640000Y-91400000D02*
X129500000Y-91400000D01*
X115800000Y-93600000D02*
X115800000Y-87900000D01*
X129500000Y-91400000D02*
X128000000Y-92900000D01*
X118200000Y-93600000D02*
X115800000Y-93600000D01*
X119000000Y-84700000D02*
X119000000Y-83744999D01*
X119000000Y-83744999D02*
X116970001Y-81715000D01*
D20*
%TO.N,Net-(P1-CRD)*%
X138737500Y-88590000D02*
X137790000Y-88590000D01*
X137790000Y-88590000D02*
X133597057Y-84397057D01*
X130712944Y-84397057D02*
X129940001Y-85170000D01*
X133597057Y-84397057D02*
X130712944Y-84397057D01*
X129940001Y-85170000D02*
X126230000Y-85170000D01*
X126230000Y-85170000D02*
X125800000Y-85600000D01*
X125800000Y-85600000D02*
X125800000Y-87379999D01*
X125800000Y-87379999D02*
X127400001Y-88980000D01*
D22*
%TO.N,TX-*%
X130860000Y-86440000D02*
X127400001Y-86440000D01*
X131400000Y-85900000D02*
X130860000Y-86440000D01*
%TO.N,RX+*%
X187878999Y-79775000D02*
X182143200Y-79775000D01*
%TO.N,RX-*%
X177907301Y-85774500D02*
X177528768Y-85774500D01*
%TO.N,RX+*%
X190754000Y-79950000D02*
X188053999Y-79950000D01*
%TO.N,RX-*%
X182131800Y-79150000D02*
X179975000Y-81306800D01*
X190754000Y-79150000D02*
X182131800Y-79150000D01*
X179975000Y-83706801D02*
X177907301Y-85774500D01*
%TO.N,RX+*%
X178294074Y-86024125D02*
X178294074Y-86492667D01*
X182143200Y-79775000D02*
X180425000Y-81493200D01*
X180425000Y-81493200D02*
X180424999Y-83893200D01*
X188053999Y-79950000D02*
X187878999Y-79775000D01*
%TO.N,RX-*%
X179975000Y-81306800D02*
X179975000Y-83706801D01*
%TO.N,RX+*%
X180424999Y-83893200D02*
X178294074Y-86024125D01*
%TO.N,TX+*%
X190754000Y-83150000D02*
X188053999Y-83150000D01*
X187878999Y-82975000D02*
X183643199Y-82975000D01*
X183643199Y-82975000D02*
X182471232Y-84146967D01*
X182471232Y-84146967D02*
X182471232Y-84571232D01*
%TO.N,TX-*%
X190754000Y-82350000D02*
X188053999Y-82350000D01*
X187878999Y-82525000D02*
X183456801Y-82525000D01*
X183456801Y-82525000D02*
X182153033Y-83828768D01*
%TO.N,TX+*%
X188053999Y-83150000D02*
X187878999Y-82975000D01*
%TO.N,TX-*%
X188053999Y-82350000D02*
X187878999Y-82525000D01*
X182153033Y-83828768D02*
X181728768Y-83828768D01*
%TO.N,RX-*%
X131400000Y-89000000D02*
X131190001Y-89000000D01*
X131190001Y-89000000D02*
X129940001Y-90250000D01*
D20*
%TO.N,GND*%
X183950000Y-81550000D02*
X183680000Y-81280000D01*
X183680000Y-81280000D02*
X184210000Y-80750000D01*
X190754000Y-81550000D02*
X183950000Y-81550000D01*
X184210000Y-80750000D02*
X190754000Y-80750000D01*
%TO.N,LED1*%
X170050000Y-76750000D02*
X161600000Y-85200000D01*
X190754000Y-76750000D02*
X170050000Y-76750000D01*
X161600000Y-85200000D02*
X161600000Y-93000000D01*
D21*
%TO.N,+3.3V*%
X140700000Y-91200000D02*
X140700000Y-88627500D01*
D23*
X164500000Y-98500000D02*
X165500000Y-97500000D01*
D21*
X140737500Y-88590000D02*
X141810000Y-88590000D01*
D23*
X144000000Y-96500000D02*
X146000000Y-98500000D01*
X165500000Y-97500000D02*
X165500000Y-85000000D01*
X142120000Y-88900000D02*
X144000000Y-90780000D01*
X165500000Y-85000000D02*
X168000000Y-82500000D01*
D21*
X140700000Y-88627500D02*
X140737500Y-88590000D01*
D23*
X146000000Y-98500000D02*
X164500000Y-98500000D01*
X168000000Y-82500000D02*
X176500000Y-82500000D01*
D21*
X143299500Y-87100500D02*
X143299500Y-85349336D01*
D23*
X144000000Y-90780000D02*
X144000000Y-96500000D01*
D21*
X142120000Y-88900000D02*
X141810000Y-88590000D01*
X141810000Y-88590000D02*
X143299500Y-87100500D01*
X143299500Y-85349336D02*
X140750164Y-82800000D01*
X140750164Y-82800000D02*
X140600000Y-82800000D01*
D20*
%TO.N,Net-(P1-CRD)*%
X138737500Y-86437500D02*
X138700000Y-86400000D01*
X138737500Y-88590000D02*
X138737500Y-86437500D01*
D21*
%TO.N,Net-(P1-AY)*%
X134730000Y-91310000D02*
X138590000Y-91310000D01*
X138590000Y-91310000D02*
X138700000Y-91200000D01*
%TD*%
%TA.AperFunction,Conductor*%
%TO.N,GND*%
G36*
X133298807Y-85175559D02*
G01*
X133319781Y-85192462D01*
X137208092Y-89080773D01*
X137220060Y-89094620D01*
X137231541Y-89110042D01*
X137234531Y-89114058D01*
X137272870Y-89146228D01*
X137280974Y-89153655D01*
X137284900Y-89157581D01*
X137287780Y-89159858D01*
X137309455Y-89176997D01*
X137312296Y-89179311D01*
X137336251Y-89199411D01*
X137366309Y-89224633D01*
X137371377Y-89228885D01*
X137387890Y-89239405D01*
X137389094Y-89239966D01*
X137389095Y-89239967D01*
X137433681Y-89260758D01*
X137457786Y-89271998D01*
X137461078Y-89273591D01*
X137528812Y-89307609D01*
X137528814Y-89307609D01*
X137530008Y-89308209D01*
X137548491Y-89314633D01*
X137549790Y-89314901D01*
X137549794Y-89314903D01*
X137624093Y-89330244D01*
X137627617Y-89331025D01*
X137630215Y-89331641D01*
X137633312Y-89332376D01*
X137694978Y-89367558D01*
X137711476Y-89388828D01*
X137788469Y-89513652D01*
X137913844Y-89639027D01*
X137913846Y-89639028D01*
X137913848Y-89639030D01*
X138064762Y-89732115D01*
X138176628Y-89769183D01*
X138234998Y-89809596D01*
X138262254Y-89875152D01*
X138249741Y-89945038D01*
X138201431Y-89997064D01*
X138176628Y-90008390D01*
X138027268Y-90057883D01*
X138027262Y-90057885D01*
X137876344Y-90150972D01*
X137750972Y-90276344D01*
X137700000Y-90358983D01*
X137657885Y-90427262D01*
X137628767Y-90515133D01*
X137588355Y-90573504D01*
X137522799Y-90600760D01*
X137509164Y-90601500D01*
X134755206Y-90601500D01*
X134747598Y-90601270D01*
X134686907Y-90597598D01*
X134627087Y-90608559D01*
X134619570Y-90609703D01*
X134559195Y-90617035D01*
X134549655Y-90620653D01*
X134527705Y-90626772D01*
X134517675Y-90628610D01*
X134462219Y-90653568D01*
X134455191Y-90656479D01*
X134384440Y-90683312D01*
X134339759Y-90691500D01*
X131237039Y-90691500D01*
X131168918Y-90671498D01*
X131122425Y-90617842D01*
X131112321Y-90547568D01*
X131115332Y-90532889D01*
X131120090Y-90515132D01*
X131134687Y-90460655D01*
X131153117Y-90250000D01*
X131134687Y-90039345D01*
X131134686Y-90039343D01*
X131134645Y-90038869D01*
X131148634Y-89969265D01*
X131198034Y-89918272D01*
X131267160Y-89902082D01*
X131286359Y-89904641D01*
X131304513Y-89908500D01*
X131304514Y-89908500D01*
X131495485Y-89908500D01*
X131495487Y-89908500D01*
X131682288Y-89868794D01*
X131856752Y-89791118D01*
X132011253Y-89678866D01*
X132139040Y-89536944D01*
X132234527Y-89371556D01*
X132293542Y-89189928D01*
X132313504Y-89000000D01*
X132293542Y-88810072D01*
X132234527Y-88628444D01*
X132234527Y-88628443D01*
X132139041Y-88463057D01*
X132011252Y-88321133D01*
X131856753Y-88208883D01*
X131856752Y-88208882D01*
X131682288Y-88131206D01*
X131495487Y-88091500D01*
X131304513Y-88091500D01*
X131304511Y-88091500D01*
X131277005Y-88097346D01*
X131206215Y-88091943D01*
X131149583Y-88049125D01*
X131125091Y-87982487D01*
X131129104Y-87941488D01*
X131134687Y-87920655D01*
X131153117Y-87710000D01*
X131134687Y-87499345D01*
X131079957Y-87295090D01*
X131023196Y-87173367D01*
X131012536Y-87103176D01*
X131041516Y-87038364D01*
X131089173Y-87003709D01*
X131166876Y-86971524D01*
X131262072Y-86898477D01*
X131262072Y-86898476D01*
X131278629Y-86885772D01*
X131278632Y-86885769D01*
X131279135Y-86885382D01*
X131293987Y-86873987D01*
X131306409Y-86857797D01*
X131363747Y-86815929D01*
X131406373Y-86808500D01*
X131495485Y-86808500D01*
X131495487Y-86808500D01*
X131682288Y-86768794D01*
X131856752Y-86691118D01*
X132011253Y-86578866D01*
X132139040Y-86436944D01*
X132234527Y-86271556D01*
X132293542Y-86089928D01*
X132313504Y-85900000D01*
X132293542Y-85710072D01*
X132252764Y-85584570D01*
X132234527Y-85528443D01*
X132132419Y-85351587D01*
X132134219Y-85350547D01*
X132110855Y-85301861D01*
X132119618Y-85231408D01*
X132165080Y-85176876D01*
X132232808Y-85155580D01*
X132235208Y-85155557D01*
X133230686Y-85155557D01*
X133298807Y-85175559D01*
G37*
%TD.AperFunction*%
%TA.AperFunction,Conductor*%
G36*
X139644032Y-83732817D02*
G01*
X139689095Y-83761778D01*
X139776344Y-83849027D01*
X139776346Y-83849028D01*
X139776348Y-83849030D01*
X139927262Y-83942115D01*
X140095574Y-83997887D01*
X140171637Y-84005658D01*
X140196253Y-84008173D01*
X140196255Y-84008173D01*
X140199455Y-84008500D01*
X140904503Y-84008499D01*
X140972624Y-84028501D01*
X140993598Y-84045404D01*
X142554095Y-85605901D01*
X142588121Y-85668213D01*
X142591000Y-85694996D01*
X142591000Y-86754838D01*
X142570998Y-86822959D01*
X142554095Y-86843934D01*
X141928433Y-87469595D01*
X141866121Y-87503620D01*
X141795305Y-87498555D01*
X141738470Y-87456008D01*
X141713659Y-87389488D01*
X141728750Y-87320114D01*
X141732097Y-87314352D01*
X141804159Y-87197521D01*
X141859893Y-87029327D01*
X141870174Y-86928692D01*
X141870500Y-86922302D01*
X141870500Y-86654000D01*
X140647000Y-86654000D01*
X140578879Y-86633998D01*
X140532386Y-86580342D01*
X140521000Y-86528000D01*
X140521000Y-85167000D01*
X141029000Y-85167000D01*
X141029000Y-86146000D01*
X141870500Y-86146000D01*
X141870500Y-85877697D01*
X141870174Y-85871307D01*
X141859893Y-85770672D01*
X141804159Y-85602477D01*
X141711132Y-85451657D01*
X141585842Y-85326367D01*
X141435022Y-85233340D01*
X141266827Y-85177606D01*
X141166192Y-85167325D01*
X141159803Y-85167000D01*
X141029000Y-85167000D01*
X140521000Y-85167000D01*
X140390197Y-85167000D01*
X140383807Y-85167325D01*
X140283172Y-85177606D01*
X140114977Y-85233340D01*
X139964157Y-85326367D01*
X139828451Y-85462074D01*
X139825555Y-85459178D01*
X139792241Y-85489140D01*
X139722165Y-85500538D01*
X139657052Y-85472241D01*
X139647494Y-85461210D01*
X139646944Y-85461761D01*
X139511155Y-85325972D01*
X139472065Y-85301861D01*
X139360238Y-85232885D01*
X139191926Y-85177113D01*
X139191923Y-85177112D01*
X139191921Y-85177112D01*
X139091246Y-85166826D01*
X139091225Y-85166824D01*
X139088045Y-85166500D01*
X139084839Y-85166500D01*
X138315161Y-85166500D01*
X138315141Y-85166500D01*
X138311956Y-85166501D01*
X138308779Y-85166825D01*
X138308770Y-85166826D01*
X138208073Y-85177113D01*
X138039762Y-85232885D01*
X137888844Y-85325972D01*
X137763472Y-85451344D01*
X137724861Y-85513943D01*
X137670385Y-85602262D01*
X137639657Y-85694996D01*
X137614612Y-85770578D01*
X137604326Y-85871253D01*
X137604324Y-85871275D01*
X137604000Y-85874455D01*
X137604000Y-85877659D01*
X137604000Y-85877660D01*
X137604000Y-86922338D01*
X137604000Y-86922357D01*
X137604001Y-86925544D01*
X137614176Y-87025154D01*
X137601201Y-87094953D01*
X137552549Y-87146659D01*
X137483665Y-87163852D01*
X137416421Y-87141075D01*
X137399734Y-87127053D01*
X134496276Y-84223595D01*
X134462250Y-84161283D01*
X134467315Y-84090468D01*
X134509862Y-84033632D01*
X134576382Y-84008821D01*
X134585371Y-84008500D01*
X138074782Y-84008500D01*
X138082390Y-84008730D01*
X138143093Y-84012402D01*
X138159277Y-84009436D01*
X138193788Y-84008065D01*
X138193061Y-84008010D01*
X138193994Y-84008057D01*
X138194809Y-84008025D01*
X138199455Y-84008500D01*
X139000544Y-84008499D01*
X139104426Y-83997887D01*
X139272738Y-83942115D01*
X139423652Y-83849030D01*
X139454909Y-83817773D01*
X139510905Y-83761778D01*
X139573217Y-83727752D01*
X139644032Y-83732817D01*
G37*
%TD.AperFunction*%
%TA.AperFunction,Conductor*%
G36*
X187020621Y-59702502D02*
G01*
X187067114Y-59756158D01*
X187078500Y-59808499D01*
X187078500Y-69397038D01*
X187078500Y-69397039D01*
X187078500Y-69540961D01*
X187086149Y-69567012D01*
X187089969Y-69584574D01*
X187093834Y-69611454D01*
X187105115Y-69636156D01*
X187111397Y-69652999D01*
X187119047Y-69679053D01*
X187133727Y-69701896D01*
X187142340Y-69717669D01*
X187153622Y-69742372D01*
X187171403Y-69762892D01*
X187182176Y-69777283D01*
X187196857Y-69800128D01*
X187217378Y-69817910D01*
X187230088Y-69830620D01*
X187247871Y-69851143D01*
X187270715Y-69865823D01*
X187285108Y-69876597D01*
X187305627Y-69894377D01*
X187330333Y-69905660D01*
X187346091Y-69914264D01*
X187368947Y-69928953D01*
X187395005Y-69936604D01*
X187411842Y-69942884D01*
X187436543Y-69954165D01*
X187463435Y-69958031D01*
X187480969Y-69961845D01*
X187488495Y-69964055D01*
X187548220Y-70002434D01*
X187577717Y-70067013D01*
X187579000Y-70084951D01*
X187579000Y-75865500D01*
X187558998Y-75933621D01*
X187505342Y-75980114D01*
X187453000Y-75991500D01*
X170114442Y-75991500D01*
X170096182Y-75990170D01*
X170072212Y-75986659D01*
X170072211Y-75986659D01*
X170046075Y-75988945D01*
X170022353Y-75991021D01*
X170011372Y-75991500D01*
X170005820Y-75991500D01*
X170002182Y-75991925D01*
X170002167Y-75991926D01*
X169974711Y-75995135D01*
X169971070Y-75995507D01*
X169894260Y-76002227D01*
X169875123Y-76006470D01*
X169802634Y-76032853D01*
X169799176Y-76034055D01*
X169726000Y-76058303D01*
X169708372Y-76066838D01*
X169643918Y-76109229D01*
X169640831Y-76111196D01*
X169575218Y-76151667D01*
X169560032Y-76164038D01*
X169507087Y-76220156D01*
X169504534Y-76222783D01*
X161109225Y-84618092D01*
X161095377Y-84630061D01*
X161075944Y-84644529D01*
X161075942Y-84644530D01*
X161075942Y-84644531D01*
X161043773Y-84682868D01*
X161036360Y-84690958D01*
X161035017Y-84692301D01*
X161035011Y-84692307D01*
X161032420Y-84694899D01*
X161030149Y-84697770D01*
X161030140Y-84697781D01*
X161012997Y-84719460D01*
X161010688Y-84722294D01*
X160961119Y-84781369D01*
X160950589Y-84797899D01*
X160917995Y-84867794D01*
X160916401Y-84871087D01*
X160881795Y-84939997D01*
X160875363Y-84958500D01*
X160859759Y-85034064D01*
X160858967Y-85037637D01*
X160841192Y-85112640D01*
X160839202Y-85132114D01*
X160839884Y-85155557D01*
X160840896Y-85190336D01*
X160841447Y-85209247D01*
X160841500Y-85212912D01*
X160841500Y-92462999D01*
X160824619Y-92525999D01*
X160765472Y-92628443D01*
X160706458Y-92810070D01*
X160686496Y-93000000D01*
X160706458Y-93189929D01*
X160765472Y-93371556D01*
X160860958Y-93536942D01*
X160925389Y-93608500D01*
X160988747Y-93678866D01*
X161143248Y-93791118D01*
X161317712Y-93868794D01*
X161504513Y-93908500D01*
X161504515Y-93908500D01*
X161695485Y-93908500D01*
X161695487Y-93908500D01*
X161882288Y-93868794D01*
X162056752Y-93791118D01*
X162211253Y-93678866D01*
X162339040Y-93536944D01*
X162434527Y-93371556D01*
X162493542Y-93189928D01*
X162513504Y-93000000D01*
X162493542Y-92810072D01*
X162434527Y-92628444D01*
X162434527Y-92628443D01*
X162375381Y-92525999D01*
X162358500Y-92462999D01*
X162358500Y-85566371D01*
X162378502Y-85498250D01*
X162395405Y-85477276D01*
X170327276Y-77545405D01*
X170389588Y-77511379D01*
X170416371Y-77508500D01*
X187453000Y-77508500D01*
X187521121Y-77528502D01*
X187567614Y-77582158D01*
X187579000Y-77634500D01*
X187579000Y-78415500D01*
X187558998Y-78483621D01*
X187505342Y-78530114D01*
X187453000Y-78541500D01*
X182179936Y-78541500D01*
X182163492Y-78540422D01*
X182157490Y-78539632D01*
X182131798Y-78536249D01*
X182091924Y-78541499D01*
X182091906Y-78541501D01*
X181992343Y-78554608D01*
X181972948Y-78557162D01*
X181824924Y-78618475D01*
X181761326Y-78667276D01*
X181729729Y-78691522D01*
X181729725Y-78691525D01*
X181697813Y-78716013D01*
X181697809Y-78716017D01*
X181697805Y-78716021D01*
X181678345Y-78741381D01*
X181667481Y-78753768D01*
X179578767Y-80842482D01*
X179566380Y-80853347D01*
X179541012Y-80872813D01*
X179516525Y-80904725D01*
X179517352Y-80903635D01*
X179443477Y-80999918D01*
X179384802Y-81141577D01*
X179382161Y-81147950D01*
X179366500Y-81266915D01*
X179366500Y-81266921D01*
X179361250Y-81306799D01*
X179365422Y-81338490D01*
X179366500Y-81354936D01*
X179366500Y-83402561D01*
X179346498Y-83470682D01*
X179329595Y-83491656D01*
X177944588Y-84876662D01*
X177882276Y-84910688D01*
X177824415Y-84906549D01*
X177824009Y-84908460D01*
X177811059Y-84905707D01*
X177811056Y-84905706D01*
X177624255Y-84866000D01*
X177433281Y-84866000D01*
X177308747Y-84892470D01*
X177246479Y-84905706D01*
X177072014Y-84983383D01*
X176917515Y-85095633D01*
X176789726Y-85237557D01*
X176694240Y-85402943D01*
X176635226Y-85584570D01*
X176615264Y-85774500D01*
X176635226Y-85964429D01*
X176694240Y-86146056D01*
X176789726Y-86311442D01*
X176789728Y-86311444D01*
X176917515Y-86453366D01*
X177072016Y-86565618D01*
X177246480Y-86643294D01*
X177327088Y-86660427D01*
X177389560Y-86694155D01*
X177420723Y-86744737D01*
X177459547Y-86864224D01*
X177555032Y-87029609D01*
X177657662Y-87143591D01*
X177682821Y-87171533D01*
X177837322Y-87283785D01*
X178011786Y-87361461D01*
X178198587Y-87401167D01*
X178198589Y-87401167D01*
X178389559Y-87401167D01*
X178389561Y-87401167D01*
X178576362Y-87361461D01*
X178750826Y-87283785D01*
X178905327Y-87171533D01*
X179033114Y-87029611D01*
X179128601Y-86864223D01*
X179187616Y-86682595D01*
X179207578Y-86492667D01*
X179187616Y-86302739D01*
X179135056Y-86140980D01*
X179133029Y-86070015D01*
X179165793Y-86012953D01*
X180812126Y-84366620D01*
X180874436Y-84332596D01*
X180945251Y-84337661D01*
X180994855Y-84371407D01*
X181117513Y-84507632D01*
X181117515Y-84507634D01*
X181272016Y-84619886D01*
X181446480Y-84697562D01*
X181494071Y-84707677D01*
X181556544Y-84741406D01*
X181587706Y-84791987D01*
X181636705Y-84942789D01*
X181732190Y-85108174D01*
X181792864Y-85175559D01*
X181859979Y-85250098D01*
X182014480Y-85362350D01*
X182188944Y-85440026D01*
X182375745Y-85479732D01*
X182375747Y-85479732D01*
X182566717Y-85479732D01*
X182566719Y-85479732D01*
X182753520Y-85440026D01*
X182927984Y-85362350D01*
X183082485Y-85250098D01*
X183210272Y-85108176D01*
X183305759Y-84942788D01*
X183364774Y-84761160D01*
X183384736Y-84571232D01*
X183364774Y-84381304D01*
X183323073Y-84252965D01*
X183321046Y-84181999D01*
X183353810Y-84124936D01*
X183858343Y-83620404D01*
X183920656Y-83586379D01*
X183947439Y-83583500D01*
X187453000Y-83583500D01*
X187521121Y-83603502D01*
X187567614Y-83657158D01*
X187579000Y-83709500D01*
X187579000Y-84347047D01*
X187558998Y-84415168D01*
X187505342Y-84461661D01*
X187488490Y-84467945D01*
X187480982Y-84470149D01*
X187463429Y-84473968D01*
X187436541Y-84477834D01*
X187411842Y-84489114D01*
X187395007Y-84495393D01*
X187368947Y-84503046D01*
X187346093Y-84517732D01*
X187330327Y-84526341D01*
X187305625Y-84537623D01*
X187285103Y-84555405D01*
X187270717Y-84566174D01*
X187247871Y-84580856D01*
X187230083Y-84601383D01*
X187217383Y-84614083D01*
X187196856Y-84631871D01*
X187182174Y-84654717D01*
X187171405Y-84669103D01*
X187153623Y-84689625D01*
X187142341Y-84714327D01*
X187133732Y-84730093D01*
X187119046Y-84752947D01*
X187111393Y-84779007D01*
X187105114Y-84795842D01*
X187093834Y-84820541D01*
X187089968Y-84847429D01*
X187086149Y-84864985D01*
X187078500Y-84891039D01*
X187078500Y-87065500D01*
X187058498Y-87133621D01*
X187004842Y-87180114D01*
X186952500Y-87191500D01*
X179714441Y-87191500D01*
X179696180Y-87190170D01*
X179672211Y-87186659D01*
X179622353Y-87191021D01*
X179611372Y-87191500D01*
X179605820Y-87191500D01*
X179602185Y-87191924D01*
X179602165Y-87191926D01*
X179574709Y-87195135D01*
X179571068Y-87195507D01*
X179494251Y-87202228D01*
X179475139Y-87206465D01*
X179402653Y-87232846D01*
X179399198Y-87234047D01*
X179325995Y-87258305D01*
X179308373Y-87266837D01*
X179243927Y-87309224D01*
X179240838Y-87311192D01*
X179175218Y-87351667D01*
X179160036Y-87364034D01*
X179107104Y-87420138D01*
X179104552Y-87422765D01*
X178822724Y-87704595D01*
X178760412Y-87738620D01*
X178733628Y-87741500D01*
X172866371Y-87741500D01*
X172798250Y-87721498D01*
X172777276Y-87704595D01*
X169920126Y-84847445D01*
X169889388Y-84797286D01*
X169834527Y-84628444D01*
X169739041Y-84463057D01*
X169656519Y-84371407D01*
X169611253Y-84321134D01*
X169602686Y-84314910D01*
X169479926Y-84225719D01*
X169456752Y-84208882D01*
X169282288Y-84131206D01*
X169095487Y-84091500D01*
X168904513Y-84091500D01*
X168779979Y-84117970D01*
X168717711Y-84131206D01*
X168543246Y-84208883D01*
X168388747Y-84321133D01*
X168260958Y-84463057D01*
X168165472Y-84628443D01*
X168106458Y-84810070D01*
X168086496Y-84999999D01*
X168106458Y-85189929D01*
X168165472Y-85371556D01*
X168260958Y-85536942D01*
X168319966Y-85602477D01*
X168388747Y-85678866D01*
X168543248Y-85791118D01*
X168717712Y-85868794D01*
X168780771Y-85882197D01*
X168843244Y-85915926D01*
X168843668Y-85916349D01*
X171918092Y-88990773D01*
X171930060Y-89004620D01*
X171944531Y-89024058D01*
X171982870Y-89056228D01*
X171990974Y-89063655D01*
X171994899Y-89067580D01*
X172016102Y-89084345D01*
X172019453Y-89086995D01*
X172022292Y-89089308D01*
X172081378Y-89138886D01*
X172097887Y-89149403D01*
X172099090Y-89149964D01*
X172099094Y-89149967D01*
X172167867Y-89182035D01*
X172171036Y-89183570D01*
X172235513Y-89215952D01*
X172240001Y-89218206D01*
X172258493Y-89224633D01*
X172259790Y-89224900D01*
X172259793Y-89224902D01*
X172334066Y-89240237D01*
X172337530Y-89241004D01*
X172411344Y-89258500D01*
X172411347Y-89258500D01*
X172412642Y-89258807D01*
X172432111Y-89260796D01*
X172433438Y-89260757D01*
X172433442Y-89260758D01*
X172507697Y-89258597D01*
X172509224Y-89258553D01*
X172512888Y-89258500D01*
X179035559Y-89258500D01*
X179053820Y-89259830D01*
X179077789Y-89263341D01*
X179124253Y-89259275D01*
X179127647Y-89258979D01*
X179138628Y-89258500D01*
X179140513Y-89258500D01*
X179144180Y-89258500D01*
X179175301Y-89254861D01*
X179178896Y-89254494D01*
X179254426Y-89247887D01*
X179254430Y-89247885D01*
X179255751Y-89247770D01*
X179274856Y-89243535D01*
X179276106Y-89243079D01*
X179276113Y-89243079D01*
X179347400Y-89217132D01*
X179350769Y-89215961D01*
X179422738Y-89192114D01*
X179422739Y-89192112D01*
X179424007Y-89191693D01*
X179441613Y-89183169D01*
X179442725Y-89182437D01*
X179442732Y-89182435D01*
X179506138Y-89140730D01*
X179509161Y-89138806D01*
X179510416Y-89138032D01*
X179573651Y-89099030D01*
X179573652Y-89099028D01*
X179574788Y-89098328D01*
X179589959Y-89085970D01*
X179590871Y-89085002D01*
X179590874Y-89085001D01*
X179642913Y-89029841D01*
X179645432Y-89027247D01*
X179927276Y-88745404D01*
X179989589Y-88711379D01*
X180016372Y-88708500D01*
X187453000Y-88708500D01*
X187521121Y-88728502D01*
X187567614Y-88782158D01*
X187579000Y-88834500D01*
X187579000Y-105175047D01*
X187558998Y-105243168D01*
X187505342Y-105289661D01*
X187488490Y-105295945D01*
X187480982Y-105298149D01*
X187463429Y-105301968D01*
X187436541Y-105305834D01*
X187411842Y-105317114D01*
X187395007Y-105323393D01*
X187368947Y-105331046D01*
X187346093Y-105345732D01*
X187330327Y-105354341D01*
X187305625Y-105365623D01*
X187285103Y-105383405D01*
X187270717Y-105394174D01*
X187247871Y-105408856D01*
X187230083Y-105429383D01*
X187217383Y-105442083D01*
X187196856Y-105459871D01*
X187182174Y-105482717D01*
X187171405Y-105497103D01*
X187153623Y-105517625D01*
X187142341Y-105542327D01*
X187133732Y-105558093D01*
X187119046Y-105580947D01*
X187111393Y-105607007D01*
X187105114Y-105623842D01*
X187093834Y-105648541D01*
X187089968Y-105675429D01*
X187086149Y-105692985D01*
X187078500Y-105719039D01*
X187078500Y-116975500D01*
X187058498Y-117043621D01*
X187004842Y-117090114D01*
X186952500Y-117101500D01*
X164326772Y-117101500D01*
X164258651Y-117081498D01*
X164212158Y-117027842D01*
X164200772Y-116975500D01*
X164200772Y-110209766D01*
X168145787Y-110209766D01*
X168175413Y-110479015D01*
X168175414Y-110479018D01*
X168243928Y-110741088D01*
X168349870Y-110990390D01*
X168490982Y-111221610D01*
X168664255Y-111429820D01*
X168664256Y-111429821D01*
X168664258Y-111429823D01*
X168865993Y-111610578D01*
X168865995Y-111610579D01*
X168865998Y-111610582D01*
X169091910Y-111760044D01*
X169224104Y-111822014D01*
X169337171Y-111875018D01*
X169337173Y-111875018D01*
X169337176Y-111875020D01*
X169596569Y-111953060D01*
X169596572Y-111953060D01*
X169596574Y-111953061D01*
X169864558Y-111992500D01*
X169864561Y-111992500D01*
X170065330Y-111992500D01*
X170067631Y-111992500D01*
X170270156Y-111977677D01*
X170534553Y-111918780D01*
X170787558Y-111822014D01*
X171023777Y-111689441D01*
X171238177Y-111523888D01*
X171426186Y-111328881D01*
X171583799Y-111108579D01*
X171707656Y-110867675D01*
X171795118Y-110611305D01*
X171844319Y-110344933D01*
X171854212Y-110074235D01*
X171824586Y-109804982D01*
X171756072Y-109542912D01*
X171650130Y-109293610D01*
X171509018Y-109062390D01*
X171335745Y-108854180D01*
X171230759Y-108760112D01*
X171134006Y-108673421D01*
X171134003Y-108673419D01*
X171134002Y-108673418D01*
X170908090Y-108523956D01*
X170908086Y-108523954D01*
X170662828Y-108408981D01*
X170403425Y-108330938D01*
X170135442Y-108291500D01*
X170135439Y-108291500D01*
X169932369Y-108291500D01*
X169930099Y-108291666D01*
X169930075Y-108291667D01*
X169729839Y-108306323D01*
X169465449Y-108365219D01*
X169212441Y-108461985D01*
X168976225Y-108594557D01*
X168761820Y-108760114D01*
X168573815Y-108955117D01*
X168416200Y-109175422D01*
X168292342Y-109416328D01*
X168204882Y-109672693D01*
X168155681Y-109939065D01*
X168145787Y-110209766D01*
X164200772Y-110209766D01*
X164200772Y-108639116D01*
X138019489Y-108639116D01*
X138019489Y-116975500D01*
X137999487Y-117043621D01*
X137945831Y-117090114D01*
X137893489Y-117101500D01*
X112894500Y-117101500D01*
X112826379Y-117081498D01*
X112779886Y-117027842D01*
X112768500Y-116975500D01*
X112768500Y-110209766D01*
X125645787Y-110209766D01*
X125675413Y-110479015D01*
X125675414Y-110479018D01*
X125743928Y-110741088D01*
X125849870Y-110990390D01*
X125990982Y-111221610D01*
X126164255Y-111429820D01*
X126164256Y-111429821D01*
X126164258Y-111429823D01*
X126365993Y-111610578D01*
X126365995Y-111610579D01*
X126365998Y-111610582D01*
X126591910Y-111760044D01*
X126724104Y-111822014D01*
X126837171Y-111875018D01*
X126837173Y-111875018D01*
X126837176Y-111875020D01*
X127096569Y-111953060D01*
X127096572Y-111953060D01*
X127096574Y-111953061D01*
X127364558Y-111992500D01*
X127364561Y-111992500D01*
X127565330Y-111992500D01*
X127567631Y-111992500D01*
X127770156Y-111977677D01*
X128034553Y-111918780D01*
X128287558Y-111822014D01*
X128523777Y-111689441D01*
X128738177Y-111523888D01*
X128926186Y-111328881D01*
X129083799Y-111108579D01*
X129207656Y-110867675D01*
X129295118Y-110611305D01*
X129344319Y-110344933D01*
X129354212Y-110074235D01*
X129324586Y-109804982D01*
X129256072Y-109542912D01*
X129150130Y-109293610D01*
X129009018Y-109062390D01*
X128835745Y-108854180D01*
X128730759Y-108760112D01*
X128634006Y-108673421D01*
X128634003Y-108673419D01*
X128634002Y-108673418D01*
X128408090Y-108523956D01*
X128408086Y-108523954D01*
X128162828Y-108408981D01*
X127903425Y-108330938D01*
X127635442Y-108291500D01*
X127635439Y-108291500D01*
X127432369Y-108291500D01*
X127430099Y-108291666D01*
X127430075Y-108291667D01*
X127229839Y-108306323D01*
X126965449Y-108365219D01*
X126712441Y-108461985D01*
X126476225Y-108594557D01*
X126261820Y-108760114D01*
X126073815Y-108955117D01*
X125916200Y-109175422D01*
X125792342Y-109416328D01*
X125704882Y-109672693D01*
X125655681Y-109939065D01*
X125645787Y-110209766D01*
X112768500Y-110209766D01*
X112768500Y-87856907D01*
X115087597Y-87856907D01*
X115091269Y-87917607D01*
X115091499Y-87925214D01*
X115091500Y-93513971D01*
X115091500Y-93686026D01*
X115100008Y-93720545D01*
X115102750Y-93735511D01*
X115107034Y-93770799D01*
X115119642Y-93804045D01*
X115124166Y-93818565D01*
X115132572Y-93852667D01*
X115132675Y-93853083D01*
X115149197Y-93884564D01*
X115155437Y-93898430D01*
X115168045Y-93931674D01*
X115188241Y-93960932D01*
X115196113Y-93973954D01*
X115208385Y-93997336D01*
X115212633Y-94005430D01*
X115226599Y-94021194D01*
X115236208Y-94032041D01*
X115245589Y-94044016D01*
X115265782Y-94073270D01*
X115292392Y-94096844D01*
X115303153Y-94107605D01*
X115326723Y-94134211D01*
X115326728Y-94134216D01*
X115355979Y-94154406D01*
X115367957Y-94163790D01*
X115394570Y-94187367D01*
X115426051Y-94203889D01*
X115439066Y-94211758D01*
X115468321Y-94231952D01*
X115468323Y-94231952D01*
X115468325Y-94231954D01*
X115501573Y-94244563D01*
X115515440Y-94250804D01*
X115526162Y-94256432D01*
X115546917Y-94267325D01*
X115581434Y-94275833D01*
X115595956Y-94280357D01*
X115629199Y-94292965D01*
X115664497Y-94297250D01*
X115679450Y-94299990D01*
X115710165Y-94307561D01*
X115771518Y-94343286D01*
X115803817Y-94406510D01*
X115796808Y-94477160D01*
X115794202Y-94483148D01*
X115768731Y-94537770D01*
X115711057Y-94753013D01*
X115691636Y-94974999D01*
X115711057Y-95196986D01*
X115768730Y-95412227D01*
X115862904Y-95614183D01*
X115990719Y-95796720D01*
X116148280Y-95954281D01*
X116148283Y-95954283D01*
X116148284Y-95954284D01*
X116330818Y-96082097D01*
X116410324Y-96119171D01*
X116532773Y-96176270D01*
X116590446Y-96191723D01*
X116748015Y-96233944D01*
X116970001Y-96253365D01*
X117191987Y-96233944D01*
X117407228Y-96176270D01*
X117609184Y-96082097D01*
X117791718Y-95954284D01*
X117949285Y-95796717D01*
X118077098Y-95614183D01*
X118171271Y-95412227D01*
X118228945Y-95196986D01*
X118248366Y-94975000D01*
X118228945Y-94753014D01*
X118171271Y-94537773D01*
X118149022Y-94490061D01*
X118138362Y-94419871D01*
X118167342Y-94355058D01*
X118226762Y-94316201D01*
X118240505Y-94312876D01*
X118243091Y-94312401D01*
X118243093Y-94312402D01*
X118302941Y-94301434D01*
X118310398Y-94300299D01*
X118370801Y-94292965D01*
X118380328Y-94289351D01*
X118402294Y-94283227D01*
X118412329Y-94281389D01*
X118467797Y-94256423D01*
X118474802Y-94253522D01*
X118531675Y-94231954D01*
X118540069Y-94226159D01*
X118559926Y-94214960D01*
X118569226Y-94210775D01*
X118617140Y-94173235D01*
X118623179Y-94168791D01*
X118673273Y-94134215D01*
X118713612Y-94088680D01*
X118718811Y-94083157D01*
X118962889Y-93839079D01*
X119025199Y-93805055D01*
X119096014Y-93810120D01*
X119152850Y-93852667D01*
X119177661Y-93919187D01*
X119177898Y-93932778D01*
X119170738Y-94128681D01*
X119200764Y-94401568D01*
X119220527Y-94477160D01*
X119270205Y-94667182D01*
X119377578Y-94919852D01*
X119520596Y-95154196D01*
X119696210Y-95365218D01*
X119900678Y-95548423D01*
X120129642Y-95699904D01*
X120378222Y-95816433D01*
X120641120Y-95895527D01*
X120641123Y-95895527D01*
X120641125Y-95895528D01*
X120912730Y-95935500D01*
X120912732Y-95935500D01*
X121116247Y-95935500D01*
X121118548Y-95935500D01*
X121323806Y-95920477D01*
X121591776Y-95860784D01*
X121848199Y-95762711D01*
X122087610Y-95628347D01*
X122087609Y-95628347D01*
X122087612Y-95628346D01*
X122191461Y-95548155D01*
X122253709Y-95500088D01*
X122319851Y-95474286D01*
X122389442Y-95488339D01*
X122440390Y-95537785D01*
X122456516Y-95606926D01*
X122453558Y-95627855D01*
X122406342Y-95834720D01*
X122387212Y-96090000D01*
X122406342Y-96345279D01*
X122463306Y-96594854D01*
X122556831Y-96833151D01*
X122684828Y-97054848D01*
X122725251Y-97105537D01*
X122725253Y-97105537D01*
X123381156Y-96449633D01*
X123470578Y-96591948D01*
X123598053Y-96719423D01*
X123740365Y-96808843D01*
X123084422Y-97464786D01*
X123084422Y-97464787D01*
X123243609Y-97573320D01*
X123474248Y-97684390D01*
X123718866Y-97759844D01*
X123972007Y-97798000D01*
X124227995Y-97798000D01*
X124481135Y-97759844D01*
X124725753Y-97684390D01*
X124956393Y-97573320D01*
X125115579Y-97464787D01*
X124459635Y-96808843D01*
X124601949Y-96719423D01*
X124729424Y-96591948D01*
X124818844Y-96449634D01*
X125474748Y-97105538D01*
X125474749Y-97105537D01*
X125515173Y-97054850D01*
X125643170Y-96833152D01*
X125736695Y-96594854D01*
X125793659Y-96345279D01*
X125812789Y-96089999D01*
X125793659Y-95834720D01*
X125736695Y-95585145D01*
X125643170Y-95346847D01*
X125515173Y-95125150D01*
X125474749Y-95074461D01*
X125474748Y-95074460D01*
X124818844Y-95730364D01*
X124729424Y-95588052D01*
X124601949Y-95460577D01*
X124459634Y-95371155D01*
X125115579Y-94715211D01*
X124956393Y-94606679D01*
X124725753Y-94495609D01*
X124481135Y-94420155D01*
X124227995Y-94382000D01*
X123972007Y-94382000D01*
X123718866Y-94420155D01*
X123474248Y-94495609D01*
X123243606Y-94606681D01*
X123036617Y-94747804D01*
X122969066Y-94769651D01*
X122900426Y-94751509D01*
X122852491Y-94699138D01*
X122840480Y-94629165D01*
X122846388Y-94603015D01*
X122868646Y-94537770D01*
X122869371Y-94535646D01*
X122919237Y-94265674D01*
X122929263Y-93991320D01*
X122925919Y-93960932D01*
X122904999Y-93770799D01*
X122899237Y-93718429D01*
X122829797Y-93452818D01*
X122722424Y-93200148D01*
X122579406Y-92965804D01*
X122403792Y-92754782D01*
X122199324Y-92571577D01*
X121970360Y-92420096D01*
X121721780Y-92303567D01*
X121560873Y-92255157D01*
X121501405Y-92216378D01*
X121472341Y-92151603D01*
X121482912Y-92081398D01*
X121529760Y-92028052D01*
X121597175Y-92008500D01*
X122054340Y-92008500D01*
X122122461Y-92028502D01*
X122143435Y-92045405D01*
X123481171Y-93383141D01*
X123486388Y-93388682D01*
X123526727Y-93434215D01*
X123553678Y-93452818D01*
X123576790Y-93468772D01*
X123582905Y-93473271D01*
X123630775Y-93510775D01*
X123640071Y-93514959D01*
X123659931Y-93526160D01*
X123668323Y-93531953D01*
X123668324Y-93531953D01*
X123668325Y-93531954D01*
X123725204Y-93553525D01*
X123732193Y-93556420D01*
X123787671Y-93581389D01*
X123797704Y-93583227D01*
X123819666Y-93589349D01*
X123829199Y-93592965D01*
X123889565Y-93600294D01*
X123897064Y-93601435D01*
X123956908Y-93612402D01*
X124017616Y-93608729D01*
X124025223Y-93608500D01*
X127974782Y-93608500D01*
X127982390Y-93608730D01*
X128043091Y-93612402D01*
X128043091Y-93612401D01*
X128043093Y-93612402D01*
X128102941Y-93601434D01*
X128110398Y-93600299D01*
X128170801Y-93592965D01*
X128180328Y-93589351D01*
X128202294Y-93583227D01*
X128212329Y-93581389D01*
X128267797Y-93556423D01*
X128274802Y-93553522D01*
X128331675Y-93531954D01*
X128340069Y-93526159D01*
X128359926Y-93514960D01*
X128369226Y-93510775D01*
X128417140Y-93473235D01*
X128423179Y-93468791D01*
X128473273Y-93434215D01*
X128513611Y-93388682D01*
X128518802Y-93383166D01*
X128640431Y-93261537D01*
X128702739Y-93227515D01*
X128773555Y-93232579D01*
X128830391Y-93275126D01*
X128843718Y-93297385D01*
X128889846Y-93396308D01*
X128924702Y-93446086D01*
X128924703Y-93446086D01*
X129495156Y-92875632D01*
X129496328Y-92891265D01*
X129545888Y-93017541D01*
X129630466Y-93123599D01*
X129742548Y-93200016D01*
X129854624Y-93234586D01*
X129283913Y-93805296D01*
X129283913Y-93805297D01*
X129333692Y-93840153D01*
X129525262Y-93929484D01*
X129729432Y-93984191D01*
X129940001Y-94002613D01*
X130150569Y-93984191D01*
X130354741Y-93929483D01*
X130546305Y-93840156D01*
X130596088Y-93805297D01*
X130596088Y-93805296D01*
X130023317Y-93232525D01*
X130074139Y-93224865D01*
X130196358Y-93166007D01*
X130295799Y-93073740D01*
X130363626Y-92956260D01*
X130382551Y-92873341D01*
X130955297Y-93446087D01*
X130955298Y-93446087D01*
X130990157Y-93396304D01*
X131079484Y-93204740D01*
X131134192Y-93000568D01*
X131152614Y-92789999D01*
X131134192Y-92579431D01*
X131079485Y-92375261D01*
X131038678Y-92287750D01*
X131028017Y-92217558D01*
X131056997Y-92152745D01*
X131116417Y-92113889D01*
X131152873Y-92108500D01*
X134614782Y-92108500D01*
X134622390Y-92108730D01*
X134683091Y-92112402D01*
X134683091Y-92112401D01*
X134683093Y-92112402D01*
X134742941Y-92101434D01*
X134750398Y-92100299D01*
X134810801Y-92092965D01*
X134820328Y-92089351D01*
X134842294Y-92083227D01*
X134852329Y-92081389D01*
X134907797Y-92056423D01*
X134914802Y-92053522D01*
X134971675Y-92031954D01*
X134971674Y-92031954D01*
X134985564Y-92026687D01*
X135030242Y-92018500D01*
X137615788Y-92018500D01*
X137683909Y-92038502D01*
X137723028Y-92078352D01*
X137750971Y-92123654D01*
X137876344Y-92249027D01*
X137876346Y-92249028D01*
X137876348Y-92249030D01*
X138027262Y-92342115D01*
X138195574Y-92397887D01*
X138271637Y-92405658D01*
X138296253Y-92408173D01*
X138296255Y-92408173D01*
X138299455Y-92408500D01*
X139100544Y-92408499D01*
X139204426Y-92397887D01*
X139372738Y-92342115D01*
X139523652Y-92249030D01*
X139610906Y-92161775D01*
X139673216Y-92127752D01*
X139744032Y-92132816D01*
X139789093Y-92161775D01*
X139876348Y-92249030D01*
X140027262Y-92342115D01*
X140195574Y-92397887D01*
X140271637Y-92405658D01*
X140296253Y-92408173D01*
X140296255Y-92408173D01*
X140299455Y-92408500D01*
X141100544Y-92408499D01*
X141204426Y-92397887D01*
X141372738Y-92342115D01*
X141523652Y-92249030D01*
X141649030Y-92123652D01*
X141742115Y-91972738D01*
X141797887Y-91804426D01*
X141808500Y-91700545D01*
X141808499Y-90699456D01*
X141797887Y-90595574D01*
X141742115Y-90427262D01*
X141649030Y-90276348D01*
X141649028Y-90276346D01*
X141649027Y-90276344D01*
X141523652Y-90150969D01*
X141468353Y-90116860D01*
X141420875Y-90064074D01*
X141408500Y-90009620D01*
X141408500Y-89918924D01*
X141428502Y-89850803D01*
X141482158Y-89804310D01*
X141552432Y-89794206D01*
X141617012Y-89823700D01*
X141623595Y-89829829D01*
X142954595Y-91160829D01*
X142988621Y-91223141D01*
X142991500Y-91249924D01*
X142991500Y-96444262D01*
X142990893Y-96456613D01*
X142986619Y-96500001D01*
X143006090Y-96697700D01*
X143032098Y-96783432D01*
X143063758Y-96887802D01*
X143157404Y-97063004D01*
X143283433Y-97216569D01*
X143317135Y-97244227D01*
X143326298Y-97252532D01*
X145247461Y-99173695D01*
X145255766Y-99182857D01*
X145283434Y-99216571D01*
X145436992Y-99342593D01*
X145436996Y-99342595D01*
X145612196Y-99436241D01*
X145707247Y-99465074D01*
X145802298Y-99493908D01*
X145999998Y-99513380D01*
X145999999Y-99513379D01*
X146000000Y-99513380D01*
X146043384Y-99509106D01*
X146055735Y-99508500D01*
X164444263Y-99508500D01*
X164456612Y-99509106D01*
X164500000Y-99513380D01*
X164500000Y-99513379D01*
X164500001Y-99513380D01*
X164697701Y-99493909D01*
X164902440Y-99431801D01*
X164912754Y-99422904D01*
X165063004Y-99342595D01*
X165216568Y-99216568D01*
X165244235Y-99182854D01*
X165252519Y-99173713D01*
X166173719Y-98252514D01*
X166182849Y-98244239D01*
X166216568Y-98216568D01*
X166342595Y-98063004D01*
X166409947Y-97936997D01*
X166436242Y-97887803D01*
X166493909Y-97697700D01*
X166513380Y-97500000D01*
X166509107Y-97456613D01*
X166508500Y-97444262D01*
X166508500Y-85469923D01*
X166528502Y-85401802D01*
X166545400Y-85380833D01*
X168380828Y-83545405D01*
X168443141Y-83511379D01*
X168469924Y-83508500D01*
X176546455Y-83508500D01*
X176549547Y-83508500D01*
X176697701Y-83493908D01*
X176887804Y-83436241D01*
X177063004Y-83342595D01*
X177063005Y-83342593D01*
X177063007Y-83342593D01*
X177216568Y-83216568D01*
X177342593Y-83063007D01*
X177342595Y-83063004D01*
X177436241Y-82887804D01*
X177493908Y-82697701D01*
X177513380Y-82500000D01*
X177493908Y-82302299D01*
X177493045Y-82299455D01*
X177444440Y-82139225D01*
X177436241Y-82112196D01*
X177342595Y-81936996D01*
X177342593Y-81936992D01*
X177216568Y-81783431D01*
X177063007Y-81657406D01*
X176887802Y-81563758D01*
X176697701Y-81506091D01*
X176552627Y-81491803D01*
X176552619Y-81491802D01*
X176549547Y-81491500D01*
X176546455Y-81491500D01*
X168055737Y-81491500D01*
X168043387Y-81490893D01*
X168039905Y-81490550D01*
X167999998Y-81486619D01*
X167802300Y-81506090D01*
X167704350Y-81535804D01*
X167656442Y-81550337D01*
X167612196Y-81563759D01*
X167612194Y-81563759D01*
X167612194Y-81563760D01*
X167436995Y-81657404D01*
X167283430Y-81783433D01*
X167255765Y-81817142D01*
X167247463Y-81826301D01*
X164826301Y-84247463D01*
X164817142Y-84255765D01*
X164783431Y-84283432D01*
X164657406Y-84436994D01*
X164589638Y-84563780D01*
X164563757Y-84612199D01*
X164506090Y-84802298D01*
X164486619Y-84999998D01*
X164490893Y-85043385D01*
X164491500Y-85055736D01*
X164491500Y-97030074D01*
X164471498Y-97098195D01*
X164454596Y-97119169D01*
X164119171Y-97454595D01*
X164056858Y-97488620D01*
X164030075Y-97491500D01*
X146469924Y-97491500D01*
X146401803Y-97471498D01*
X146380829Y-97454595D01*
X145045405Y-96119171D01*
X145011379Y-96056859D01*
X145008500Y-96030076D01*
X145008500Y-90835734D01*
X145009107Y-90823382D01*
X145010295Y-90811317D01*
X145013380Y-90780000D01*
X145012952Y-90775658D01*
X144993908Y-90582298D01*
X144931800Y-90377557D01*
X144922901Y-90367240D01*
X144874319Y-90276348D01*
X144842595Y-90216996D01*
X144760415Y-90116860D01*
X144716570Y-90063434D01*
X144709806Y-90057883D01*
X144682862Y-90035770D01*
X144673701Y-90027466D01*
X143113197Y-88466962D01*
X143079171Y-88404650D01*
X143084236Y-88333835D01*
X143113194Y-88288774D01*
X143782673Y-87619295D01*
X143788183Y-87614110D01*
X143790565Y-87612000D01*
X143833715Y-87573773D01*
X143868291Y-87523679D01*
X143872735Y-87517640D01*
X143910275Y-87469726D01*
X143914460Y-87460426D01*
X143925659Y-87440569D01*
X143931454Y-87432175D01*
X143953022Y-87375302D01*
X143955923Y-87368297D01*
X143980889Y-87312829D01*
X143982727Y-87302794D01*
X143988852Y-87280827D01*
X143992465Y-87271301D01*
X143999799Y-87210898D01*
X144000934Y-87203441D01*
X144011902Y-87143593D01*
X144010901Y-87127053D01*
X144008230Y-87082890D01*
X144008000Y-87075282D01*
X144008000Y-85374558D01*
X144008230Y-85366950D01*
X144011902Y-85306244D01*
X144005161Y-85269459D01*
X144000935Y-85246400D01*
X143999793Y-85238891D01*
X143999233Y-85234281D01*
X143992465Y-85178535D01*
X143988849Y-85169002D01*
X143982727Y-85147038D01*
X143980889Y-85137007D01*
X143955920Y-85081529D01*
X143953025Y-85074540D01*
X143931454Y-85017661D01*
X143925660Y-85009267D01*
X143914457Y-84989404D01*
X143910275Y-84980111D01*
X143872771Y-84932241D01*
X143868272Y-84926126D01*
X143844052Y-84891039D01*
X143833715Y-84876063D01*
X143788182Y-84835724D01*
X143782641Y-84830507D01*
X141745404Y-82793269D01*
X141711378Y-82730957D01*
X141708499Y-82704174D01*
X141708499Y-82302661D01*
X141708499Y-82302660D01*
X141708499Y-82299456D01*
X141697887Y-82195574D01*
X141642115Y-82027262D01*
X141549030Y-81876348D01*
X141549028Y-81876346D01*
X141549027Y-81876344D01*
X141423655Y-81750972D01*
X141414377Y-81745249D01*
X141272738Y-81657885D01*
X141104426Y-81602113D01*
X141104423Y-81602112D01*
X141104421Y-81602112D01*
X141003746Y-81591826D01*
X141003725Y-81591824D01*
X141000545Y-81591500D01*
X140997339Y-81591500D01*
X140202661Y-81591500D01*
X140202641Y-81591500D01*
X140199456Y-81591501D01*
X140196279Y-81591825D01*
X140196270Y-81591826D01*
X140095573Y-81602113D01*
X139927262Y-81657885D01*
X139776346Y-81750971D01*
X139689095Y-81838222D01*
X139626783Y-81872247D01*
X139555967Y-81867181D01*
X139510905Y-81838222D01*
X139423653Y-81750971D01*
X139423652Y-81750970D01*
X139272738Y-81657885D01*
X139104426Y-81602113D01*
X139104423Y-81602112D01*
X139104421Y-81602112D01*
X139003746Y-81591826D01*
X139003725Y-81591824D01*
X139000545Y-81591500D01*
X138997339Y-81591500D01*
X138202661Y-81591500D01*
X138202641Y-81591500D01*
X138199456Y-81591501D01*
X138196279Y-81591825D01*
X138196270Y-81591826D01*
X138095573Y-81602113D01*
X137927262Y-81657885D01*
X137776344Y-81750972D01*
X137650972Y-81876344D01*
X137626204Y-81916500D01*
X137557885Y-82027262D01*
X137502113Y-82195574D01*
X137502112Y-82195578D01*
X137491826Y-82296253D01*
X137491825Y-82296270D01*
X137491500Y-82299455D01*
X137491500Y-82302660D01*
X137491500Y-82465500D01*
X137471498Y-82533621D01*
X137417842Y-82580114D01*
X137365500Y-82591500D01*
X128772009Y-82591500D01*
X128703888Y-82571498D01*
X128682914Y-82554596D01*
X128395158Y-82266841D01*
X128389957Y-82261316D01*
X128349620Y-82215785D01*
X128323694Y-82197889D01*
X128299567Y-82181235D01*
X128293439Y-82176725D01*
X128245571Y-82139223D01*
X128236269Y-82135036D01*
X128216415Y-82123839D01*
X128215092Y-82122926D01*
X128208022Y-82118046D01*
X128208020Y-82118045D01*
X128151169Y-82096483D01*
X128144141Y-82093572D01*
X128088676Y-82068610D01*
X128078636Y-82066770D01*
X128056679Y-82060649D01*
X128047148Y-82057035D01*
X127986779Y-82049704D01*
X127979261Y-82048559D01*
X127971500Y-82047137D01*
X127919440Y-82037597D01*
X127858737Y-82041270D01*
X127851129Y-82041500D01*
X125525223Y-82041500D01*
X125517616Y-82041270D01*
X125515540Y-82041144D01*
X125456906Y-82037597D01*
X125397090Y-82048559D01*
X125389569Y-82049704D01*
X125329197Y-82057035D01*
X125319662Y-82060651D01*
X125297711Y-82066770D01*
X125287671Y-82068611D01*
X125287669Y-82068611D01*
X125272628Y-82071369D01*
X125272032Y-82068119D01*
X125225835Y-82074497D01*
X125161421Y-82044642D01*
X125123374Y-81984701D01*
X125123155Y-81982363D01*
X124459635Y-81318844D01*
X124601949Y-81229423D01*
X124729424Y-81101948D01*
X124818844Y-80959634D01*
X125474748Y-81615538D01*
X125474749Y-81615537D01*
X125515173Y-81564850D01*
X125643170Y-81343152D01*
X125736695Y-81104854D01*
X125793659Y-80855279D01*
X125812789Y-80600000D01*
X125793659Y-80344720D01*
X125736695Y-80095145D01*
X125643170Y-79856847D01*
X125515173Y-79635150D01*
X125474749Y-79584461D01*
X125474748Y-79584460D01*
X124818844Y-80240364D01*
X124729424Y-80098052D01*
X124601949Y-79970577D01*
X124459635Y-79881155D01*
X125115579Y-79225211D01*
X124956393Y-79116679D01*
X124725753Y-79005609D01*
X124481135Y-78930155D01*
X124227995Y-78892000D01*
X123972007Y-78892000D01*
X123718866Y-78930155D01*
X123474248Y-79005609D01*
X123243607Y-79116681D01*
X123084422Y-79225210D01*
X123084422Y-79225212D01*
X123740365Y-79881156D01*
X123598053Y-79970577D01*
X123470578Y-80098052D01*
X123381156Y-80240365D01*
X122725253Y-79584461D01*
X122725251Y-79584461D01*
X122684828Y-79635151D01*
X122556831Y-79856848D01*
X122463306Y-80095145D01*
X122406342Y-80344720D01*
X122387212Y-80600000D01*
X122406342Y-80855279D01*
X122453542Y-81062074D01*
X122449200Y-81132938D01*
X122407235Y-81190205D01*
X122340971Y-81215693D01*
X122271447Y-81201310D01*
X122246619Y-81183954D01*
X122199324Y-81141577D01*
X121970360Y-80990096D01*
X121721780Y-80873567D01*
X121660993Y-80855279D01*
X121458876Y-80794471D01*
X121187272Y-80754500D01*
X121187270Y-80754500D01*
X120981454Y-80754500D01*
X120979184Y-80754666D01*
X120979160Y-80754667D01*
X120776192Y-80769523D01*
X120508227Y-80829215D01*
X120251802Y-80927288D01*
X120012389Y-81061653D01*
X119795098Y-81229441D01*
X119604548Y-81427082D01*
X119444804Y-81650364D01*
X119319272Y-81894524D01*
X119230631Y-82154352D01*
X119180765Y-82424325D01*
X119173715Y-82617240D01*
X119151238Y-82684585D01*
X119095921Y-82729087D01*
X119025324Y-82736617D01*
X118961864Y-82704785D01*
X118958704Y-82701733D01*
X118267676Y-82010705D01*
X118233650Y-81948393D01*
X118231250Y-81910634D01*
X118248366Y-81715000D01*
X118228945Y-81493014D01*
X118171271Y-81277773D01*
X118077098Y-81075818D01*
X117949285Y-80893283D01*
X117949284Y-80893282D01*
X117949282Y-80893279D01*
X117791721Y-80735718D01*
X117609184Y-80607903D01*
X117407228Y-80513729D01*
X117191987Y-80456056D01*
X117191986Y-80456055D01*
X116970001Y-80436635D01*
X116970000Y-80436635D01*
X116748014Y-80456056D01*
X116532774Y-80513729D01*
X116330818Y-80607903D01*
X116148280Y-80735718D01*
X115990719Y-80893279D01*
X115862904Y-81075817D01*
X115768730Y-81277773D01*
X115711057Y-81493013D01*
X115691636Y-81715000D01*
X115711057Y-81936986D01*
X115768730Y-82152227D01*
X115862904Y-82354183D01*
X115990719Y-82536720D01*
X116148280Y-82694281D01*
X116148283Y-82694283D01*
X116148284Y-82694284D01*
X116330818Y-82822097D01*
X116375913Y-82843125D01*
X116435273Y-82870805D01*
X116488558Y-82917722D01*
X116508019Y-82986000D01*
X116487477Y-83053959D01*
X116435273Y-83099195D01*
X116330818Y-83147903D01*
X116148280Y-83275718D01*
X115990719Y-83433279D01*
X115862904Y-83615817D01*
X115768730Y-83817773D01*
X115711057Y-84033013D01*
X115694384Y-84223595D01*
X115691636Y-84255000D01*
X115706677Y-84426921D01*
X115711057Y-84476986D01*
X115768730Y-84692227D01*
X115862904Y-84894183D01*
X115990719Y-85076720D01*
X116148280Y-85234281D01*
X116148283Y-85234283D01*
X116148284Y-85234284D01*
X116330818Y-85362097D01*
X116415966Y-85401802D01*
X116532773Y-85456270D01*
X116583727Y-85469923D01*
X116748015Y-85513944D01*
X116879824Y-85525475D01*
X116945942Y-85551338D01*
X116987581Y-85608842D01*
X116991522Y-85679729D01*
X116957937Y-85740091D01*
X115316856Y-87381172D01*
X115311317Y-87386388D01*
X115265782Y-87426729D01*
X115231238Y-87476773D01*
X115226731Y-87482898D01*
X115189224Y-87530774D01*
X115185036Y-87540078D01*
X115173843Y-87559923D01*
X115168048Y-87568319D01*
X115146482Y-87625183D01*
X115143570Y-87632211D01*
X115118611Y-87687668D01*
X115116771Y-87697710D01*
X115110651Y-87719662D01*
X115107035Y-87729197D01*
X115099705Y-87789554D01*
X115098561Y-87797071D01*
X115087597Y-87856907D01*
X112768500Y-87856907D01*
X112768500Y-66709766D01*
X125645787Y-66709766D01*
X125675413Y-66979015D01*
X125675414Y-66979018D01*
X125743928Y-67241088D01*
X125849870Y-67490390D01*
X125990982Y-67721610D01*
X126164255Y-67929820D01*
X126164256Y-67929821D01*
X126164258Y-67929823D01*
X126365993Y-68110578D01*
X126365995Y-68110579D01*
X126365998Y-68110582D01*
X126591910Y-68260044D01*
X126724104Y-68322014D01*
X126837171Y-68375018D01*
X126837173Y-68375018D01*
X126837176Y-68375020D01*
X127096569Y-68453060D01*
X127096572Y-68453060D01*
X127096574Y-68453061D01*
X127364558Y-68492500D01*
X127364561Y-68492500D01*
X127565330Y-68492500D01*
X127567631Y-68492500D01*
X127770156Y-68477677D01*
X128034553Y-68418780D01*
X128287558Y-68322014D01*
X128523777Y-68189441D01*
X128738177Y-68023888D01*
X128926186Y-67828881D01*
X129083799Y-67608579D01*
X129207656Y-67367675D01*
X129295118Y-67111305D01*
X129344319Y-66844933D01*
X129354212Y-66574235D01*
X129324586Y-66304982D01*
X129256072Y-66042912D01*
X129150130Y-65793610D01*
X129009018Y-65562390D01*
X128835745Y-65354180D01*
X128730759Y-65260112D01*
X128634006Y-65173421D01*
X128634003Y-65173419D01*
X128634002Y-65173418D01*
X128408090Y-65023956D01*
X128408086Y-65023954D01*
X128162828Y-64908981D01*
X127903425Y-64830938D01*
X127791001Y-64814393D01*
X145184102Y-64814393D01*
X145184641Y-64822221D01*
X145184770Y-64852955D01*
X145184281Y-64861098D01*
X145184959Y-64897789D01*
X145185113Y-64934433D01*
X145185785Y-64942547D01*
X145186289Y-64969768D01*
X145185853Y-64979673D01*
X145187113Y-65014377D01*
X145187754Y-65049054D01*
X145188729Y-65058900D01*
X145189461Y-65079044D01*
X145189159Y-65093113D01*
X145190949Y-65121290D01*
X145191119Y-65124697D01*
X145192144Y-65152923D01*
X145193848Y-65166899D01*
X145194757Y-65181201D01*
X145194973Y-65192296D01*
X145194762Y-65200834D01*
X145196902Y-65218864D01*
X145196975Y-65247241D01*
X145198128Y-65253854D01*
X145200000Y-65275492D01*
X145200000Y-68000000D01*
X152900000Y-68000000D01*
X152900000Y-66709766D01*
X168145787Y-66709766D01*
X168175413Y-66979015D01*
X168175414Y-66979018D01*
X168243928Y-67241088D01*
X168349870Y-67490390D01*
X168490982Y-67721610D01*
X168664255Y-67929820D01*
X168664256Y-67929821D01*
X168664258Y-67929823D01*
X168865993Y-68110578D01*
X168865995Y-68110579D01*
X168865998Y-68110582D01*
X169091910Y-68260044D01*
X169224104Y-68322014D01*
X169337171Y-68375018D01*
X169337173Y-68375018D01*
X169337176Y-68375020D01*
X169596569Y-68453060D01*
X169596572Y-68453060D01*
X169596574Y-68453061D01*
X169864558Y-68492500D01*
X169864561Y-68492500D01*
X170065330Y-68492500D01*
X170067631Y-68492500D01*
X170270156Y-68477677D01*
X170534553Y-68418780D01*
X170787558Y-68322014D01*
X171023777Y-68189441D01*
X171238177Y-68023888D01*
X171426186Y-67828881D01*
X171583799Y-67608579D01*
X171707656Y-67367675D01*
X171795118Y-67111305D01*
X171844319Y-66844933D01*
X171854212Y-66574235D01*
X171824586Y-66304982D01*
X171756072Y-66042912D01*
X171650130Y-65793610D01*
X171509018Y-65562390D01*
X171335745Y-65354180D01*
X171230759Y-65260112D01*
X171134006Y-65173421D01*
X171134003Y-65173419D01*
X171134002Y-65173418D01*
X170908090Y-65023956D01*
X170908086Y-65023954D01*
X170662828Y-64908981D01*
X170403425Y-64830938D01*
X170135442Y-64791500D01*
X170135439Y-64791500D01*
X169932369Y-64791500D01*
X169930099Y-64791666D01*
X169930075Y-64791667D01*
X169729839Y-64806323D01*
X169465449Y-64865219D01*
X169212441Y-64961985D01*
X168976225Y-65094557D01*
X168761820Y-65260114D01*
X168573815Y-65455117D01*
X168416200Y-65675422D01*
X168292342Y-65916328D01*
X168204882Y-66172693D01*
X168155681Y-66439065D01*
X168145787Y-66709766D01*
X152900000Y-66709766D01*
X152900000Y-60900000D01*
X145200000Y-60900000D01*
X145200000Y-64338413D01*
X145199507Y-64344043D01*
X145199649Y-64344048D01*
X145198716Y-64373373D01*
X145198346Y-64379813D01*
X145196838Y-64397938D01*
X145195026Y-64411173D01*
X145194506Y-64413888D01*
X145193346Y-64438884D01*
X145193048Y-64443488D01*
X145190976Y-64468386D01*
X145191141Y-64471137D01*
X145191231Y-64484496D01*
X145190470Y-64500898D01*
X145189238Y-64512359D01*
X145188450Y-64543820D01*
X145188355Y-64546497D01*
X145186893Y-64578028D01*
X145187304Y-64589554D01*
X145186702Y-64613561D01*
X145185925Y-64622323D01*
X145185584Y-64658214D01*
X145184683Y-64694201D01*
X145185159Y-64703001D01*
X145184879Y-64732527D01*
X145184297Y-64740375D01*
X145184453Y-64777425D01*
X145184102Y-64814393D01*
X127791001Y-64814393D01*
X127635442Y-64791500D01*
X127635439Y-64791500D01*
X127432369Y-64791500D01*
X127430099Y-64791666D01*
X127430075Y-64791667D01*
X127229839Y-64806323D01*
X126965449Y-64865219D01*
X126712441Y-64961985D01*
X126476225Y-65094557D01*
X126261820Y-65260114D01*
X126073815Y-65455117D01*
X125916200Y-65675422D01*
X125792342Y-65916328D01*
X125704882Y-66172693D01*
X125655681Y-66439065D01*
X125645787Y-66709766D01*
X112768500Y-66709766D01*
X112768500Y-59808500D01*
X112788502Y-59740379D01*
X112842158Y-59693886D01*
X112894500Y-59682500D01*
X186952500Y-59682500D01*
X187020621Y-59702502D01*
G37*
%TD.AperFunction*%
%TA.AperFunction,Conductor*%
G36*
X187521121Y-80403502D02*
G01*
X187567614Y-80457158D01*
X187579000Y-80509500D01*
X187579000Y-81790500D01*
X187558998Y-81858621D01*
X187505342Y-81905114D01*
X187453000Y-81916500D01*
X183504937Y-81916500D01*
X183488491Y-81915422D01*
X183456800Y-81911249D01*
X183416928Y-81916499D01*
X183416917Y-81916500D01*
X183416916Y-81916500D01*
X183416913Y-81916500D01*
X183416906Y-81916501D01*
X183297951Y-81932161D01*
X183151985Y-81992622D01*
X183151958Y-81992634D01*
X183149926Y-81993476D01*
X183149924Y-81993477D01*
X183149925Y-81993477D01*
X183149649Y-81993688D01*
X183147933Y-81994472D01*
X183105173Y-82015852D01*
X183085843Y-82042644D01*
X183085279Y-82043079D01*
X183059550Y-82062822D01*
X183059540Y-82062830D01*
X183054729Y-82066523D01*
X183054726Y-82066525D01*
X183053092Y-82067778D01*
X183053068Y-82067796D01*
X183022811Y-82091014D01*
X183003346Y-82116381D01*
X182992482Y-82128768D01*
X182176232Y-82945018D01*
X182113920Y-82979044D01*
X182043105Y-82973979D01*
X182035897Y-82971034D01*
X182011056Y-82959974D01*
X181824255Y-82920268D01*
X181633281Y-82920268D01*
X181538761Y-82940359D01*
X181446479Y-82959974D01*
X181272014Y-83037651D01*
X181233560Y-83065590D01*
X181166692Y-83089449D01*
X181097541Y-83073368D01*
X181048060Y-83022454D01*
X181033499Y-82963654D01*
X181033499Y-81797439D01*
X181053501Y-81729318D01*
X181070404Y-81708344D01*
X182358344Y-80420405D01*
X182420656Y-80386379D01*
X182447439Y-80383500D01*
X187453000Y-80383500D01*
X187521121Y-80403502D01*
G37*
%TD.AperFunction*%
%TD*%
M02*
