%TF.GenerationSoftware,KiCad,Pcbnew,7.0.2*%
%TF.CreationDate,2024-05-24T17:29:10+02:00*%
%TF.ProjectId,dsoxlan,64736f78-6c61-46e2-9e6b-696361645f70,rev?*%
%TF.SameCoordinates,Original*%
%TF.FileFunction,Copper,L2,Bot*%
%TF.FilePolarity,Positive*%
%FSLAX46Y46*%
G04 Gerber Fmt 4.6, Leading zero omitted, Abs format (unit mm)*
G04 Created by KiCad (PCBNEW 7.0.2) date 2024-05-24 17:29:10*
%MOMM*%
%LPD*%
G01*
G04 APERTURE LIST*
%TA.AperFunction,ComponentPad*%
%ADD10C,1.400000*%
%TD*%
%TA.AperFunction,ComponentPad*%
%ADD11C,1.530000*%
%TD*%
%TA.AperFunction,ComponentPad*%
%ADD12C,2.400000*%
%TD*%
%TA.AperFunction,ConnectorPad*%
%ADD13R,3.600000X0.550000*%
%TD*%
%TA.AperFunction,ViaPad*%
%ADD14C,0.800000*%
%TD*%
%TA.AperFunction,Conductor*%
%ADD15C,1.000000*%
%TD*%
%TA.AperFunction,Conductor*%
%ADD16C,0.500000*%
%TD*%
%TA.AperFunction,Conductor*%
%ADD17C,0.200000*%
%TD*%
%TA.AperFunction,Conductor*%
%ADD18C,0.400000*%
%TD*%
G04 APERTURE END LIST*
D10*
%TO.P,P1,1,TD+*%
%TO.N,TX+*%
X127400001Y-83900000D03*
%TO.P,P1,2,CTD*%
%TO.N,Net-(P1-CRD)*%
X129940001Y-85170000D03*
%TO.P,P1,3,TD-*%
%TO.N,TX-*%
X127400001Y-86440000D03*
%TO.P,P1,4,RD+*%
%TO.N,RX+*%
X129940001Y-87710000D03*
%TO.P,P1,5,CRD*%
%TO.N,Net-(P1-CRD)*%
X127400001Y-88980000D03*
%TO.P,P1,6,RD-*%
%TO.N,RX-*%
X129940001Y-90250000D03*
%TO.P,P1,7,NC*%
%TO.N,unconnected-(P1-NC-Pad7)*%
X127400001Y-91520000D03*
%TO.P,P1,8,GND*%
%TO.N,GND*%
X129940001Y-92790000D03*
D11*
%TO.P,P1,9,AY*%
%TO.N,Net-(P1-AY)*%
X116970001Y-81715000D03*
%TO.P,P1,10,KY*%
%TO.N,LED2*%
X116970001Y-84255000D03*
%TO.P,P1,11,AG*%
%TO.N,Net-(P1-AG)*%
X116970001Y-92435000D03*
%TO.P,P1,12,KG*%
%TO.N,LED1*%
X116970001Y-94975000D03*
D12*
%TO.P,P1,13,Shield*%
%TO.N,GND*%
X124100001Y-96090000D03*
%TO.P,P1,14,Shield*%
X124100001Y-80600000D03*
%TD*%
D13*
%TO.P,P2,2,Pin_2*%
%TO.N,unconnected-(P2-Pin_2-Pad2)*%
X190754000Y-104750000D03*
%TO.P,P2,4,Pin_4*%
%TO.N,unconnected-(P2-Pin_4-Pad4)*%
X190754000Y-103950000D03*
%TO.P,P2,6,Pin_6*%
%TO.N,unconnected-(P2-Pin_6-Pad6)*%
X190754000Y-103150000D03*
%TO.P,P2,8,Pin_8*%
%TO.N,unconnected-(P2-Pin_8-Pad8)*%
X190754000Y-102350000D03*
%TO.P,P2,10,Pin_10*%
%TO.N,unconnected-(P2-Pin_10-Pad10)*%
X190754000Y-101550000D03*
%TO.P,P2,12,Pin_12*%
%TO.N,unconnected-(P2-Pin_12-Pad12)*%
X190754000Y-100750000D03*
%TO.P,P2,14,Pin_14*%
%TO.N,unconnected-(P2-Pin_14-Pad14)*%
X190754000Y-99950000D03*
%TO.P,P2,16,Pin_16*%
%TO.N,unconnected-(P2-Pin_16-Pad16)*%
X190754000Y-99150000D03*
%TO.P,P2,18,Pin_18*%
%TO.N,unconnected-(P2-Pin_18-Pad18)*%
X190754000Y-98350000D03*
%TO.P,P2,20,Pin_20*%
%TO.N,unconnected-(P2-Pin_20-Pad20)*%
X190754000Y-97550000D03*
%TO.P,P2,22,Pin_22*%
%TO.N,unconnected-(P2-Pin_22-Pad22)*%
X190754000Y-96750000D03*
%TO.P,P2,24,Pin_24*%
%TO.N,unconnected-(P2-Pin_24-Pad24)*%
X190754000Y-95950000D03*
%TO.P,P2,26,Pin_26*%
%TO.N,unconnected-(P2-Pin_26-Pad26)*%
X190754000Y-95150000D03*
%TO.P,P2,28,Pin_28*%
%TO.N,unconnected-(P2-Pin_28-Pad28)*%
X190754000Y-94350000D03*
%TO.P,P2,30,Pin_30*%
%TO.N,unconnected-(P2-Pin_30-Pad30)*%
X190754000Y-93550000D03*
%TO.P,P2,32,Pin_32*%
%TO.N,unconnected-(P2-Pin_32-Pad32)*%
X190754000Y-92750000D03*
%TO.P,P2,34,Pin_34*%
%TO.N,unconnected-(P2-Pin_34-Pad34)*%
X190754000Y-91950000D03*
%TO.P,P2,36,Pin_36*%
%TO.N,unconnected-(P2-Pin_36-Pad36)*%
X190754000Y-91150000D03*
%TO.P,P2,38,Pin_38*%
%TO.N,unconnected-(P2-Pin_38-Pad38)*%
X190754000Y-90350000D03*
%TO.P,P2,40,Pin_40*%
%TO.N,unconnected-(P2-Pin_40-Pad40)*%
X190754000Y-89550000D03*
%TO.P,P2,42,Pin_42*%
%TO.N,unconnected-(P2-Pin_42-Pad42)*%
X190754000Y-88750000D03*
%TO.P,P2,44,Pin_44*%
%TO.N,unconnected-(P2-Pin_44-Pad44)*%
X190754000Y-87950000D03*
%TO.P,P2,46,Pin_46*%
%TO.N,unconnected-(P2-Pin_46-Pad46)*%
X190754000Y-83950000D03*
%TO.P,P2,48,Pin_48*%
%TO.N,+3.3V*%
X190754000Y-83150000D03*
%TO.P,P2,50,Pin_50*%
X190754000Y-82350000D03*
%TO.P,P2,52,Pin_52*%
%TO.N,GND*%
X190754000Y-81550000D03*
%TO.P,P2,54,Pin_54*%
X190754000Y-80750000D03*
%TO.P,P2,56,Pin_56*%
%TO.N,unconnected-(P2-Pin_56-Pad56)*%
X190754000Y-79950000D03*
%TO.P,P2,58,Pin_58*%
%TO.N,unconnected-(P2-Pin_58-Pad58)*%
X190754000Y-79150000D03*
%TO.P,P2,60,Pin_60*%
%TO.N,unconnected-(P2-Pin_60-Pad60)*%
X190754000Y-78350000D03*
%TO.P,P2,62,Pin_62*%
%TO.N,unconnected-(P2-Pin_62-Pad62)*%
X190754000Y-77550000D03*
%TO.P,P2,64,Pin_64*%
%TO.N,unconnected-(P2-Pin_64-Pad64)*%
X190754000Y-76750000D03*
%TO.P,P2,66,Pin_66*%
%TO.N,unconnected-(P2-Pin_66-Pad66)*%
X190754000Y-75950000D03*
%TO.P,P2,68,Pin_68*%
%TO.N,unconnected-(P2-Pin_68-Pad68)*%
X190754000Y-75150000D03*
%TO.P,P2,70,Pin_70*%
%TO.N,unconnected-(P2-Pin_70-Pad70)*%
X190754000Y-74350000D03*
%TO.P,P2,72,Pin_72*%
%TO.N,unconnected-(P2-Pin_72-Pad72)*%
X190754000Y-73550000D03*
%TO.P,P2,74,Pin_74*%
%TO.N,unconnected-(P2-Pin_74-Pad74)*%
X190754000Y-72750000D03*
%TO.P,P2,76,Pin_76*%
%TO.N,unconnected-(P2-Pin_76-Pad76)*%
X190754000Y-71950000D03*
%TO.P,P2,78,Pin_78*%
%TO.N,Net-(P2-Pin_78)*%
X190754000Y-71150000D03*
%TO.P,P2,80,Pin_80*%
X190754000Y-70350000D03*
%TD*%
D14*
%TO.N,GND*%
X175600000Y-86100000D03*
X133100000Y-86000000D03*
%TO.N,TX-*%
X131400000Y-85900000D03*
%TO.N,TX+*%
X182471232Y-84571232D03*
%TO.N,TX-*%
X181728768Y-83828768D03*
%TO.N,RX-*%
X131400000Y-89000000D03*
%TO.N,RX+*%
X178294074Y-86492667D03*
%TO.N,RX-*%
X177528768Y-85774500D03*
%TO.N,GND*%
X132500000Y-94500000D03*
X163500000Y-85500000D03*
X183680000Y-81280000D03*
X142500000Y-85680500D03*
X146500000Y-96000000D03*
X178100000Y-89800000D03*
X186000000Y-85000000D03*
X159500000Y-85500000D03*
X145500000Y-89000000D03*
X132500000Y-82500000D03*
X142500000Y-92500000D03*
X145500000Y-85500000D03*
X136800000Y-85700000D03*
X186000000Y-89500000D03*
X161500000Y-82500000D03*
X170500000Y-89000000D03*
X186000000Y-75000000D03*
X133200000Y-88967152D03*
X167199272Y-81245799D03*
X164000000Y-92500000D03*
X181000000Y-86500000D03*
X143000000Y-82500000D03*
X176000000Y-83725500D03*
X177500000Y-81400500D03*
X137000000Y-96000000D03*
X162000000Y-96000000D03*
X142000000Y-96000000D03*
X159500000Y-89000000D03*
X167500000Y-92500000D03*
X158500000Y-92500000D03*
%TO.N,LED2*%
X169000000Y-85000000D03*
%TO.N,LED1*%
X161600000Y-93000000D03*
%TO.N,+3.3V*%
X176500000Y-82500000D03*
%TD*%
D15*
%TO.N,+3.3V*%
X176500000Y-82500000D02*
X177200000Y-83200000D01*
X177200000Y-83200000D02*
X180500000Y-83200000D01*
X180500000Y-83200000D02*
X181200000Y-82500000D01*
X181200000Y-82500000D02*
X183000000Y-82500000D01*
D16*
%TO.N,LED1*%
X161600000Y-93000000D02*
X160750000Y-93850000D01*
X129550000Y-91450000D02*
X128000000Y-93000000D01*
X160750000Y-93850000D02*
X133850000Y-93850000D01*
X133850000Y-93850000D02*
X131450000Y-91450000D01*
X131450000Y-91450000D02*
X129550000Y-91450000D01*
X128000000Y-93000000D02*
X124500000Y-93000000D01*
X124500000Y-93000000D02*
X122800000Y-91300000D01*
X122800000Y-91300000D02*
X119500000Y-91300000D01*
X119500000Y-91300000D02*
X118700000Y-92100000D01*
X118700000Y-92100000D02*
X118700000Y-93245001D01*
X118700000Y-93245001D02*
X116970001Y-94975000D01*
%TO.N,LED2*%
X169000000Y-85000000D02*
X168277464Y-84277464D01*
X168277464Y-84277464D02*
X132277464Y-84277464D01*
X132277464Y-84277464D02*
X130100000Y-82100000D01*
X130100000Y-82100000D02*
X126100000Y-82100000D01*
X126100000Y-82100000D02*
X122100000Y-86100000D01*
X122100000Y-86100000D02*
X118815001Y-86100000D01*
X118815001Y-86100000D02*
X116970001Y-84255000D01*
D17*
%TO.N,TX+*%
X130865046Y-86425000D02*
X128935052Y-86425000D01*
%TO.N,TX-*%
X131475000Y-85975000D02*
X131400000Y-85900000D01*
%TO.N,TX+*%
X127400001Y-84889949D02*
X127400001Y-83900000D01*
X181693199Y-84925000D02*
X173093200Y-84925000D01*
X128935052Y-86425000D02*
X127400001Y-84889949D01*
X132065046Y-87625000D02*
X130865046Y-86425000D01*
X182471232Y-84571232D02*
X182046967Y-84571232D01*
X173093200Y-84925000D02*
X170393200Y-87625000D01*
X170393200Y-87625000D02*
X132065046Y-87625000D01*
X182046967Y-84571232D02*
X181693199Y-84925000D01*
%TO.N,TX-*%
X131493200Y-85975000D02*
X131475000Y-85975000D01*
X132693200Y-87175000D02*
X131493200Y-85975000D01*
X170206800Y-87175000D02*
X132693200Y-87175000D01*
X172906800Y-84475000D02*
X170206800Y-87175000D01*
X181506801Y-84475000D02*
X172906800Y-84475000D01*
%TO.N,RX+*%
X129940001Y-88699949D02*
X132065052Y-90825000D01*
%TO.N,TX-*%
X181728768Y-84253033D02*
X181506801Y-84475000D01*
%TO.N,RX+*%
X132065052Y-90825000D02*
X173493199Y-90825000D01*
X129940001Y-87710000D02*
X129940001Y-88699949D01*
X177825532Y-86492667D02*
X178294074Y-86492667D01*
%TO.N,RX-*%
X131600000Y-89000000D02*
X131609100Y-88990900D01*
X131609100Y-88990900D02*
X132993200Y-90375000D01*
X131400000Y-89000000D02*
X131600000Y-89000000D01*
X177528768Y-86153033D02*
X177528768Y-85774500D01*
X173306801Y-90375000D02*
X177528768Y-86153033D01*
X132993200Y-90375000D02*
X173306801Y-90375000D01*
%TO.N,RX+*%
X173493199Y-90825000D02*
X177825532Y-86492667D01*
%TO.N,TX-*%
X181728768Y-83828768D02*
X181728768Y-84253033D01*
D16*
%TO.N,GND*%
X186100998Y-81550000D02*
X186055000Y-81504002D01*
X186055000Y-81504002D02*
X186055000Y-81280000D01*
X186585000Y-80750000D02*
X186055000Y-81280000D01*
X190754000Y-81550000D02*
X186100998Y-81550000D01*
X186055000Y-81280000D02*
X183680000Y-81280000D01*
X190754000Y-80750000D02*
X186585000Y-80750000D01*
D18*
%TO.N,+3.3V*%
X186100000Y-83000000D02*
X186100000Y-83100000D01*
X186150000Y-82350000D02*
X186100000Y-82400000D01*
X186100000Y-83100000D02*
X186150000Y-83150000D01*
D16*
X183500000Y-83000000D02*
X186100000Y-83000000D01*
D18*
X186100000Y-82400000D02*
X186100000Y-83000000D01*
D16*
X183000000Y-82500000D02*
X183500000Y-83000000D01*
D18*
X190754000Y-82350000D02*
X186150000Y-82350000D01*
X186150000Y-83150000D02*
X190754000Y-83150000D01*
D16*
%TO.N,Net-(P2-Pin_78)*%
X186720000Y-71150000D02*
X186436000Y-70866000D01*
X186436000Y-70866000D02*
X186436000Y-70612000D01*
X186436000Y-70612000D02*
X186698000Y-70350000D01*
X186698000Y-70350000D02*
X190754000Y-70350000D01*
X190754000Y-71150000D02*
X186720000Y-71150000D01*
%TD*%
%TA.AperFunction,Conductor*%
%TO.N,GND*%
G36*
X187020621Y-59702502D02*
G01*
X187067114Y-59756158D01*
X187078500Y-59808500D01*
X187078500Y-69465500D01*
X187058498Y-69533621D01*
X187004842Y-69580114D01*
X186952500Y-69591500D01*
X186762442Y-69591500D01*
X186744182Y-69590170D01*
X186720212Y-69586659D01*
X186720211Y-69586659D01*
X186694075Y-69588945D01*
X186670353Y-69591021D01*
X186659372Y-69591500D01*
X186653820Y-69591500D01*
X186650182Y-69591925D01*
X186650167Y-69591926D01*
X186622711Y-69595135D01*
X186619070Y-69595507D01*
X186542260Y-69602227D01*
X186523123Y-69606470D01*
X186450634Y-69632853D01*
X186447176Y-69634055D01*
X186374000Y-69658303D01*
X186356372Y-69666838D01*
X186291918Y-69709229D01*
X186288831Y-69711196D01*
X186223218Y-69751667D01*
X186208032Y-69764038D01*
X186155087Y-69820156D01*
X186152534Y-69822783D01*
X185945225Y-70030092D01*
X185931377Y-70042061D01*
X185911944Y-70056529D01*
X185879773Y-70094868D01*
X185872360Y-70102958D01*
X185871017Y-70104301D01*
X185871011Y-70104307D01*
X185868420Y-70106899D01*
X185866149Y-70109770D01*
X185866140Y-70109781D01*
X185848997Y-70131460D01*
X185846688Y-70134294D01*
X185797119Y-70193369D01*
X185786589Y-70209899D01*
X185753995Y-70279794D01*
X185752401Y-70283087D01*
X185717795Y-70351997D01*
X185711363Y-70370500D01*
X185695759Y-70446064D01*
X185694967Y-70449637D01*
X185677192Y-70524640D01*
X185675202Y-70544115D01*
X185677447Y-70621258D01*
X185677500Y-70624922D01*
X185677500Y-70801559D01*
X185676170Y-70819820D01*
X185672658Y-70843790D01*
X185677020Y-70893633D01*
X185677500Y-70904616D01*
X185677500Y-70910180D01*
X185677924Y-70913815D01*
X185677926Y-70913834D01*
X185681135Y-70941291D01*
X185681507Y-70944932D01*
X185688228Y-71021744D01*
X185692469Y-71040873D01*
X185718846Y-71113342D01*
X185720049Y-71116804D01*
X185744304Y-71190000D01*
X185752837Y-71207627D01*
X185795232Y-71272084D01*
X185797171Y-71275127D01*
X185836970Y-71339651D01*
X185837674Y-71340792D01*
X185850038Y-71355967D01*
X185906155Y-71408911D01*
X185908784Y-71411465D01*
X186138092Y-71640773D01*
X186150060Y-71654620D01*
X186164531Y-71674058D01*
X186202870Y-71706228D01*
X186210974Y-71713655D01*
X186214900Y-71717581D01*
X186217780Y-71719858D01*
X186239455Y-71736997D01*
X186242296Y-71739311D01*
X186301377Y-71788885D01*
X186317890Y-71799405D01*
X186387786Y-71831998D01*
X186391078Y-71833591D01*
X186458812Y-71867609D01*
X186458814Y-71867609D01*
X186460008Y-71868209D01*
X186478490Y-71874633D01*
X186479791Y-71874901D01*
X186479794Y-71874903D01*
X186554078Y-71890241D01*
X186557630Y-71891029D01*
X186631344Y-71908500D01*
X186631346Y-71908500D01*
X186632641Y-71908807D01*
X186652114Y-71910797D01*
X186653439Y-71910758D01*
X186653442Y-71910759D01*
X186727477Y-71908604D01*
X186729259Y-71908553D01*
X186732923Y-71908500D01*
X187453000Y-71908500D01*
X187521121Y-71928502D01*
X187567614Y-71982158D01*
X187579000Y-72034500D01*
X187579000Y-81515500D01*
X187558998Y-81583621D01*
X187505342Y-81630114D01*
X187453000Y-81641500D01*
X186175223Y-81641500D01*
X186167616Y-81641270D01*
X186165540Y-81641144D01*
X186106906Y-81637597D01*
X186047090Y-81648559D01*
X186039569Y-81649704D01*
X185979197Y-81657035D01*
X185969662Y-81660651D01*
X185947711Y-81666770D01*
X185945609Y-81667155D01*
X185937668Y-81668611D01*
X185882213Y-81693569D01*
X185875186Y-81696480D01*
X185818322Y-81718046D01*
X185809926Y-81723842D01*
X185790076Y-81735038D01*
X185780776Y-81739224D01*
X185780774Y-81739225D01*
X185780775Y-81739225D01*
X185732899Y-81776731D01*
X185726785Y-81781230D01*
X185676730Y-81815781D01*
X185636388Y-81861317D01*
X185631172Y-81866856D01*
X185616856Y-81881172D01*
X185611317Y-81886388D01*
X185565782Y-81926729D01*
X185531238Y-81976773D01*
X185526731Y-81982898D01*
X185489224Y-82030774D01*
X185485036Y-82040078D01*
X185473843Y-82059923D01*
X185468048Y-82068319D01*
X185446482Y-82125183D01*
X185443570Y-82132211D01*
X185427819Y-82167210D01*
X185381623Y-82221121D01*
X185313613Y-82241498D01*
X185312919Y-82241500D01*
X184068913Y-82241500D01*
X184000792Y-82221498D01*
X183954299Y-82167842D01*
X183948339Y-82152076D01*
X183942312Y-82132211D01*
X183936241Y-82112196D01*
X183842595Y-81936996D01*
X183842593Y-81936992D01*
X183716568Y-81783431D01*
X183563007Y-81657406D01*
X183387802Y-81563758D01*
X183197701Y-81506091D01*
X183052627Y-81491803D01*
X183052619Y-81491802D01*
X183049547Y-81491500D01*
X183046455Y-81491500D01*
X181255735Y-81491500D01*
X181243384Y-81490893D01*
X181200000Y-81486619D01*
X181158608Y-81490696D01*
X181150453Y-81491500D01*
X181127926Y-81493718D01*
X181002298Y-81506091D01*
X180812197Y-81563758D01*
X180636995Y-81657404D01*
X180483430Y-81783433D01*
X180455774Y-81817131D01*
X180447473Y-81826290D01*
X180119171Y-82154595D01*
X180056859Y-82188620D01*
X180030075Y-82191500D01*
X177669926Y-82191500D01*
X177601805Y-82171498D01*
X177580831Y-82154596D01*
X177180265Y-81754031D01*
X177178082Y-81751848D01*
X177108973Y-81695132D01*
X177063002Y-81657404D01*
X176887802Y-81563758D01*
X176697701Y-81506090D01*
X176499999Y-81486619D01*
X176302298Y-81506090D01*
X176112197Y-81563757D01*
X175936998Y-81657404D01*
X175783431Y-81783431D01*
X175657404Y-81936998D01*
X175563757Y-82112197D01*
X175506090Y-82302298D01*
X175486619Y-82500000D01*
X175506090Y-82697701D01*
X175563758Y-82887802D01*
X175657404Y-83063002D01*
X175727080Y-83147903D01*
X175751848Y-83178082D01*
X175754031Y-83180265D01*
X176225170Y-83651405D01*
X176259195Y-83713717D01*
X176254130Y-83784533D01*
X176211583Y-83841368D01*
X176145063Y-83866179D01*
X176136074Y-83866500D01*
X172954944Y-83866500D01*
X172938498Y-83865422D01*
X172906800Y-83861249D01*
X172747949Y-83882161D01*
X172599924Y-83943475D01*
X172536326Y-83992276D01*
X172504729Y-84016522D01*
X172504725Y-84016525D01*
X172472813Y-84041013D01*
X172472809Y-84041017D01*
X172472805Y-84041021D01*
X172453345Y-84066381D01*
X172442481Y-84078768D01*
X169991656Y-86529595D01*
X169929344Y-86563620D01*
X169902561Y-86566500D01*
X132997439Y-86566500D01*
X132929318Y-86546498D01*
X132908344Y-86529595D01*
X132349136Y-85970387D01*
X132315110Y-85908075D01*
X132312923Y-85894478D01*
X132293542Y-85710072D01*
X132248161Y-85570405D01*
X132234527Y-85528443D01*
X132139039Y-85363054D01*
X132021259Y-85232245D01*
X131990541Y-85168238D01*
X131999306Y-85097784D01*
X132044769Y-85043253D01*
X132112496Y-85021958D01*
X132143946Y-85025330D01*
X132188808Y-85035964D01*
X132188812Y-85035964D01*
X132190107Y-85036271D01*
X132209575Y-85038260D01*
X132210902Y-85038221D01*
X132210906Y-85038222D01*
X132285161Y-85036061D01*
X132286688Y-85036017D01*
X132290352Y-85035964D01*
X167911093Y-85035964D01*
X167979214Y-85055966D01*
X168000188Y-85072869D01*
X168079874Y-85152555D01*
X168110612Y-85202714D01*
X168165472Y-85371555D01*
X168260958Y-85536942D01*
X168324181Y-85607158D01*
X168388747Y-85678866D01*
X168543248Y-85791118D01*
X168717712Y-85868794D01*
X168904513Y-85908500D01*
X168904515Y-85908500D01*
X169095485Y-85908500D01*
X169095487Y-85908500D01*
X169282288Y-85868794D01*
X169456752Y-85791118D01*
X169611253Y-85678866D01*
X169739040Y-85536944D01*
X169834527Y-85371556D01*
X169893542Y-85189928D01*
X169913504Y-85000000D01*
X169893542Y-84810072D01*
X169834527Y-84628444D01*
X169834527Y-84628443D01*
X169739041Y-84463057D01*
X169611252Y-84321133D01*
X169456753Y-84208883D01*
X169456752Y-84208882D01*
X169282288Y-84131206D01*
X169282284Y-84131204D01*
X169219228Y-84117801D01*
X169156755Y-84084072D01*
X169156331Y-84083650D01*
X168859373Y-83786692D01*
X168847401Y-83772839D01*
X168832934Y-83753407D01*
X168794591Y-83721233D01*
X168786488Y-83713807D01*
X168785158Y-83712477D01*
X168782565Y-83709884D01*
X168779699Y-83707617D01*
X168779688Y-83707608D01*
X168757994Y-83690455D01*
X168755172Y-83688156D01*
X168697104Y-83639432D01*
X168697103Y-83639431D01*
X168696085Y-83638577D01*
X168679574Y-83628058D01*
X168609669Y-83595460D01*
X168606373Y-83593865D01*
X168594963Y-83588135D01*
X168591926Y-83586610D01*
X168537460Y-83559256D01*
X168518968Y-83552829D01*
X168443406Y-83537226D01*
X168439831Y-83536433D01*
X168364820Y-83518655D01*
X168345349Y-83516666D01*
X168268205Y-83518911D01*
X168264541Y-83518964D01*
X132643835Y-83518964D01*
X132575714Y-83498962D01*
X132554740Y-83482059D01*
X130681909Y-81609228D01*
X130669937Y-81595375D01*
X130655470Y-81575943D01*
X130617127Y-81543769D01*
X130609024Y-81536343D01*
X130607694Y-81535013D01*
X130605101Y-81532420D01*
X130602235Y-81530153D01*
X130602224Y-81530144D01*
X130580530Y-81512991D01*
X130577708Y-81510692D01*
X130519640Y-81461968D01*
X130519639Y-81461967D01*
X130518621Y-81461113D01*
X130502110Y-81450594D01*
X130432205Y-81417996D01*
X130428909Y-81416401D01*
X130423622Y-81413746D01*
X130411954Y-81407886D01*
X130359996Y-81381792D01*
X130341504Y-81375365D01*
X130265942Y-81359762D01*
X130262367Y-81358969D01*
X130187356Y-81341191D01*
X130167885Y-81339202D01*
X130090741Y-81341447D01*
X130087077Y-81341500D01*
X126164441Y-81341500D01*
X126146180Y-81340170D01*
X126122211Y-81336659D01*
X126072353Y-81341021D01*
X126061372Y-81341500D01*
X126055820Y-81341500D01*
X126052185Y-81341924D01*
X126052165Y-81341926D01*
X126024709Y-81345135D01*
X126021068Y-81345507D01*
X125944251Y-81352228D01*
X125925139Y-81356465D01*
X125852653Y-81382846D01*
X125849838Y-81383832D01*
X125849672Y-81383888D01*
X125778731Y-81386711D01*
X125717527Y-81350731D01*
X125685490Y-81287374D01*
X125692106Y-81218466D01*
X125736695Y-81104854D01*
X125793659Y-80855279D01*
X125812789Y-80600000D01*
X125793659Y-80344720D01*
X125736695Y-80095145D01*
X125643170Y-79856847D01*
X125515173Y-79635150D01*
X125474749Y-79584461D01*
X125474748Y-79584460D01*
X124818844Y-80240364D01*
X124729424Y-80098052D01*
X124601949Y-79970577D01*
X124459635Y-79881155D01*
X125115579Y-79225211D01*
X124956393Y-79116679D01*
X124725753Y-79005609D01*
X124481135Y-78930155D01*
X124227995Y-78892000D01*
X123972007Y-78892000D01*
X123718866Y-78930155D01*
X123474248Y-79005609D01*
X123243607Y-79116681D01*
X123084422Y-79225210D01*
X123084422Y-79225212D01*
X123740365Y-79881156D01*
X123598053Y-79970577D01*
X123470578Y-80098052D01*
X123381156Y-80240365D01*
X122725253Y-79584461D01*
X122725251Y-79584461D01*
X122684828Y-79635151D01*
X122556831Y-79856848D01*
X122463306Y-80095145D01*
X122406342Y-80344720D01*
X122387212Y-80600000D01*
X122406342Y-80855279D01*
X122453542Y-81062074D01*
X122449200Y-81132938D01*
X122407235Y-81190205D01*
X122340971Y-81215693D01*
X122271447Y-81201310D01*
X122246619Y-81183954D01*
X122199324Y-81141577D01*
X121970360Y-80990096D01*
X121721780Y-80873567D01*
X121660993Y-80855279D01*
X121458876Y-80794471D01*
X121187272Y-80754500D01*
X121187270Y-80754500D01*
X120981454Y-80754500D01*
X120979184Y-80754666D01*
X120979160Y-80754667D01*
X120776192Y-80769523D01*
X120508227Y-80829215D01*
X120251802Y-80927288D01*
X120012389Y-81061653D01*
X119795098Y-81229441D01*
X119604548Y-81427082D01*
X119444804Y-81650364D01*
X119319272Y-81894524D01*
X119230631Y-82154352D01*
X119180765Y-82424325D01*
X119170738Y-82698681D01*
X119200764Y-82971568D01*
X119224922Y-83063972D01*
X119270205Y-83237182D01*
X119377578Y-83489852D01*
X119520596Y-83724196D01*
X119696210Y-83935218D01*
X119696211Y-83935219D01*
X119696213Y-83935221D01*
X119751212Y-83984500D01*
X119900678Y-84118423D01*
X120129642Y-84269904D01*
X120378222Y-84386433D01*
X120641120Y-84465527D01*
X120641123Y-84465527D01*
X120641125Y-84465528D01*
X120912730Y-84505500D01*
X120912732Y-84505500D01*
X121116247Y-84505500D01*
X121118548Y-84505500D01*
X121323806Y-84490477D01*
X121591776Y-84430784D01*
X121848199Y-84332711D01*
X122087610Y-84198347D01*
X122087609Y-84198347D01*
X122087612Y-84198346D01*
X122236147Y-84083650D01*
X122304905Y-84030557D01*
X122495455Y-83832916D01*
X122655197Y-83609637D01*
X122780728Y-83365479D01*
X122869371Y-83105646D01*
X122919237Y-82835674D01*
X122929263Y-82561320D01*
X122899237Y-82288429D01*
X122844383Y-82078610D01*
X122846505Y-82007647D01*
X122886656Y-81949095D01*
X122952089Y-81921544D01*
X123022030Y-81933744D01*
X123037265Y-81942636D01*
X123243609Y-82083320D01*
X123474248Y-82194390D01*
X123718866Y-82269844D01*
X123972007Y-82308000D01*
X124227995Y-82308000D01*
X124481135Y-82269844D01*
X124539855Y-82251732D01*
X124610845Y-82250766D01*
X124671087Y-82288334D01*
X124701456Y-82352508D01*
X124692309Y-82422913D01*
X124666089Y-82461229D01*
X121822724Y-85304595D01*
X121760412Y-85338621D01*
X121733629Y-85341500D01*
X119181372Y-85341500D01*
X119113251Y-85321498D01*
X119092277Y-85304595D01*
X118273364Y-84485682D01*
X118239338Y-84423370D01*
X118236939Y-84385605D01*
X118237315Y-84381304D01*
X118248366Y-84255000D01*
X118228945Y-84033014D01*
X118171271Y-83817773D01*
X118077098Y-83615818D01*
X117949285Y-83433283D01*
X117949284Y-83433282D01*
X117949282Y-83433279D01*
X117791721Y-83275718D01*
X117655401Y-83180265D01*
X117609184Y-83147903D01*
X117504729Y-83099195D01*
X117451443Y-83052278D01*
X117431982Y-82984001D01*
X117452524Y-82916041D01*
X117504729Y-82870805D01*
X117519952Y-82863706D01*
X117609184Y-82822097D01*
X117791718Y-82694284D01*
X117949285Y-82536717D01*
X118077098Y-82354183D01*
X118171271Y-82152227D01*
X118228945Y-81936986D01*
X118248366Y-81715000D01*
X118228945Y-81493014D01*
X118171271Y-81277773D01*
X118077098Y-81075818D01*
X117949285Y-80893283D01*
X117949284Y-80893282D01*
X117949282Y-80893279D01*
X117791721Y-80735718D01*
X117609184Y-80607903D01*
X117407228Y-80513729D01*
X117191987Y-80456056D01*
X117191986Y-80456055D01*
X116970001Y-80436635D01*
X116970000Y-80436635D01*
X116748014Y-80456056D01*
X116532774Y-80513729D01*
X116330818Y-80607903D01*
X116148280Y-80735718D01*
X115990719Y-80893279D01*
X115862904Y-81075817D01*
X115768730Y-81277773D01*
X115711057Y-81493013D01*
X115691636Y-81715000D01*
X115711057Y-81936986D01*
X115768730Y-82152227D01*
X115862904Y-82354183D01*
X115990719Y-82536720D01*
X116148280Y-82694281D01*
X116148283Y-82694283D01*
X116148284Y-82694284D01*
X116330818Y-82822097D01*
X116408885Y-82858500D01*
X116435273Y-82870805D01*
X116488558Y-82917722D01*
X116508019Y-82986000D01*
X116487477Y-83053959D01*
X116435273Y-83099195D01*
X116330818Y-83147903D01*
X116148280Y-83275718D01*
X115990719Y-83433279D01*
X115862904Y-83615817D01*
X115768730Y-83817773D01*
X115711057Y-84033013D01*
X115691636Y-84254999D01*
X115711057Y-84476986D01*
X115768730Y-84692227D01*
X115862904Y-84894183D01*
X115990719Y-85076720D01*
X116148280Y-85234281D01*
X116148283Y-85234283D01*
X116148284Y-85234284D01*
X116330818Y-85362097D01*
X116438599Y-85412356D01*
X116532773Y-85456270D01*
X116590446Y-85471723D01*
X116748015Y-85513944D01*
X116970001Y-85533365D01*
X117100606Y-85521938D01*
X117170211Y-85535926D01*
X117200683Y-85558363D01*
X118233093Y-86590773D01*
X118245061Y-86604620D01*
X118257628Y-86621500D01*
X118259532Y-86624058D01*
X118297871Y-86656228D01*
X118305975Y-86663655D01*
X118309900Y-86667580D01*
X118328891Y-86682596D01*
X118334454Y-86686995D01*
X118337293Y-86689308D01*
X118396383Y-86738890D01*
X118412890Y-86749406D01*
X118482807Y-86782008D01*
X118486044Y-86783574D01*
X118553813Y-86817609D01*
X118553815Y-86817609D01*
X118555015Y-86818212D01*
X118573489Y-86824633D01*
X118574793Y-86824902D01*
X118574795Y-86824903D01*
X118649045Y-86840234D01*
X118652588Y-86841019D01*
X118726345Y-86858500D01*
X118726347Y-86858500D01*
X118727642Y-86858807D01*
X118747113Y-86860796D01*
X118748440Y-86860757D01*
X118748443Y-86860758D01*
X118824240Y-86858552D01*
X118827904Y-86858500D01*
X122035559Y-86858500D01*
X122053820Y-86859830D01*
X122077789Y-86863341D01*
X122124253Y-86859275D01*
X122127647Y-86858979D01*
X122138628Y-86858500D01*
X122140513Y-86858500D01*
X122144180Y-86858500D01*
X122175301Y-86854861D01*
X122178896Y-86854494D01*
X122254426Y-86847887D01*
X122254430Y-86847885D01*
X122255751Y-86847770D01*
X122274856Y-86843535D01*
X122276106Y-86843079D01*
X122276113Y-86843079D01*
X122347400Y-86817132D01*
X122350769Y-86815961D01*
X122422738Y-86792114D01*
X122422739Y-86792112D01*
X122424007Y-86791693D01*
X122441613Y-86783169D01*
X122442725Y-86782437D01*
X122442732Y-86782435D01*
X122506138Y-86740730D01*
X122509161Y-86738806D01*
X122510416Y-86738032D01*
X122573651Y-86699030D01*
X122573652Y-86699028D01*
X122574788Y-86698328D01*
X122589959Y-86685970D01*
X122590871Y-86685002D01*
X122590874Y-86685001D01*
X122642929Y-86629824D01*
X122645448Y-86627231D01*
X126195641Y-83077039D01*
X126257951Y-83043015D01*
X126328767Y-83048080D01*
X126385602Y-83090627D01*
X126410413Y-83157147D01*
X126395322Y-83226521D01*
X126387948Y-83238406D01*
X126349412Y-83293441D01*
X126260044Y-83485090D01*
X126205315Y-83689344D01*
X126191194Y-83850753D01*
X126186885Y-83900000D01*
X126190689Y-83943475D01*
X126205315Y-84110655D01*
X126260044Y-84314909D01*
X126349412Y-84506559D01*
X126470702Y-84679779D01*
X126620223Y-84829300D01*
X126748898Y-84919399D01*
X126793227Y-84974856D01*
X126801549Y-85006163D01*
X126803443Y-85020543D01*
X126804208Y-85026351D01*
X126807162Y-85048799D01*
X126874825Y-85212151D01*
X126871675Y-85213455D01*
X126887567Y-85254562D01*
X126873302Y-85324110D01*
X126823701Y-85374906D01*
X126815255Y-85379239D01*
X126793444Y-85389409D01*
X126620221Y-85510701D01*
X126470702Y-85660220D01*
X126349412Y-85833440D01*
X126260044Y-86025090D01*
X126205315Y-86229344D01*
X126186885Y-86440000D01*
X126205315Y-86650655D01*
X126260044Y-86854909D01*
X126349412Y-87046559D01*
X126470702Y-87219779D01*
X126620221Y-87369298D01*
X126620224Y-87369300D01*
X126620225Y-87369301D01*
X126657460Y-87395373D01*
X126793441Y-87490588D01*
X126793442Y-87490588D01*
X126793443Y-87490589D01*
X126985091Y-87579956D01*
X127014730Y-87587897D01*
X127016205Y-87588293D01*
X127076827Y-87625245D01*
X127107849Y-87689106D01*
X127099420Y-87759600D01*
X127054217Y-87814347D01*
X127016205Y-87831707D01*
X126985089Y-87840044D01*
X126793441Y-87929411D01*
X126620221Y-88050701D01*
X126470702Y-88200220D01*
X126349412Y-88373440D01*
X126260044Y-88565090D01*
X126205315Y-88769344D01*
X126199269Y-88838456D01*
X126186885Y-88980000D01*
X126197561Y-89102023D01*
X126205315Y-89190655D01*
X126260044Y-89394909D01*
X126349412Y-89586559D01*
X126470702Y-89759779D01*
X126620221Y-89909298D01*
X126793441Y-90030588D01*
X126793442Y-90030588D01*
X126793443Y-90030589D01*
X126985091Y-90119956D01*
X127014730Y-90127897D01*
X127016205Y-90128293D01*
X127076827Y-90165245D01*
X127107849Y-90229106D01*
X127099420Y-90299600D01*
X127054217Y-90354347D01*
X127016205Y-90371707D01*
X126985089Y-90380044D01*
X126793441Y-90469411D01*
X126620221Y-90590701D01*
X126470702Y-90740220D01*
X126349412Y-90913440D01*
X126260044Y-91105090D01*
X126205315Y-91309344D01*
X126186885Y-91520000D01*
X126205315Y-91730655D01*
X126260044Y-91934909D01*
X126319425Y-92062250D01*
X126330086Y-92132441D01*
X126301106Y-92197254D01*
X126241687Y-92236111D01*
X126205230Y-92241500D01*
X124866371Y-92241500D01*
X124798250Y-92221498D01*
X124777276Y-92204595D01*
X123381909Y-90809228D01*
X123369937Y-90795375D01*
X123355470Y-90775943D01*
X123348573Y-90770156D01*
X123317127Y-90743769D01*
X123309024Y-90736343D01*
X123307694Y-90735013D01*
X123305101Y-90732420D01*
X123302235Y-90730153D01*
X123302224Y-90730144D01*
X123280530Y-90712991D01*
X123277708Y-90710692D01*
X123219640Y-90661968D01*
X123219639Y-90661967D01*
X123218621Y-90661113D01*
X123202110Y-90650594D01*
X123132205Y-90617996D01*
X123128909Y-90616401D01*
X123123620Y-90613745D01*
X123077735Y-90590701D01*
X123059996Y-90581792D01*
X123041504Y-90575365D01*
X122965942Y-90559762D01*
X122962367Y-90558969D01*
X122887356Y-90541191D01*
X122867885Y-90539202D01*
X122790741Y-90541447D01*
X122787077Y-90541500D01*
X119564442Y-90541500D01*
X119546182Y-90540170D01*
X119522212Y-90536659D01*
X119522211Y-90536659D01*
X119496075Y-90538945D01*
X119472353Y-90541021D01*
X119461372Y-90541500D01*
X119455820Y-90541500D01*
X119452182Y-90541925D01*
X119452167Y-90541926D01*
X119424711Y-90545135D01*
X119421070Y-90545507D01*
X119344260Y-90552227D01*
X119325123Y-90556470D01*
X119252634Y-90582853D01*
X119249176Y-90584055D01*
X119176000Y-90608303D01*
X119158372Y-90616838D01*
X119093918Y-90659229D01*
X119090831Y-90661196D01*
X119025218Y-90701667D01*
X119010032Y-90714038D01*
X118957087Y-90770156D01*
X118954534Y-90772783D01*
X118209225Y-91518092D01*
X118195377Y-91530061D01*
X118175944Y-91544529D01*
X118143773Y-91582868D01*
X118136360Y-91590958D01*
X118135017Y-91592301D01*
X118135011Y-91592307D01*
X118132420Y-91594899D01*
X118130145Y-91597774D01*
X118127712Y-91600510D01*
X118131066Y-91596512D01*
X118073295Y-91637409D01*
X118002370Y-91640589D01*
X117943322Y-91607319D01*
X117791721Y-91455718D01*
X117609184Y-91327903D01*
X117407228Y-91233729D01*
X117191987Y-91176056D01*
X117161537Y-91173392D01*
X116970001Y-91156635D01*
X116970000Y-91156635D01*
X116748014Y-91176056D01*
X116532774Y-91233729D01*
X116330818Y-91327903D01*
X116148280Y-91455718D01*
X115990719Y-91613279D01*
X115862904Y-91795817D01*
X115768730Y-91997773D01*
X115711057Y-92213013D01*
X115691636Y-92435000D01*
X115711057Y-92656986D01*
X115768730Y-92872227D01*
X115862904Y-93074183D01*
X115990719Y-93256720D01*
X116148280Y-93414281D01*
X116148283Y-93414283D01*
X116148284Y-93414284D01*
X116330818Y-93542097D01*
X116385467Y-93567580D01*
X116435273Y-93590805D01*
X116488558Y-93637722D01*
X116508019Y-93706000D01*
X116487477Y-93773959D01*
X116435273Y-93819195D01*
X116330818Y-93867903D01*
X116148280Y-93995718D01*
X115990719Y-94153279D01*
X115862904Y-94335817D01*
X115768730Y-94537773D01*
X115711057Y-94753013D01*
X115691636Y-94974999D01*
X115711057Y-95196986D01*
X115768730Y-95412227D01*
X115862904Y-95614183D01*
X115990719Y-95796720D01*
X116148280Y-95954281D01*
X116148283Y-95954283D01*
X116148284Y-95954284D01*
X116330818Y-96082097D01*
X116438599Y-96132356D01*
X116532773Y-96176270D01*
X116590446Y-96191723D01*
X116748015Y-96233944D01*
X116970001Y-96253365D01*
X117191987Y-96233944D01*
X117407228Y-96176270D01*
X117609184Y-96082097D01*
X117791718Y-95954284D01*
X117949285Y-95796717D01*
X118077098Y-95614183D01*
X118171271Y-95412227D01*
X118228945Y-95196986D01*
X118248366Y-94975000D01*
X118236938Y-94844393D01*
X118250927Y-94774788D01*
X118273361Y-94744319D01*
X118957186Y-94060494D01*
X119019496Y-94026470D01*
X119090311Y-94031535D01*
X119147147Y-94074082D01*
X119171523Y-94135810D01*
X119200764Y-94401568D01*
X119211109Y-94441138D01*
X119270205Y-94667182D01*
X119377578Y-94919852D01*
X119520596Y-95154196D01*
X119696210Y-95365218D01*
X119900678Y-95548423D01*
X120129642Y-95699904D01*
X120378222Y-95816433D01*
X120641120Y-95895527D01*
X120641123Y-95895527D01*
X120641125Y-95895528D01*
X120912730Y-95935500D01*
X120912732Y-95935500D01*
X121116247Y-95935500D01*
X121118548Y-95935500D01*
X121323806Y-95920477D01*
X121591776Y-95860784D01*
X121848199Y-95762711D01*
X122087610Y-95628347D01*
X122087609Y-95628347D01*
X122087612Y-95628346D01*
X122191461Y-95548155D01*
X122253709Y-95500088D01*
X122319851Y-95474286D01*
X122389442Y-95488339D01*
X122440390Y-95537785D01*
X122456516Y-95606926D01*
X122453558Y-95627855D01*
X122406342Y-95834720D01*
X122387212Y-96090000D01*
X122406342Y-96345279D01*
X122463306Y-96594854D01*
X122556831Y-96833151D01*
X122684828Y-97054848D01*
X122725251Y-97105537D01*
X122725253Y-97105537D01*
X123381156Y-96449633D01*
X123470578Y-96591948D01*
X123598053Y-96719423D01*
X123740365Y-96808843D01*
X123084422Y-97464786D01*
X123084422Y-97464787D01*
X123243609Y-97573320D01*
X123474248Y-97684390D01*
X123718866Y-97759844D01*
X123972007Y-97798000D01*
X124227995Y-97798000D01*
X124481135Y-97759844D01*
X124725753Y-97684390D01*
X124956393Y-97573320D01*
X125115579Y-97464787D01*
X124459635Y-96808843D01*
X124601949Y-96719423D01*
X124729424Y-96591948D01*
X124818844Y-96449634D01*
X125474748Y-97105538D01*
X125474749Y-97105537D01*
X125515173Y-97054850D01*
X125643170Y-96833152D01*
X125736695Y-96594854D01*
X125793659Y-96345279D01*
X125812789Y-96089999D01*
X125793659Y-95834720D01*
X125736695Y-95585145D01*
X125643170Y-95346847D01*
X125515173Y-95125150D01*
X125474749Y-95074461D01*
X125474748Y-95074460D01*
X124818844Y-95730364D01*
X124729424Y-95588052D01*
X124601949Y-95460577D01*
X124459634Y-95371155D01*
X125115579Y-94715211D01*
X124956393Y-94606679D01*
X124725753Y-94495609D01*
X124481135Y-94420155D01*
X124227995Y-94382000D01*
X123972007Y-94382000D01*
X123718866Y-94420155D01*
X123474248Y-94495609D01*
X123243606Y-94606681D01*
X123036617Y-94747804D01*
X122969066Y-94769651D01*
X122900426Y-94751509D01*
X122852491Y-94699138D01*
X122840480Y-94629165D01*
X122846388Y-94603015D01*
X122858262Y-94568209D01*
X122869371Y-94535646D01*
X122919237Y-94265674D01*
X122929263Y-93991320D01*
X122899237Y-93718429D01*
X122829797Y-93452818D01*
X122722424Y-93200148D01*
X122579406Y-92965804D01*
X122403792Y-92754782D01*
X122199324Y-92571577D01*
X121970360Y-92420096D01*
X121721780Y-92303567D01*
X121721778Y-92303566D01*
X121713430Y-92299653D01*
X121714646Y-92297058D01*
X121667596Y-92266376D01*
X121638534Y-92201601D01*
X121649106Y-92131396D01*
X121695955Y-92078051D01*
X121763368Y-92058500D01*
X122433629Y-92058500D01*
X122501750Y-92078502D01*
X122522724Y-92095405D01*
X123918092Y-93490773D01*
X123930060Y-93504620D01*
X123944531Y-93524058D01*
X123982870Y-93556228D01*
X123990974Y-93563655D01*
X123994899Y-93567580D01*
X124016931Y-93585001D01*
X124019453Y-93586995D01*
X124022292Y-93589308D01*
X124081382Y-93638890D01*
X124097889Y-93649405D01*
X124099093Y-93649966D01*
X124099094Y-93649967D01*
X124161068Y-93678866D01*
X124167794Y-93682002D01*
X124171085Y-93683596D01*
X124187208Y-93691693D01*
X124240000Y-93718206D01*
X124258485Y-93724631D01*
X124259791Y-93724900D01*
X124259794Y-93724902D01*
X124334113Y-93740247D01*
X124337525Y-93741003D01*
X124411344Y-93758500D01*
X124411347Y-93758500D01*
X124412642Y-93758807D01*
X124432111Y-93760796D01*
X124433438Y-93760757D01*
X124433442Y-93760758D01*
X124509239Y-93758552D01*
X124512903Y-93758500D01*
X127935559Y-93758500D01*
X127953820Y-93759830D01*
X127977789Y-93763341D01*
X128024253Y-93759275D01*
X128027647Y-93758979D01*
X128038628Y-93758500D01*
X128040513Y-93758500D01*
X128044180Y-93758500D01*
X128075301Y-93754861D01*
X128078896Y-93754494D01*
X128154426Y-93747887D01*
X128154430Y-93747885D01*
X128155751Y-93747770D01*
X128174856Y-93743535D01*
X128176106Y-93743079D01*
X128176113Y-93743079D01*
X128247400Y-93717132D01*
X128250769Y-93715961D01*
X128322738Y-93692114D01*
X128322739Y-93692112D01*
X128324007Y-93691693D01*
X128341613Y-93683169D01*
X128342725Y-93682437D01*
X128342732Y-93682435D01*
X128406138Y-93640730D01*
X128409161Y-93638806D01*
X128410416Y-93638032D01*
X128473651Y-93599030D01*
X128473652Y-93599028D01*
X128474788Y-93598328D01*
X128489959Y-93585970D01*
X128490871Y-93585002D01*
X128490874Y-93585001D01*
X128542929Y-93529824D01*
X128545448Y-93527231D01*
X128695752Y-93376927D01*
X128758062Y-93342903D01*
X128828877Y-93347968D01*
X128885713Y-93390515D01*
X128888058Y-93393753D01*
X128924703Y-93446086D01*
X129495156Y-92875632D01*
X129496328Y-92891265D01*
X129545888Y-93017541D01*
X129630466Y-93123599D01*
X129742548Y-93200016D01*
X129854624Y-93234586D01*
X129283913Y-93805296D01*
X129283913Y-93805297D01*
X129333692Y-93840153D01*
X129525262Y-93929484D01*
X129729432Y-93984191D01*
X129940001Y-94002613D01*
X130150569Y-93984191D01*
X130354741Y-93929483D01*
X130546305Y-93840156D01*
X130596088Y-93805297D01*
X130596088Y-93805296D01*
X130023317Y-93232525D01*
X130074139Y-93224865D01*
X130196358Y-93166007D01*
X130295799Y-93073740D01*
X130363626Y-92956260D01*
X130382551Y-92873341D01*
X130955297Y-93446087D01*
X130955298Y-93446087D01*
X130990157Y-93396304D01*
X131079484Y-93204740D01*
X131134192Y-93000568D01*
X131152614Y-92789999D01*
X131134192Y-92579427D01*
X131119534Y-92524723D01*
X131121223Y-92453746D01*
X131161017Y-92394950D01*
X131226281Y-92367002D01*
X131296294Y-92378775D01*
X131330335Y-92403016D01*
X133268092Y-94340773D01*
X133280060Y-94354620D01*
X133294531Y-94374058D01*
X133332870Y-94406228D01*
X133340974Y-94413655D01*
X133344900Y-94417581D01*
X133353003Y-94423988D01*
X133369455Y-94436997D01*
X133372296Y-94439311D01*
X133431377Y-94488885D01*
X133447890Y-94499405D01*
X133517786Y-94531998D01*
X133521078Y-94533591D01*
X133588812Y-94567609D01*
X133588814Y-94567609D01*
X133590008Y-94568209D01*
X133608490Y-94574633D01*
X133609791Y-94574901D01*
X133609794Y-94574903D01*
X133684078Y-94590241D01*
X133687630Y-94591029D01*
X133761344Y-94608500D01*
X133761346Y-94608500D01*
X133762641Y-94608807D01*
X133782114Y-94610797D01*
X133783439Y-94610758D01*
X133783442Y-94610759D01*
X133857477Y-94608604D01*
X133859259Y-94608553D01*
X133862923Y-94608500D01*
X160685559Y-94608500D01*
X160703820Y-94609830D01*
X160727789Y-94613341D01*
X160774253Y-94609275D01*
X160777647Y-94608979D01*
X160788628Y-94608500D01*
X160790513Y-94608500D01*
X160794180Y-94608500D01*
X160825301Y-94604861D01*
X160828896Y-94604494D01*
X160904426Y-94597887D01*
X160904430Y-94597885D01*
X160905751Y-94597770D01*
X160924856Y-94593535D01*
X160926106Y-94593079D01*
X160926113Y-94593079D01*
X160997400Y-94567132D01*
X161000769Y-94565961D01*
X161072738Y-94542114D01*
X161072739Y-94542112D01*
X161074007Y-94541693D01*
X161091613Y-94533169D01*
X161092725Y-94532437D01*
X161092732Y-94532435D01*
X161156138Y-94490730D01*
X161159161Y-94488806D01*
X161160416Y-94488032D01*
X161223651Y-94449030D01*
X161223652Y-94449028D01*
X161224788Y-94448328D01*
X161239959Y-94435970D01*
X161240871Y-94435002D01*
X161240874Y-94435001D01*
X161292929Y-94379824D01*
X161295448Y-94377231D01*
X161756332Y-93916347D01*
X161818642Y-93882323D01*
X161818946Y-93882257D01*
X161882288Y-93868794D01*
X162056752Y-93791118D01*
X162211253Y-93678866D01*
X162339040Y-93536944D01*
X162434527Y-93371556D01*
X162493542Y-93189928D01*
X162513504Y-93000000D01*
X162493542Y-92810072D01*
X162434527Y-92628444D01*
X162434527Y-92628443D01*
X162339041Y-92463057D01*
X162211252Y-92321133D01*
X162134002Y-92265007D01*
X162056752Y-92208882D01*
X161882288Y-92131206D01*
X161695487Y-92091500D01*
X161504513Y-92091500D01*
X161379979Y-92117970D01*
X161317711Y-92131206D01*
X161198011Y-92184500D01*
X161159602Y-92201601D01*
X161143246Y-92208883D01*
X160988747Y-92321133D01*
X160860958Y-92463057D01*
X160765473Y-92628442D01*
X160710613Y-92797283D01*
X160679876Y-92847441D01*
X160472724Y-93054595D01*
X160410412Y-93088620D01*
X160383628Y-93091500D01*
X134216371Y-93091500D01*
X134148250Y-93071498D01*
X134127276Y-93054595D01*
X132721276Y-91648595D01*
X132687250Y-91586283D01*
X132692315Y-91515468D01*
X132734862Y-91458632D01*
X132801382Y-91433821D01*
X132810371Y-91433500D01*
X173445063Y-91433500D01*
X173461506Y-91434577D01*
X173493199Y-91438750D01*
X173533079Y-91433500D01*
X173533084Y-91433500D01*
X173632655Y-91420391D01*
X173652050Y-91417838D01*
X173800075Y-91356524D01*
X173895271Y-91283477D01*
X173895271Y-91283476D01*
X173911828Y-91270772D01*
X173911831Y-91270769D01*
X173912745Y-91270067D01*
X173927186Y-91258987D01*
X173946656Y-91233611D01*
X173957508Y-91221238D01*
X177815973Y-87362773D01*
X177878283Y-87328749D01*
X177949098Y-87333814D01*
X177956291Y-87336753D01*
X178011786Y-87361461D01*
X178198587Y-87401167D01*
X178198589Y-87401167D01*
X178389559Y-87401167D01*
X178389561Y-87401167D01*
X178576362Y-87361461D01*
X178750826Y-87283785D01*
X178905327Y-87171533D01*
X179033114Y-87029611D01*
X179128601Y-86864223D01*
X179187616Y-86682595D01*
X179207578Y-86492667D01*
X179187616Y-86302739D01*
X179149775Y-86186278D01*
X179128601Y-86121110D01*
X179033115Y-85955724D01*
X178905326Y-85813800D01*
X178833253Y-85761436D01*
X178789899Y-85705214D01*
X178783824Y-85634478D01*
X178816955Y-85571686D01*
X178878775Y-85536774D01*
X178907314Y-85533500D01*
X181645063Y-85533500D01*
X181661506Y-85534577D01*
X181693199Y-85538750D01*
X181733079Y-85533500D01*
X181733084Y-85533500D01*
X181832655Y-85520391D01*
X181852050Y-85517838D01*
X182000075Y-85456524D01*
X182023557Y-85438505D01*
X182089774Y-85412903D01*
X182151507Y-85423358D01*
X182188944Y-85440026D01*
X182375745Y-85479732D01*
X182375747Y-85479732D01*
X182566717Y-85479732D01*
X182566719Y-85479732D01*
X182753520Y-85440026D01*
X182927984Y-85362350D01*
X183082485Y-85250098D01*
X183210272Y-85108176D01*
X183305759Y-84942788D01*
X183364774Y-84761160D01*
X183384736Y-84571232D01*
X183364774Y-84381304D01*
X183308751Y-84208883D01*
X183305759Y-84199675D01*
X183210273Y-84034289D01*
X183165443Y-83984500D01*
X183110169Y-83923112D01*
X183079453Y-83859106D01*
X183088216Y-83788653D01*
X183133679Y-83734121D01*
X183201407Y-83712826D01*
X183232861Y-83716199D01*
X183237144Y-83717214D01*
X183258490Y-83724633D01*
X183259791Y-83724901D01*
X183259794Y-83724903D01*
X183334078Y-83740241D01*
X183337630Y-83741029D01*
X183411344Y-83758500D01*
X183411346Y-83758500D01*
X183412641Y-83758807D01*
X183432114Y-83760797D01*
X183433439Y-83760758D01*
X183433442Y-83760759D01*
X183507477Y-83758604D01*
X183509259Y-83758553D01*
X183512923Y-83758500D01*
X185745083Y-83758500D01*
X185813204Y-83778502D01*
X185816630Y-83780784D01*
X185818325Y-83781954D01*
X185875204Y-83803525D01*
X185882193Y-83806420D01*
X185937671Y-83831389D01*
X185947704Y-83833227D01*
X185969666Y-83839349D01*
X185979199Y-83842965D01*
X186039565Y-83850294D01*
X186047064Y-83851435D01*
X186106908Y-83862402D01*
X186167616Y-83858729D01*
X186175223Y-83858500D01*
X187453000Y-83858500D01*
X187521121Y-83878502D01*
X187567614Y-83932158D01*
X187579000Y-83984500D01*
X187578999Y-84347047D01*
X187558997Y-84415168D01*
X187505341Y-84461661D01*
X187488494Y-84467944D01*
X187480987Y-84470148D01*
X187463429Y-84473968D01*
X187436541Y-84477834D01*
X187411842Y-84489114D01*
X187395007Y-84495393D01*
X187368947Y-84503046D01*
X187346093Y-84517732D01*
X187330327Y-84526341D01*
X187305625Y-84537623D01*
X187285103Y-84555405D01*
X187270717Y-84566174D01*
X187247871Y-84580856D01*
X187230083Y-84601383D01*
X187217383Y-84614083D01*
X187196856Y-84631871D01*
X187182174Y-84654717D01*
X187171405Y-84669103D01*
X187153623Y-84689625D01*
X187142341Y-84714327D01*
X187133732Y-84730093D01*
X187119046Y-84752947D01*
X187111393Y-84779007D01*
X187105114Y-84795842D01*
X187093834Y-84820541D01*
X187089968Y-84847429D01*
X187086149Y-84864985D01*
X187078500Y-84891038D01*
X187078500Y-84891039D01*
X187078500Y-84927201D01*
X187078500Y-87050038D01*
X187078500Y-87050039D01*
X187078500Y-87193961D01*
X187086149Y-87220012D01*
X187089969Y-87237574D01*
X187093834Y-87264454D01*
X187105115Y-87289156D01*
X187111397Y-87305999D01*
X187119047Y-87332053D01*
X187133727Y-87354896D01*
X187142340Y-87370669D01*
X187153622Y-87395372D01*
X187171403Y-87415892D01*
X187182176Y-87430283D01*
X187196857Y-87453128D01*
X187217378Y-87470910D01*
X187230088Y-87483620D01*
X187247871Y-87504143D01*
X187270715Y-87518823D01*
X187285108Y-87529597D01*
X187305627Y-87547377D01*
X187330333Y-87558660D01*
X187346091Y-87567264D01*
X187368947Y-87581953D01*
X187395005Y-87589604D01*
X187411842Y-87595884D01*
X187436543Y-87607165D01*
X187463435Y-87611031D01*
X187480969Y-87614845D01*
X187488495Y-87617055D01*
X187548220Y-87655434D01*
X187577717Y-87720013D01*
X187579000Y-87737951D01*
X187579000Y-105175047D01*
X187558998Y-105243168D01*
X187505342Y-105289661D01*
X187488490Y-105295945D01*
X187480982Y-105298149D01*
X187463429Y-105301968D01*
X187436541Y-105305834D01*
X187411842Y-105317114D01*
X187395007Y-105323393D01*
X187368947Y-105331046D01*
X187346093Y-105345732D01*
X187330327Y-105354341D01*
X187305625Y-105365623D01*
X187285103Y-105383405D01*
X187270717Y-105394174D01*
X187247871Y-105408856D01*
X187230083Y-105429383D01*
X187217383Y-105442083D01*
X187196856Y-105459871D01*
X187182174Y-105482717D01*
X187171405Y-105497103D01*
X187153623Y-105517625D01*
X187142341Y-105542327D01*
X187133732Y-105558093D01*
X187119046Y-105580947D01*
X187111393Y-105607007D01*
X187105114Y-105623842D01*
X187093834Y-105648541D01*
X187089968Y-105675429D01*
X187086149Y-105692985D01*
X187078500Y-105719039D01*
X187078500Y-116975500D01*
X187058498Y-117043621D01*
X187004842Y-117090114D01*
X186952500Y-117101500D01*
X112894500Y-117101500D01*
X112826379Y-117081498D01*
X112779886Y-117027842D01*
X112768500Y-116975500D01*
X112768500Y-110209766D01*
X125645787Y-110209766D01*
X125675413Y-110479015D01*
X125675414Y-110479018D01*
X125743928Y-110741088D01*
X125849870Y-110990390D01*
X125990982Y-111221610D01*
X126164255Y-111429820D01*
X126164256Y-111429821D01*
X126164258Y-111429823D01*
X126365993Y-111610578D01*
X126365995Y-111610579D01*
X126365998Y-111610582D01*
X126591910Y-111760044D01*
X126724104Y-111822014D01*
X126837171Y-111875018D01*
X126837173Y-111875018D01*
X126837176Y-111875020D01*
X127096569Y-111953060D01*
X127096572Y-111953060D01*
X127096574Y-111953061D01*
X127364558Y-111992500D01*
X127364561Y-111992500D01*
X127565330Y-111992500D01*
X127567631Y-111992500D01*
X127770156Y-111977677D01*
X128034553Y-111918780D01*
X128287558Y-111822014D01*
X128523777Y-111689441D01*
X128738177Y-111523888D01*
X128926186Y-111328881D01*
X129083799Y-111108579D01*
X129207656Y-110867675D01*
X129295118Y-110611305D01*
X129344319Y-110344933D01*
X129349259Y-110209766D01*
X168145787Y-110209766D01*
X168175413Y-110479015D01*
X168175414Y-110479018D01*
X168243928Y-110741088D01*
X168349870Y-110990390D01*
X168490982Y-111221610D01*
X168664255Y-111429820D01*
X168664256Y-111429821D01*
X168664258Y-111429823D01*
X168865993Y-111610578D01*
X168865995Y-111610579D01*
X168865998Y-111610582D01*
X169091910Y-111760044D01*
X169224104Y-111822014D01*
X169337171Y-111875018D01*
X169337173Y-111875018D01*
X169337176Y-111875020D01*
X169596569Y-111953060D01*
X169596572Y-111953060D01*
X169596574Y-111953061D01*
X169864558Y-111992500D01*
X169864561Y-111992500D01*
X170065330Y-111992500D01*
X170067631Y-111992500D01*
X170270156Y-111977677D01*
X170534553Y-111918780D01*
X170787558Y-111822014D01*
X171023777Y-111689441D01*
X171238177Y-111523888D01*
X171426186Y-111328881D01*
X171583799Y-111108579D01*
X171707656Y-110867675D01*
X171795118Y-110611305D01*
X171844319Y-110344933D01*
X171854212Y-110074235D01*
X171824586Y-109804982D01*
X171756072Y-109542912D01*
X171650130Y-109293610D01*
X171509018Y-109062390D01*
X171335745Y-108854180D01*
X171230759Y-108760112D01*
X171134006Y-108673421D01*
X171134003Y-108673419D01*
X171134002Y-108673418D01*
X170908090Y-108523956D01*
X170908086Y-108523954D01*
X170662828Y-108408981D01*
X170403425Y-108330938D01*
X170135442Y-108291500D01*
X170135439Y-108291500D01*
X169932369Y-108291500D01*
X169930099Y-108291666D01*
X169930075Y-108291667D01*
X169729839Y-108306323D01*
X169465449Y-108365219D01*
X169212441Y-108461985D01*
X168976225Y-108594557D01*
X168761820Y-108760114D01*
X168573815Y-108955117D01*
X168416200Y-109175422D01*
X168292342Y-109416328D01*
X168204882Y-109672693D01*
X168155681Y-109939065D01*
X168145787Y-110209766D01*
X129349259Y-110209766D01*
X129354212Y-110074235D01*
X129324586Y-109804982D01*
X129256072Y-109542912D01*
X129150130Y-109293610D01*
X129009018Y-109062390D01*
X128835745Y-108854180D01*
X128730759Y-108760112D01*
X128634006Y-108673421D01*
X128634003Y-108673419D01*
X128634002Y-108673418D01*
X128408090Y-108523956D01*
X128408086Y-108523954D01*
X128162828Y-108408981D01*
X127903425Y-108330938D01*
X127635442Y-108291500D01*
X127635439Y-108291500D01*
X127432369Y-108291500D01*
X127430099Y-108291666D01*
X127430075Y-108291667D01*
X127229839Y-108306323D01*
X126965449Y-108365219D01*
X126712441Y-108461985D01*
X126476225Y-108594557D01*
X126261820Y-108760114D01*
X126073815Y-108955117D01*
X125916200Y-109175422D01*
X125792342Y-109416328D01*
X125704882Y-109672693D01*
X125655681Y-109939065D01*
X125645787Y-110209766D01*
X112768500Y-110209766D01*
X112768500Y-66709766D01*
X125645787Y-66709766D01*
X125675413Y-66979015D01*
X125675414Y-66979018D01*
X125743928Y-67241088D01*
X125849870Y-67490390D01*
X125990982Y-67721610D01*
X126164255Y-67929820D01*
X126164256Y-67929821D01*
X126164258Y-67929823D01*
X126365993Y-68110578D01*
X126365995Y-68110579D01*
X126365998Y-68110582D01*
X126591910Y-68260044D01*
X126724104Y-68322014D01*
X126837171Y-68375018D01*
X126837173Y-68375018D01*
X126837176Y-68375020D01*
X127096569Y-68453060D01*
X127096572Y-68453060D01*
X127096574Y-68453061D01*
X127364558Y-68492500D01*
X127364561Y-68492500D01*
X127565330Y-68492500D01*
X127567631Y-68492500D01*
X127770156Y-68477677D01*
X128034553Y-68418780D01*
X128287558Y-68322014D01*
X128523777Y-68189441D01*
X128738177Y-68023888D01*
X128926186Y-67828881D01*
X129083799Y-67608579D01*
X129207656Y-67367675D01*
X129295118Y-67111305D01*
X129344319Y-66844933D01*
X129349259Y-66709766D01*
X168145787Y-66709766D01*
X168175413Y-66979015D01*
X168175414Y-66979018D01*
X168243928Y-67241088D01*
X168349870Y-67490390D01*
X168490982Y-67721610D01*
X168664255Y-67929820D01*
X168664256Y-67929821D01*
X168664258Y-67929823D01*
X168865993Y-68110578D01*
X168865995Y-68110579D01*
X168865998Y-68110582D01*
X169091910Y-68260044D01*
X169224104Y-68322014D01*
X169337171Y-68375018D01*
X169337173Y-68375018D01*
X169337176Y-68375020D01*
X169596569Y-68453060D01*
X169596572Y-68453060D01*
X169596574Y-68453061D01*
X169864558Y-68492500D01*
X169864561Y-68492500D01*
X170065330Y-68492500D01*
X170067631Y-68492500D01*
X170270156Y-68477677D01*
X170534553Y-68418780D01*
X170787558Y-68322014D01*
X171023777Y-68189441D01*
X171238177Y-68023888D01*
X171426186Y-67828881D01*
X171583799Y-67608579D01*
X171707656Y-67367675D01*
X171795118Y-67111305D01*
X171844319Y-66844933D01*
X171854212Y-66574235D01*
X171824586Y-66304982D01*
X171756072Y-66042912D01*
X171650130Y-65793610D01*
X171509018Y-65562390D01*
X171335745Y-65354180D01*
X171230759Y-65260112D01*
X171134006Y-65173421D01*
X171134003Y-65173419D01*
X171134002Y-65173418D01*
X170908090Y-65023956D01*
X170908086Y-65023954D01*
X170662828Y-64908981D01*
X170403425Y-64830938D01*
X170135442Y-64791500D01*
X170135439Y-64791500D01*
X169932369Y-64791500D01*
X169930099Y-64791666D01*
X169930075Y-64791667D01*
X169729839Y-64806323D01*
X169465449Y-64865219D01*
X169212441Y-64961985D01*
X168976225Y-65094557D01*
X168761820Y-65260114D01*
X168573815Y-65455117D01*
X168416200Y-65675422D01*
X168292342Y-65916328D01*
X168204882Y-66172693D01*
X168155681Y-66439065D01*
X168145787Y-66709766D01*
X129349259Y-66709766D01*
X129354212Y-66574235D01*
X129324586Y-66304982D01*
X129256072Y-66042912D01*
X129150130Y-65793610D01*
X129009018Y-65562390D01*
X128835745Y-65354180D01*
X128730759Y-65260112D01*
X128634006Y-65173421D01*
X128634003Y-65173419D01*
X128634002Y-65173418D01*
X128408090Y-65023956D01*
X128408086Y-65023954D01*
X128162828Y-64908981D01*
X127903425Y-64830938D01*
X127635442Y-64791500D01*
X127635439Y-64791500D01*
X127432369Y-64791500D01*
X127430099Y-64791666D01*
X127430075Y-64791667D01*
X127229839Y-64806323D01*
X126965449Y-64865219D01*
X126712441Y-64961985D01*
X126476225Y-65094557D01*
X126261820Y-65260114D01*
X126073815Y-65455117D01*
X125916200Y-65675422D01*
X125792342Y-65916328D01*
X125704882Y-66172693D01*
X125655681Y-66439065D01*
X125645787Y-66709766D01*
X112768500Y-66709766D01*
X112768500Y-59808500D01*
X112788502Y-59740379D01*
X112842158Y-59693886D01*
X112894500Y-59682500D01*
X186952500Y-59682500D01*
X187020621Y-59702502D01*
G37*
%TD.AperFunction*%
%TA.AperFunction,Conductor*%
G36*
X176568778Y-85553502D02*
G01*
X176615271Y-85607158D01*
X176625966Y-85672669D01*
X176622546Y-85705214D01*
X176615264Y-85774499D01*
X176635226Y-85964429D01*
X176665710Y-86058247D01*
X176667738Y-86129215D01*
X176634972Y-86186278D01*
X173091657Y-89729595D01*
X173029345Y-89763620D01*
X173002562Y-89766500D01*
X133297439Y-89766500D01*
X133229318Y-89746498D01*
X133208344Y-89729595D01*
X132317205Y-88838456D01*
X132286467Y-88788297D01*
X132234527Y-88628444D01*
X132139039Y-88463054D01*
X132121712Y-88443810D01*
X132090994Y-88379803D01*
X132099759Y-88309349D01*
X132145222Y-88254818D01*
X132212949Y-88233523D01*
X132215348Y-88233500D01*
X170345064Y-88233500D01*
X170361507Y-88234577D01*
X170393200Y-88238750D01*
X170433080Y-88233500D01*
X170433085Y-88233500D01*
X170538461Y-88219627D01*
X170552051Y-88217838D01*
X170700076Y-88156524D01*
X170795272Y-88083477D01*
X170795272Y-88083476D01*
X170811829Y-88070772D01*
X170811832Y-88070769D01*
X170812746Y-88070067D01*
X170827187Y-88058987D01*
X170846657Y-88033611D01*
X170857509Y-88021238D01*
X173308343Y-85570405D01*
X173370656Y-85536379D01*
X173397439Y-85533500D01*
X176500657Y-85533500D01*
X176568778Y-85553502D01*
G37*
%TD.AperFunction*%
%TD*%
M02*
