M48
; DRILL file {KiCad 7.0.2} date Fri May 24 23:14:02 2024
; FORMAT={-:-/ absolute / metric / decimal}
; #@! TF.CreationDate,2024-05-24T23:14:02+02:00
; #@! TF.GenerationSoftware,Kicad,Pcbnew,7.0.2
; #@! TF.FileFunction,Plated,1,2,PTH
FMAT,2
METRIC
; #@! TA.AperFunction,Plated,PTH,ViaDrill
T1C0.400
; #@! TA.AperFunction,Plated,PTH,ComponentDrill
T2C0.900
; #@! TA.AperFunction,Plated,PTH,ComponentDrill
T3C1.020
; #@! TA.AperFunction,Plated,PTH,ComponentDrill
T4C1.600
%
G90
G05
T1
X114.5Y-89.0
X131.4Y-85.9
X131.4Y-89.0
X132.5Y-82.5
X132.5Y-94.5
X133.1Y-86.0
X133.2Y-88.967
X134.4Y-92.6
X136.8Y-85.7
X137.0Y-96.0
X142.0Y-96.0
X142.5Y-85.68
X142.5Y-92.5
X143.0Y-82.5
X145.5Y-85.5
X145.5Y-89.0
X146.5Y-96.0
X158.5Y-92.5
X159.5Y-85.5
X159.5Y-89.0
X161.5Y-82.5
X161.6Y-93.0
X162.0Y-96.0
X163.5Y-85.5
X164.0Y-92.5
X167.199Y-81.246
X167.5Y-92.5
X169.0Y-85.0
X170.5Y-89.0
X175.6Y-86.1
X176.0Y-83.725
X176.5Y-82.5
X177.5Y-81.4
X177.529Y-85.774
X178.1Y-89.8
X178.294Y-86.493
X181.0Y-86.5
X181.729Y-83.829
X182.471Y-84.571
X183.68Y-81.28
X186.0Y-75.0
X186.0Y-85.0
X186.0Y-89.5
T2
X127.4Y-83.9
X127.4Y-86.44
X127.4Y-88.98
X127.4Y-91.52
X129.94Y-85.17
X129.94Y-87.71
X129.94Y-90.25
X129.94Y-92.79
T3
X116.97Y-81.715
X116.97Y-84.255
X116.97Y-92.435
X116.97Y-94.975
T4
X124.1Y-80.6
X124.1Y-96.09
T0
M30
