%TF.GenerationSoftware,KiCad,Pcbnew,7.0.2*%
%TF.CreationDate,2024-05-24T23:14:04+02:00*%
%TF.ProjectId,dsoxlan,64736f78-6c61-46e2-9e6b-696361645f70,rev?*%
%TF.SameCoordinates,Original*%
%TF.FileFunction,Soldermask,Bot*%
%TF.FilePolarity,Negative*%
%FSLAX46Y46*%
G04 Gerber Fmt 4.6, Leading zero omitted, Abs format (unit mm)*
G04 Created by KiCad (PCBNEW 7.0.2) date 2024-05-24 23:14:04*
%MOMM*%
%LPD*%
G01*
G04 APERTURE LIST*
%ADD10C,2.400000*%
%ADD11C,1.530000*%
%ADD12C,1.400000*%
%ADD13C,3.250000*%
%ADD14R,3.600000X0.550000*%
%ADD15C,3.200000*%
%ADD16C,0.800000*%
G04 APERTURE END LIST*
D10*
%TO.C,P1*%
X124100001Y-80600000D03*
X124100001Y-96090000D03*
D11*
X116970001Y-94975000D03*
X116970001Y-92435000D03*
X116970001Y-84255000D03*
X116970001Y-81715000D03*
D12*
X129940001Y-92790000D03*
X127400001Y-91520000D03*
X129940001Y-90250000D03*
X127400001Y-88980000D03*
X129940001Y-87710000D03*
X127400001Y-86440000D03*
X129940001Y-85170000D03*
X127400001Y-83900000D03*
D13*
X121050001Y-82630000D03*
X121050001Y-94060000D03*
%TD*%
D14*
%TO.C,P2*%
X190754000Y-104750000D03*
X190754000Y-103950000D03*
X190754000Y-103150000D03*
X190754000Y-102350000D03*
X190754000Y-101550000D03*
X190754000Y-100750000D03*
X190754000Y-99950000D03*
X190754000Y-99150000D03*
X190754000Y-98350000D03*
X190754000Y-97550000D03*
X190754000Y-96750000D03*
X190754000Y-95950000D03*
X190754000Y-95150000D03*
X190754000Y-94350000D03*
X190754000Y-93550000D03*
X190754000Y-92750000D03*
X190754000Y-91950000D03*
X190754000Y-91150000D03*
X190754000Y-90350000D03*
X190754000Y-89550000D03*
X190754000Y-88750000D03*
X190754000Y-87950000D03*
X190754000Y-83950000D03*
X190754000Y-83150000D03*
X190754000Y-82350000D03*
X190754000Y-81550000D03*
X190754000Y-80750000D03*
X190754000Y-79950000D03*
X190754000Y-79150000D03*
X190754000Y-78350000D03*
X190754000Y-77550000D03*
X190754000Y-76750000D03*
X190754000Y-75950000D03*
X190754000Y-75150000D03*
X190754000Y-74350000D03*
X190754000Y-73550000D03*
X190754000Y-72750000D03*
X190754000Y-71950000D03*
X190754000Y-71150000D03*
X190754000Y-70350000D03*
%TD*%
D15*
%TO.C,H102*%
X127500000Y-110142000D03*
%TD*%
%TO.C,H101*%
X127500000Y-66642000D03*
%TD*%
%TO.C,H103*%
X170000000Y-66642000D03*
%TD*%
%TO.C,H104*%
X170000000Y-110142000D03*
%TD*%
D16*
X114500000Y-89000000D03*
X134400000Y-92600000D03*
X175600000Y-86100000D03*
X133100000Y-86000000D03*
X131400000Y-85900000D03*
X182471232Y-84571232D03*
X181728768Y-83828768D03*
X131400000Y-89000000D03*
X178294074Y-86492667D03*
X177528768Y-85774500D03*
X132500000Y-94500000D03*
X163500000Y-85500000D03*
X183680000Y-81280000D03*
X142500000Y-85680500D03*
X146500000Y-96000000D03*
X178100000Y-89800000D03*
X186000000Y-85000000D03*
X159500000Y-85500000D03*
X145500000Y-89000000D03*
X132500000Y-82500000D03*
X142500000Y-92500000D03*
X145500000Y-85500000D03*
X136800000Y-85700000D03*
X186000000Y-89500000D03*
X161500000Y-82500000D03*
X170500000Y-89000000D03*
X186000000Y-75000000D03*
X133200000Y-88967152D03*
X167199272Y-81245799D03*
X164000000Y-92500000D03*
X181000000Y-86500000D03*
X143000000Y-82500000D03*
X176000000Y-83725500D03*
X177500000Y-81400500D03*
X137000000Y-96000000D03*
X162000000Y-96000000D03*
X142000000Y-96000000D03*
X159500000Y-89000000D03*
X167500000Y-92500000D03*
X158500000Y-92500000D03*
X169000000Y-85000000D03*
X161600000Y-93000000D03*
X176500000Y-82500000D03*
G36*
X193491039Y-69819685D02*
G01*
X193536794Y-69872489D01*
X193548000Y-69924000D01*
X193548000Y-84839000D01*
X193528315Y-84906039D01*
X193475511Y-84951794D01*
X193424000Y-84963000D01*
X188466246Y-84963000D01*
X188399207Y-84943315D01*
X188353452Y-84890511D01*
X188342246Y-84839348D01*
X188300349Y-69924348D01*
X188319846Y-69857254D01*
X188372521Y-69811351D01*
X188424349Y-69800000D01*
X193424000Y-69800000D01*
X193491039Y-69819685D01*
G37*
G36*
X193491039Y-87141685D02*
G01*
X193536794Y-87194489D01*
X193548000Y-87246000D01*
X193548000Y-105276000D01*
X193528315Y-105343039D01*
X193475511Y-105388794D01*
X193424000Y-105400000D01*
X188523653Y-105400000D01*
X188456614Y-105380315D01*
X188410859Y-105327511D01*
X188399653Y-105276348D01*
X188349006Y-87246348D01*
X188368503Y-87179254D01*
X188421178Y-87133351D01*
X188473006Y-87122000D01*
X193424000Y-87122000D01*
X193491039Y-87141685D01*
G37*
M02*
